solid OpenSCAD_Model
  facet normal 0 1 0
    outer loop
      vertex -0.675 -0.575 2
      vertex -0.675 -0.575 -1.6
      vertex -2.25 -0.575 -1.6
    endloop
  endfacet
  facet normal 0 1 0
    outer loop
      vertex 2.25 -0.575 2
      vertex 2.25 -0.575 -1.6
      vertex 0.675 -0.575 -1.6
    endloop
  endfacet
  facet normal -1 0 0
    outer loop
      vertex 0.675 -2.08 -1.6
      vertex 0.675 -2.08 2
      vertex 0.675 -0.575 -1.6
    endloop
  endfacet
  facet normal 0 0 -1
    outer loop
      vertex -0.675 0.575 2
      vertex -0.675 2.08 2
      vertex 0.675 2.08 2
    endloop
  endfacet
  facet normal 0 0 -1
    outer loop
      vertex -0.675 -0.575 2
      vertex -0.675 0.575 2
      vertex 0.675 2.08 2
    endloop
  endfacet
  facet normal 0 0 -1
    outer loop
      vertex -0.675 -0.575 2
      vertex -2.25 0.575 2
      vertex -0.675 0.575 2
    endloop
  endfacet
  facet normal 1 0 0
    outer loop
      vertex -0.675 0.575 -1.6
      vertex -0.675 2.08 2
      vertex -0.675 0.575 2
    endloop
  endfacet
  facet normal 0 -1 0
    outer loop
      vertex -2.25 0.575 2
      vertex -0.675 0.575 -1.6
      vertex -0.675 0.575 2
    endloop
  endfacet
  facet normal 1 0 0
    outer loop
      vertex -2.25 -0.575 2
      vertex -2.25 0.575 -1.6
      vertex -2.25 0.575 2
    endloop
  endfacet
  facet normal -1 0 0
    outer loop
      vertex 0.675 -0.575 2
      vertex 0.675 -0.575 -1.6
      vertex 0.675 -2.08 2
    endloop
  endfacet
  facet normal 0 1 0
    outer loop
      vertex 0.675 -0.575 -1.6
      vertex 0.675 -0.575 2
      vertex 2.25 -0.575 2
    endloop
  endfacet
  facet normal -1 0 0
    outer loop
      vertex 2.25 -0.575 -1.6
      vertex 2.25 -0.575 2
      vertex 2.25 0.575 2
    endloop
  endfacet
  facet normal 0 0 -1
    outer loop
      vertex 0.675 -2.08 2
      vertex -0.675 -2.08 2
      vertex 0.675 -0.575 2
    endloop
  endfacet
  facet normal 0 0 -1
    outer loop
      vertex 0.675 -0.575 2
      vertex -0.675 -2.08 2
      vertex 0.675 0.575 2
    endloop
  endfacet
  facet normal 0 0 -1
    outer loop
      vertex 0.675 -0.575 2
      vertex 0.675 0.575 2
      vertex 2.25 -0.575 2
    endloop
  endfacet
  facet normal 1 0 0
    outer loop
      vertex -0.675 0.575 -1.6
      vertex -0.675 2.08 -1.6
      vertex -0.675 2.08 2
    endloop
  endfacet
  facet normal 0 -1 0
    outer loop
      vertex -2.25 0.575 2
      vertex -2.25 0.575 -1.6
      vertex -0.675 0.575 -1.6
    endloop
  endfacet
  facet normal -1 0 0
    outer loop
      vertex 0.675 2.08 -1.6
      vertex 0.675 0.575 -1.6
      vertex 0.675 2.08 2
    endloop
  endfacet
  facet normal 0 -1 0
    outer loop
      vertex 0.675 0.575 2
      vertex 0.675 0.575 -1.6
      vertex 2.25 0.575 -1.6
    endloop
  endfacet
  facet normal -1 0 0
    outer loop
      vertex 2.25 -0.575 -1.6
      vertex 2.25 0.575 2
      vertex 2.25 0.575 -1.6
    endloop
  endfacet
  facet normal 0 0 -1
    outer loop
      vertex -0.675 -2.08 2
      vertex -0.675 -0.575 2
      vertex 0.675 2.08 2
    endloop
  endfacet
  facet normal 0 0 -1
    outer loop
      vertex -0.675 -0.575 2
      vertex -2.25 -0.575 2
      vertex -2.25 0.575 2
    endloop
  endfacet
  facet normal 1 0 0
    outer loop
      vertex -0.675 -0.575 -1.6
      vertex -0.675 -0.575 2
      vertex -0.675 -2.08 2
    endloop
  endfacet
  facet normal 0 1 0
    outer loop
      vertex -2.25 -0.575 -1.6
      vertex -2.25 -0.575 2
      vertex -0.675 -0.575 2
    endloop
  endfacet
  facet normal -1 0 0
    outer loop
      vertex 0.675 0.575 -1.6
      vertex 0.675 0.575 2
      vertex 0.675 2.08 2
    endloop
  endfacet
  facet normal 0 -1 0
    outer loop
      vertex 0.675 0.575 2
      vertex 2.25 0.575 -1.6
      vertex 2.25 0.575 2
    endloop
  endfacet
  facet normal 0 0 -1
    outer loop
      vertex -0.675 -2.08 2
      vertex 0.675 2.08 2
      vertex 0.675 0.575 2
    endloop
  endfacet
  facet normal 0 0 -1
    outer loop
      vertex 2.25 -0.575 2
      vertex 0.675 0.575 2
      vertex 2.25 0.575 2
    endloop
  endfacet
  facet normal 1 0 0
    outer loop
      vertex -0.675 -2.08 -1.6
      vertex -0.675 -0.575 -1.6
      vertex -0.675 -2.08 2
    endloop
  endfacet
  facet normal 1 0 0
    outer loop
      vertex -2.25 -0.575 -1.6
      vertex -2.25 0.575 -1.6
      vertex -2.25 -0.575 2
    endloop
  endfacet
  facet normal -0.5555702330196016 0.8314696123025457 0
    outer loop
      vertex 6.467878402655563 -6.846715672757901 -3
      vertex 6.467878402655563 -6.846715672757901 1.4
      vertex 6.694974746830583 -6.694974746830583 -3
    endloop
  endfacet
  facet normal -0.6758902283575511 -0.2938448543390766 -0.6758902283575523
    outer loop
      vertex 6.508241937732348 6.508241937732348 1.947698654048022
      vertex 6.747698654048023 6.508241937732348 1.7082419377323474
      vertex 6.694974746830583 6.2 1.894974746830583
    endloop
  endfacet
  facet normal -0.9626372481397786 -0.19148045395532445 -0.19148045395532445
    outer loop
      vertex 6.9 6.2 1.4
      vertex 6.846715672757901 6.2 1.6678784026555626
      vertex 6.846715672757901 6.467878402655563 1.4
    endloop
  endfacet
  facet normal -0.19148045395532445 -0.9626372481397786 -0.19148045395532445
    outer loop
      vertex 6.2 6.9 1.4
      vertex 6.467878402655563 6.846715672757901 1.4
      vertex 6.2 6.846715672757901 1.6678784026555626
    endloop
  endfacet
  facet normal -0.5555702330196016 0 -0.8314696123025457
    outer loop
      vertex 6.694974746830583 -6.2 1.894974746830583
      vertex 6.467878402655563 6.2 2.0467156727579003
      vertex 6.694974746830583 6.2 1.894974746830583
    endloop
  endfacet
  facet normal -0.8314696123025457 0 -0.5555702330196016
    outer loop
      vertex 6.694974746830583 -6.2 1.894974746830583
      vertex 6.694974746830583 6.2 1.894974746830583
      vertex 6.846715672757901 6.2 1.6678784026555626
    endloop
  endfacet
  facet normal 0.9626372481397786 0.19148045395532445 -0.19148045395532445
    outer loop
      vertex -6.846715672757901 -6.467878402655563 1.4
      vertex -6.9 -6.2 1.4
      vertex -6.846715672757901 -6.2 1.6678784026555626
    endloop
  endfacet
  facet normal 0.19148045395532445 0.9626372481397786 -0.19148045395532445
    outer loop
      vertex -6.467878402655563 -6.846715672757901 1.4
      vertex -6.2 -6.846715672757901 1.6678784026555626
      vertex -6.2 -6.9 1.4
    endloop
  endfacet
  facet normal 0.8161987773137127 0.5453665872968729 -0.1907743205249667
    outer loop
      vertex -6.694974746830583 -6.694974746830583 1.4
      vertex -6.846715672757901 -6.467878402655563 1.4
      vertex -6.747698654048023 -6.508241937732348 1.7082419377323474
    endloop
  endfacet
  facet normal 0.5453665872968729 0.8161987773137127 -0.19077432052496668
    outer loop
      vertex -6.508241937732348 -6.747698654048023 1.7082419377323474
      vertex -6.467878402655563 -6.846715672757901 1.4
      vertex -6.694974746830583 -6.694974746830583 1.4
    endloop
  endfacet
  facet normal 0.6758902283575519 0.6758902283575519 -0.29384485433907614
    outer loop
      vertex -6.508241937732348 -6.747698654048023 1.7082419377323474
      vertex -6.694974746830583 -6.694974746830583 1.4
      vertex -6.747698654048023 -6.508241937732348 1.7082419377323474
    endloop
  endfacet
  facet normal 0.5773502691896254 0.5773502691896254 -0.5773502691896265
    outer loop
      vertex -6.508241937732348 -6.747698654048023 1.7082419377323474
      vertex -6.747698654048023 -6.508241937732348 1.7082419377323474
      vertex -6.508241937732348 -6.508241937732348 1.947698654048022
    endloop
  endfacet
  facet normal -0.19509032201613005 0 -0.9807852804032301
    outer loop
      vertex 6.467878402655563 -6.2 2.0467156727579003
      vertex 6.2 6.2 2.1
      vertex 6.467878402655563 6.2 2.0467156727579003
    endloop
  endfacet
  facet normal 0 0 -1
    outer loop
      vertex 2.9000000000000004 -2.08 2.1
      vertex 2.9000000000000004 2.08 2.1
      vertex 6.2 6.2 2.1
    endloop
  endfacet
  facet normal -0.9807852804032301 0 -0.19509032201613005
    outer loop
      vertex 6.9 -6.2 1.4
      vertex 6.846715672757901 6.2 1.6678784026555626
      vertex 6.9 6.2 1.4
    endloop
  endfacet
  facet normal 0 -0.5555702330196016 -0.8314696123025457
    outer loop
      vertex -6.2 6.467878402655563 2.0467156727579003
      vertex 6.2 6.694974746830583 1.894974746830583
      vertex 6.2 6.467878402655563 2.0467156727579003
    endloop
  endfacet
  facet normal 0.9279350565396144 0.2635683316000072 -0.2635683316000072
    outer loop
      vertex -6.846715672757901 -6.467878402655563 1.4
      vertex -6.846715672757901 -6.2 1.6678784026555626
      vertex -6.747698654048023 -6.508241937732348 1.7082419377323474
    endloop
  endfacet
  facet normal 0.8161987773137127 0.19077432052496668 -0.5453665872968729
    outer loop
      vertex -6.747698654048023 -6.508241937732348 1.7082419377323474
      vertex -6.846715672757901 -6.2 1.6678784026555626
      vertex -6.694974746830583 -6.2 1.894974746830583
    endloop
  endfacet
  facet normal 0.6758902283575511 0.2938448543390766 -0.6758902283575523
    outer loop
      vertex -6.508241937732348 -6.508241937732348 1.947698654048022
      vertex -6.747698654048023 -6.508241937732348 1.7082419377323474
      vertex -6.694974746830583 -6.2 1.894974746830583
    endloop
  endfacet
  facet normal 0.5453665872968728 0.1907743205249678 -0.8161987773137125
    outer loop
      vertex -6.508241937732348 -6.508241937732348 1.947698654048022
      vertex -6.694974746830583 -6.2 1.894974746830583
      vertex -6.467878402655563 -6.2 2.0467156727579003
    endloop
  endfacet
  facet normal 0.26356833160000714 0.9279350565396143 -0.26356833160000714
    outer loop
      vertex -6.467878402655563 -6.846715672757901 1.4
      vertex -6.508241937732348 -6.747698654048023 1.7082419377323474
      vertex -6.2 -6.846715672757901 1.6678784026555626
    endloop
  endfacet
  facet normal 0.19077432052496668 0.8161987773137127 -0.5453665872968729
    outer loop
      vertex -6.508241937732348 -6.747698654048023 1.7082419377323474
      vertex -6.2 -6.694974746830583 1.894974746830583
      vertex -6.2 -6.846715672757901 1.6678784026555626
    endloop
  endfacet
  facet normal 0.2938448543390766 0.6758902283575511 -0.6758902283575523
    outer loop
      vertex -6.2 -6.694974746830583 1.894974746830583
      vertex -6.508241937732348 -6.747698654048023 1.7082419377323474
      vertex -6.508241937732348 -6.508241937732348 1.947698654048022
    endloop
  endfacet
  facet normal 0.1907743205249678 0.5453665872968728 -0.8161987773137125
    outer loop
      vertex -6.508241937732348 -6.508241937732348 1.947698654048022
      vertex -6.2 -6.467878402655563 2.0467156727579003
      vertex -6.2 -6.694974746830583 1.894974746830583
    endloop
  endfacet
  facet normal 0.26356833160000825 0.26356833160000825 -0.9279350565396138
    outer loop
      vertex -6.2 -6.467878402655563 2.0467156727579003
      vertex -6.508241937732348 -6.508241937732348 1.947698654048022
      vertex -6.467878402655563 -6.2 2.0467156727579003
    endloop
  endfacet
  facet normal 0.19148045395532445 0.19148045395532445 -0.9626372481397786
    outer loop
      vertex -6.2 -6.467878402655563 2.0467156727579003
      vertex -6.467878402655563 -6.2 2.0467156727579003
      vertex -6.2 -6.2 2.1
    endloop
  endfacet
  facet normal 0 -0.8314696123025457 -0.5555702330196016
    outer loop
      vertex -6.2 6.694974746830583 1.894974746830583
      vertex 6.2 6.846715672757901 1.6678784026555626
      vertex 6.2 6.694974746830583 1.894974746830583
    endloop
  endfacet
  facet normal 2.375847950265309e-19 -0.19509032201613005 -0.9807852804032301
    outer loop
      vertex 6.2 6.2 2.1
      vertex -6.2 6.467878402655563 2.0467156727579003
      vertex 6.2 6.467878402655563 2.0467156727579003
    endloop
  endfacet
  facet normal 0 0 -1
    outer loop
      vertex -6.2 6.2 2.1
      vertex 6.2 6.2 2.1
      vertex 2.9000000000000004 2.08 2.1
    endloop
  endfacet
  facet normal 0 -0.9807852804032301 -0.19509032201613005
    outer loop
      vertex -6.2 6.9 1.4
      vertex 6.2 6.9 1.4
      vertex 6.2 6.846715672757901 1.6678784026555626
    endloop
  endfacet
  facet normal -0.5773502691896254 -0.5773502691896254 -0.5773502691896265
    outer loop
      vertex 6.508241937732348 6.747698654048023 1.7082419377323474
      vertex 6.747698654048023 6.508241937732348 1.7082419377323474
      vertex 6.508241937732348 6.508241937732348 1.947698654048022
    endloop
  endfacet
  facet normal -0.8161987773137127 -0.5453665872968729 -0.1907743205249667
    outer loop
      vertex 6.694974746830583 6.694974746830583 1.4
      vertex 6.846715672757901 6.467878402655563 1.4
      vertex 6.747698654048023 6.508241937732348 1.7082419377323474
    endloop
  endfacet
  facet normal 0 1 0
    outer loop
      vertex 6.2 -6.9 1.4
      vertex 6.2 -6.9 -3
      vertex -6.2 -6.9 1.4
    endloop
  endfacet
  facet normal -0.9807852804032302 0.19509032201613002 0
    outer loop
      vertex 6.846715672757901 -6.467878402655563 -3
      vertex 6.846715672757901 -6.467878402655563 1.4
      vertex 6.9 -6.2 -3
    endloop
  endfacet
  facet normal -0.19509032201613002 0.9807852804032302 0
    outer loop
      vertex 6.467878402655563 -6.846715672757901 -3
      vertex 6.2 -6.9 1.4
      vertex 6.467878402655563 -6.846715672757901 1.4
    endloop
  endfacet
  facet normal -0.5555702330196016 0.8314696123025457 0
    outer loop
      vertex 6.694974746830583 -6.694974746830583 1.4
      vertex 6.694974746830583 -6.694974746830583 -3
      vertex 6.467878402655563 -6.846715672757901 1.4
    endloop
  endfacet
  facet normal 0 1 0
    outer loop
      vertex -6.2 -6.9 -3
      vertex -6.2 -6.9 1.4
      vertex 6.2 -6.9 -3
    endloop
  endfacet
  facet normal -0.8314696123025457 -0.5555702330196016 0
    outer loop
      vertex 6.694974746830583 6.694974746830583 1.4
      vertex 6.694974746830583 6.694974746830583 -3
      vertex 6.846715672757901 6.467878402655563 1.4
    endloop
  endfacet
  facet normal 0.9807852804032301 0 -0.19509032201613005
    outer loop
      vertex -6.846715672757901 6.2 1.6678784026555626
      vertex -6.846715672757901 -6.2 1.6678784026555626
      vertex -6.9 -6.2 1.4
    endloop
  endfacet
  facet normal 0.8314696123025457 0 -0.5555702330196016
    outer loop
      vertex -6.694974746830583 6.2 1.894974746830583
      vertex -6.694974746830583 -6.2 1.894974746830583
      vertex -6.846715672757901 -6.2 1.6678784026555626
    endloop
  endfacet
  facet normal 0.5555702330196016 0 -0.8314696123025457
    outer loop
      vertex -6.694974746830583 -6.2 1.894974746830583
      vertex -6.694974746830583 6.2 1.894974746830583
      vertex -6.467878402655563 -6.2 2.0467156727579003
    endloop
  endfacet
  facet normal 0.19509032201613005 0 -0.9807852804032301
    outer loop
      vertex -6.2 -6.2 2.1
      vertex -6.467878402655563 -6.2 2.0467156727579003
      vertex -6.2 6.2 2.1
    endloop
  endfacet
  facet normal -0.5555702330196016 -0.8314696123025457 0
    outer loop
      vertex 6.467878402655563 6.846715672757901 1.4
      vertex 6.467878402655563 6.846715672757901 -3
      vertex 6.694974746830583 6.694974746830583 1.4
    endloop
  endfacet
  facet normal -0.9807852804032302 -0.19509032201613002 0
    outer loop
      vertex 6.846715672757901 6.467878402655563 1.4
      vertex 6.846715672757901 6.467878402655563 -3
      vertex 6.9 6.2 1.4
    endloop
  endfacet
  facet normal -0.19509032201613002 -0.9807852804032302 0
    outer loop
      vertex 6.2 6.9 -3
      vertex 6.467878402655563 6.846715672757901 1.4
      vertex 6.2 6.9 1.4
    endloop
  endfacet
  facet normal -0.8314696123025457 -0.5555702330196016 0
    outer loop
      vertex 6.846715672757901 6.467878402655563 -3
      vertex 6.846715672757901 6.467878402655563 1.4
      vertex 6.694974746830583 6.694974746830583 -3
    endloop
  endfacet
  facet normal 0 0 -1
    outer loop
      vertex -2.9000000000000004 -2.08 2.1
      vertex -6.2 -6.2 2.1
      vertex -2.9000000000000004 2.08 2.1
    endloop
  endfacet
  facet normal -0.5555702330196016 -0.8314696123025457 0
    outer loop
      vertex 6.694974746830583 6.694974746830583 -3
      vertex 6.694974746830583 6.694974746830583 1.4
      vertex 6.467878402655563 6.846715672757901 -3
    endloop
  endfacet
  facet normal 0 0.9807852804032301 -0.19509032201613005
    outer loop
      vertex -6.2 -6.9 1.4
      vertex -6.2 -6.846715672757901 1.6678784026555626
      vertex 6.2 -6.9 1.4
    endloop
  endfacet
  facet normal -4.600529046043769e-19 0.8314696123025457 -0.5555702330196016
    outer loop
      vertex -6.2 -6.846715672757901 1.6678784026555626
      vertex -6.2 -6.694974746830583 1.894974746830583
      vertex 6.2 -6.694974746830583 1.894974746830583
    endloop
  endfacet
  facet normal -0.9807852804032302 -0.19509032201613002 0
    outer loop
      vertex 6.9 6.2 -3
      vertex 6.9 6.2 1.4
      vertex 6.846715672757901 6.467878402655563 -3
    endloop
  endfacet
  facet normal -4.600529046043769e-19 0.5555702330196016 -0.8314696123025457
    outer loop
      vertex -6.2 -6.694974746830583 1.894974746830583
      vertex -6.2 -6.467878402655563 2.0467156727579003
      vertex 6.2 -6.467878402655563 2.0467156727579003
    endloop
  endfacet
  facet normal -2.375847950265309e-19 0.19509032201613005 -0.9807852804032301
    outer loop
      vertex -6.2 -6.467878402655563 2.0467156727579003
      vertex -6.2 -6.2 2.1
      vertex 6.2 -6.2 2.1
    endloop
  endfacet
  facet normal -0.19509032201613002 -0.9807852804032302 0
    outer loop
      vertex 6.467878402655563 6.846715672757901 1.4
      vertex 6.2 6.9 -3
      vertex 6.467878402655563 6.846715672757901 -3
    endloop
  endfacet
  facet normal -1 0 0
    outer loop
      vertex 6.9 -6.2 1.4
      vertex 6.9 6.2 1.4
      vertex 6.9 6.2 -3
    endloop
  endfacet
  facet normal 0 -1 0
    outer loop
      vertex -6.2 6.9 -3
      vertex 6.2 6.9 -3
      vertex 6.2 6.9 1.4
    endloop
  endfacet
  facet normal 0 0 -1
    outer loop
      vertex -6.2 -6.2 2.1
      vertex -2.9000000000000004 -2.08 2.1
      vertex 6.2 -6.2 2.1
    endloop
  endfacet
  facet normal -0.8314696123025457 0.5555702330196016 -1.2965127311577893e-18
    outer loop
      vertex 6.694974746830583 -6.694974746830583 1.4
      vertex 6.846715672757901 -6.467878402655563 1.4
      vertex 6.846715672757901 -6.467878402655563 -3
    endloop
  endfacet
  facet normal -0.9807852804032302 0.19509032201613002 0
    outer loop
      vertex 6.9 -6.2 -3
      vertex 6.846715672757901 -6.467878402655563 1.4
      vertex 6.9 -6.2 1.4
    endloop
  endfacet
  facet normal -0.26356833160000825 -0.26356833160000825 -0.9279350565396138
    outer loop
      vertex 6.2 6.467878402655563 2.0467156727579003
      vertex 6.508241937732348 6.508241937732348 1.947698654048022
      vertex 6.467878402655563 6.2 2.0467156727579003
    endloop
  endfacet
  facet normal 1 0 0
    outer loop
      vertex -6.9 -6.2 1.4
      vertex -6.9 -6.2 -3
      vertex -6.9 6.2 1.4
    endloop
  endfacet
  facet normal -1 0 0
    outer loop
      vertex 6.9 6.2 -3
      vertex 6.9 -6.2 -3
      vertex 6.9 -6.2 1.4
    endloop
  endfacet
  facet normal -0.19148045395532445 -0.19148045395532445 -0.9626372481397786
    outer loop
      vertex 6.2 6.2 2.1
      vertex 6.2 6.467878402655563 2.0467156727579003
      vertex 6.467878402655563 6.2 2.0467156727579003
    endloop
  endfacet
  facet normal -0.26356833160000714 -0.9279350565396143 -0.26356833160000714
    outer loop
      vertex 6.2 6.846715672757901 1.6678784026555626
      vertex 6.467878402655563 6.846715672757901 1.4
      vertex 6.508241937732348 6.747698654048023 1.7082419377323474
    endloop
  endfacet
  facet normal 4.600529046043769e-19 -0.5555702330196016 -0.8314696123025457
    outer loop
      vertex -6.2 6.467878402655563 2.0467156727579003
      vertex -6.2 6.694974746830583 1.894974746830583
      vertex 6.2 6.694974746830583 1.894974746830583
    endloop
  endfacet
  facet normal 1 0 0
    outer loop
      vertex -6.9 6.2 -3
      vertex -6.9 6.2 1.4
      vertex -6.9 -6.2 -3
    endloop
  endfacet
  facet normal 0.19509032201613002 0.9807852804032302 0
    outer loop
      vertex -6.2 -6.9 -3
      vertex -6.467878402655563 -6.846715672757901 1.4
      vertex -6.2 -6.9 1.4
    endloop
  endfacet
  facet normal 0.9807852804032302 0.19509032201613002 0
    outer loop
      vertex -6.846715672757901 -6.467878402655563 1.4
      vertex -6.846715672757901 -6.467878402655563 -3
      vertex -6.9 -6.2 1.4
    endloop
  endfacet
  facet normal 0.5555702330196016 0.8314696123025457 0
    outer loop
      vertex -6.467878402655563 -6.846715672757901 1.4
      vertex -6.467878402655563 -6.846715672757901 -3
      vertex -6.694974746830583 -6.694974746830583 1.4
    endloop
  endfacet
  facet normal 0 -0.8314696123025457 -0.5555702330196016
    outer loop
      vertex -6.2 6.846715672757901 1.6678784026555626
      vertex 6.2 6.846715672757901 1.6678784026555626
      vertex -6.2 6.694974746830583 1.894974746830583
    endloop
  endfacet
  facet normal -0.8314696123025457 0.5555702330196016 -1.2965127311577893e-18
    outer loop
      vertex 6.846715672757901 -6.467878402655563 -3
      vertex 6.694974746830583 -6.694974746830583 -3
      vertex 6.694974746830583 -6.694974746830583 1.4
    endloop
  endfacet
  facet normal -0.19509032201613002 0.9807852804032302 0
    outer loop
      vertex 6.2 -6.9 -3
      vertex 6.2 -6.9 1.4
      vertex 6.467878402655563 -6.846715672757901 -3
    endloop
  endfacet
  facet normal -0.8161987773137127 -0.1907743205249667 -0.5453665872968729
    outer loop
      vertex 6.846715672757901 6.2 1.6678784026555626
      vertex 6.694974746830583 6.2 1.894974746830583
      vertex 6.747698654048023 6.508241937732348 1.7082419377323474
    endloop
  endfacet
  facet normal 0.9807852804032302 -0.19509032201613002 0
    outer loop
      vertex -6.846715672757901 6.467878402655563 -3
      vertex -6.846715672757901 6.467878402655563 1.4
      vertex -6.9 6.2 -3
    endloop
  endfacet
  facet normal 0.8314696123025457 -0.5555702330196016 -1.2965127311577893e-18
    outer loop
      vertex -6.846715672757901 6.467878402655563 -3
      vertex -6.694974746830583 6.694974746830583 -3
      vertex -6.694974746830583 6.694974746830583 1.4
    endloop
  endfacet
  facet normal 0.5555702330196016 -0.8314696123025457 0
    outer loop
      vertex -6.467878402655563 6.846715672757901 -3
      vertex -6.467878402655563 6.846715672757901 1.4
      vertex -6.694974746830583 6.694974746830583 -3
    endloop
  endfacet
  facet normal 0.19509032201613002 -0.9807852804032302 -6.695571496202234e-19
    outer loop
      vertex -6.467878402655563 6.846715672757901 -3
      vertex -6.2 6.9 -3
      vertex -6.2 6.9 1.4
    endloop
  endfacet
  facet normal -0.8314696123025457 0 -0.5555702330196016
    outer loop
      vertex 6.846715672757901 -6.2 1.6678784026555626
      vertex 6.694974746830583 -6.2 1.894974746830583
      vertex 6.846715672757901 6.2 1.6678784026555626
    endloop
  endfacet
  facet normal -0.9807852804032301 2.375847950265309e-19 -0.19509032201613005
    outer loop
      vertex 6.9 -6.2 1.4
      vertex 6.846715672757901 -6.2 1.6678784026555626
      vertex 6.846715672757901 6.2 1.6678784026555626
    endloop
  endfacet
  facet normal -0.19509032201613005 0 -0.9807852804032301
    outer loop
      vertex 6.2 -6.2 2.1
      vertex 6.2 6.2 2.1
      vertex 6.467878402655563 -6.2 2.0467156727579003
    endloop
  endfacet
  facet normal 0 0 -1
    outer loop
      vertex 6.2 6.2 2.1
      vertex 6.2 -6.2 2.1
      vertex 2.9000000000000004 -2.08 2.1
    endloop
  endfacet
  facet normal 0.9807852804032302 -0.19509032201613002 0
    outer loop
      vertex -6.9 6.2 1.4
      vertex -6.9 6.2 -3
      vertex -6.846715672757901 6.467878402655563 1.4
    endloop
  endfacet
  facet normal 0.8314696123025457 -0.5555702330196016 0
    outer loop
      vertex -6.846715672757901 6.467878402655563 -3
      vertex -6.694974746830583 6.694974746830583 1.4
      vertex -6.846715672757901 6.467878402655563 1.4
    endloop
  endfacet
  facet normal 0.5555702330196016 -0.8314696123025457 0
    outer loop
      vertex -6.694974746830583 6.694974746830583 1.4
      vertex -6.694974746830583 6.694974746830583 -3
      vertex -6.467878402655563 6.846715672757901 1.4
    endloop
  endfacet
  facet normal 0.19509032201613002 -0.9807852804032302 0
    outer loop
      vertex -6.467878402655563 6.846715672757901 -3
      vertex -6.2 6.9 1.4
      vertex -6.467878402655563 6.846715672757901 1.4
    endloop
  endfacet
  facet normal 0 -0.9807852804032301 -0.19509032201613005
    outer loop
      vertex 6.2 6.846715672757901 1.6678784026555626
      vertex -6.2 6.846715672757901 1.6678784026555626
      vertex -6.2 6.9 1.4
    endloop
  endfacet
  facet normal 0 -0.19509032201613005 -0.9807852804032301
    outer loop
      vertex -6.2 6.2 2.1
      vertex -6.2 6.467878402655563 2.0467156727579003
      vertex 6.2 6.2 2.1
    endloop
  endfacet
  facet normal -2.375847950265309e-19 0.9807852804032301 -0.19509032201613005
    outer loop
      vertex 6.2 -6.9 1.4
      vertex -6.2 -6.846715672757901 1.6678784026555626
      vertex 6.2 -6.846715672757901 1.6678784026555626
    endloop
  endfacet
  facet normal -0.5453665872968729 -0.8161987773137127 -0.1907743205249667
    outer loop
      vertex 6.467878402655563 6.846715672757901 1.4
      vertex 6.694974746830583 6.694974746830583 1.4
      vertex 6.508241937732348 6.747698654048023 1.7082419377323474
    endloop
  endfacet
  facet normal 0.8314696123025457 0.5555702330196016 0
    outer loop
      vertex -6.694974746830583 -6.694974746830583 -3
      vertex -6.846715672757901 -6.467878402655563 1.4
      vertex -6.694974746830583 -6.694974746830583 1.4
    endloop
  endfacet
  facet normal -0.2938448543390766 -0.6758902283575511 -0.6758902283575523
    outer loop
      vertex 6.2 6.694974746830583 1.894974746830583
      vertex 6.508241937732348 6.747698654048023 1.7082419377323474
      vertex 6.508241937732348 6.508241937732348 1.947698654048022
    endloop
  endfacet
  facet normal -0.6758902283575519 -0.6758902283575519 -0.29384485433907614
    outer loop
      vertex 6.747698654048023 6.508241937732348 1.7082419377323474
      vertex 6.508241937732348 6.747698654048023 1.7082419377323474
      vertex 6.694974746830583 6.694974746830583 1.4
    endloop
  endfacet
  facet normal -0.5453665872968728 0.19077432052496782 -0.8161987773137125
    outer loop
      vertex 6.508241937732348 -6.508241937732348 1.947698654048022
      vertex 6.467878402655563 -6.2 2.0467156727579003
      vertex 6.694974746830583 -6.2 1.894974746830583
    endloop
  endfacet
  facet normal -0.8161987773137127 0.1907743205249667 -0.5453665872968729
    outer loop
      vertex 6.747698654048023 -6.508241937732348 1.7082419377323474
      vertex 6.694974746830583 -6.2 1.894974746830583
      vertex 6.846715672757901 -6.2 1.6678784026555626
    endloop
  endfacet
  facet normal 0 -1 0
    outer loop
      vertex -6.2 6.9 -3
      vertex 6.2 6.9 1.4
      vertex -6.2 6.9 1.4
    endloop
  endfacet
  facet normal -0.6758902283575511 0.2938448543390766 -0.6758902283575523
    outer loop
      vertex 6.508241937732348 -6.508241937732348 1.947698654048022
      vertex 6.694974746830583 -6.2 1.894974746830583
      vertex 6.747698654048023 -6.508241937732348 1.7082419377323474
    endloop
  endfacet
  facet normal 0.9807852804032301 0 -0.19509032201613005
    outer loop
      vertex -6.9 -6.2 1.4
      vertex -6.9 6.2 1.4
      vertex -6.846715672757901 6.2 1.6678784026555626
    endloop
  endfacet
  facet normal 0.8314696123025457 0 -0.5555702330196016
    outer loop
      vertex -6.846715672757901 -6.2 1.6678784026555626
      vertex -6.846715672757901 6.2 1.6678784026555626
      vertex -6.694974746830583 6.2 1.894974746830583
    endloop
  endfacet
  facet normal -0.9279350565396144 0.26356833160000726 -0.26356833160000726
    outer loop
      vertex 6.846715672757901 -6.467878402655563 1.4
      vertex 6.747698654048023 -6.508241937732348 1.7082419377323474
      vertex 6.846715672757901 -6.2 1.6678784026555626
    endloop
  endfacet
  facet normal 0.5555702330196016 0 -0.8314696123025457
    outer loop
      vertex -6.467878402655563 -6.2 2.0467156727579003
      vertex -6.694974746830583 6.2 1.894974746830583
      vertex -6.467878402655563 6.2 2.0467156727579003
    endloop
  endfacet
  facet normal 0.19509032201613005 0 -0.9807852804032301
    outer loop
      vertex -6.467878402655563 -6.2 2.0467156727579003
      vertex -6.467878402655563 6.2 2.0467156727579003
      vertex -6.2 6.2 2.1
    endloop
  endfacet
  facet normal -0.5773502691896254 0.5773502691896254 -0.5773502691896265
    outer loop
      vertex 6.508241937732348 -6.747698654048023 1.7082419377323474
      vertex 6.508241937732348 -6.508241937732348 1.947698654048022
      vertex 6.747698654048023 -6.508241937732348 1.7082419377323474
    endloop
  endfacet
  facet normal -0.8161987773137127 0.5453665872968729 -0.1907743205249667
    outer loop
      vertex 6.694974746830583 -6.694974746830583 1.4
      vertex 6.747698654048023 -6.508241937732348 1.7082419377323474
      vertex 6.846715672757901 -6.467878402655563 1.4
    endloop
  endfacet
  facet normal -0.6758902283575519 0.6758902283575519 -0.29384485433907614
    outer loop
      vertex 6.694974746830583 -6.694974746830583 1.4
      vertex 6.508241937732348 -6.747698654048023 1.7082419377323474
      vertex 6.747698654048023 -6.508241937732348 1.7082419377323474
    endloop
  endfacet
  facet normal 0 0 -1
    outer loop
      vertex -6.2 -6.2 2.1
      vertex -6.2 6.2 2.1
      vertex -2.9000000000000004 2.08 2.1
    endloop
  endfacet
  facet normal -0.5453665872968729 0.8161987773137127 -0.1907743205249667
    outer loop
      vertex 6.694974746830583 -6.694974746830583 1.4
      vertex 6.467878402655563 -6.846715672757901 1.4
      vertex 6.508241937732348 -6.747698654048023 1.7082419377323474
    endloop
  endfacet
  facet normal -0.19148045395532445 0.19148045395532445 -0.9626372481397786
    outer loop
      vertex 6.2 -6.467878402655563 2.0467156727579003
      vertex 6.2 -6.2 2.1
      vertex 6.467878402655563 -6.2 2.0467156727579003
    endloop
  endfacet
  facet normal -0.2635683316000083 0.2635683316000083 -0.9279350565396138
    outer loop
      vertex 6.2 -6.467878402655563 2.0467156727579003
      vertex 6.467878402655563 -6.2 2.0467156727579003
      vertex 6.508241937732348 -6.508241937732348 1.947698654048022
    endloop
  endfacet
  facet normal -0.19077432052496782 0.5453665872968728 -0.8161987773137125
    outer loop
      vertex 6.2 -6.694974746830583 1.894974746830583
      vertex 6.2 -6.467878402655563 2.0467156727579003
      vertex 6.508241937732348 -6.508241937732348 1.947698654048022
    endloop
  endfacet
  facet normal 0.9626372481397786 -0.19148045395532445 -0.19148045395532445
    outer loop
      vertex -6.9 6.2 1.4
      vertex -6.846715672757901 6.467878402655563 1.4
      vertex -6.846715672757901 6.2 1.6678784026555626
    endloop
  endfacet
  facet normal 0.19148045395532445 -0.9626372481397786 -0.19148045395532445
    outer loop
      vertex -6.467878402655563 6.846715672757901 1.4
      vertex -6.2 6.9 1.4
      vertex -6.2 6.846715672757901 1.6678784026555626
    endloop
  endfacet
  facet normal 0.9279350565396144 -0.26356833160000726 -0.26356833160000726
    outer loop
      vertex -6.846715672757901 6.467878402655563 1.4
      vertex -6.747698654048023 6.508241937732348 1.7082419377323474
      vertex -6.846715672757901 6.2 1.6678784026555626
    endloop
  endfacet
  facet normal 0.8161987773137127 -0.1907743205249667 -0.5453665872968729
    outer loop
      vertex -6.694974746830583 6.2 1.894974746830583
      vertex -6.846715672757901 6.2 1.6678784026555626
      vertex -6.747698654048023 6.508241937732348 1.7082419377323474
    endloop
  endfacet
  facet normal 0.6758902283575511 -0.2938448543390766 -0.6758902283575523
    outer loop
      vertex -6.694974746830583 6.2 1.894974746830583
      vertex -6.747698654048023 6.508241937732348 1.7082419377323474
      vertex -6.508241937732348 6.508241937732348 1.947698654048022
    endloop
  endfacet
  facet normal 0.5453665872968728 -0.19077432052496782 -0.8161987773137125
    outer loop
      vertex -6.694974746830583 6.2 1.894974746830583
      vertex -6.508241937732348 6.508241937732348 1.947698654048022
      vertex -6.467878402655563 6.2 2.0467156727579003
    endloop
  endfacet
  facet normal 0.8161987773137127 -0.5453665872968729 -0.1907743205249667
    outer loop
      vertex -6.846715672757901 6.467878402655563 1.4
      vertex -6.694974746830583 6.694974746830583 1.4
      vertex -6.747698654048023 6.508241937732348 1.7082419377323474
    endloop
  endfacet
  facet normal 0.6758902283575519 -0.6758902283575519 -0.29384485433907614
    outer loop
      vertex -6.747698654048023 6.508241937732348 1.7082419377323474
      vertex -6.694974746830583 6.694974746830583 1.4
      vertex -6.508241937732348 6.747698654048023 1.7082419377323474
    endloop
  endfacet
  facet normal 0.5453665872968729 -0.8161987773137127 -0.1907743205249667
    outer loop
      vertex -6.694974746830583 6.694974746830583 1.4
      vertex -6.467878402655563 6.846715672757901 1.4
      vertex -6.508241937732348 6.747698654048023 1.7082419377323474
    endloop
  endfacet
  facet normal 0.5773502691896254 -0.5773502691896254 -0.5773502691896265
    outer loop
      vertex -6.508241937732348 6.508241937732348 1.947698654048022
      vertex -6.747698654048023 6.508241937732348 1.7082419377323474
      vertex -6.508241937732348 6.747698654048023 1.7082419377323474
    endloop
  endfacet
  facet normal -0.2938448543390766 0.6758902283575511 -0.6758902283575523
    outer loop
      vertex 6.2 -6.694974746830583 1.894974746830583
      vertex 6.508241937732348 -6.508241937732348 1.947698654048022
      vertex 6.508241937732348 -6.747698654048023 1.7082419377323474
    endloop
  endfacet
  facet normal -0.1907743205249667 0.8161987773137127 -0.5453665872968729
    outer loop
      vertex 6.2 -6.846715672757901 1.6678784026555626
      vertex 6.2 -6.694974746830583 1.894974746830583
      vertex 6.508241937732348 -6.747698654048023 1.7082419377323474
    endloop
  endfacet
  facet normal -0.26356833160000726 0.9279350565396144 -0.26356833160000726
    outer loop
      vertex 6.2 -6.846715672757901 1.6678784026555626
      vertex 6.508241937732348 -6.747698654048023 1.7082419377323474
      vertex 6.467878402655563 -6.846715672757901 1.4
    endloop
  endfacet
  facet normal -0.9626372481397786 0.19148045395532445 -0.19148045395532445
    outer loop
      vertex 6.846715672757901 -6.467878402655563 1.4
      vertex 6.846715672757901 -6.2 1.6678784026555626
      vertex 6.9 -6.2 1.4
    endloop
  endfacet
  facet normal 0.2635683316000083 -0.2635683316000083 -0.9279350565396138
    outer loop
      vertex -6.467878402655563 6.2 2.0467156727579003
      vertex -6.508241937732348 6.508241937732348 1.947698654048022
      vertex -6.2 6.467878402655563 2.0467156727579003
    endloop
  endfacet
  facet normal 0.19148045395532445 -0.19148045395532445 -0.9626372481397786
    outer loop
      vertex -6.467878402655563 6.2 2.0467156727579003
      vertex -6.2 6.467878402655563 2.0467156727579003
      vertex -6.2 6.2 2.1
    endloop
  endfacet
  facet normal 0.26356833160000714 -0.9279350565396143 -0.26356833160000714
    outer loop
      vertex -6.508241937732348 6.747698654048023 1.7082419377323474
      vertex -6.467878402655563 6.846715672757901 1.4
      vertex -6.2 6.846715672757901 1.6678784026555626
    endloop
  endfacet
  facet normal 0.2938448543390766 -0.6758902283575511 -0.6758902283575523
    outer loop
      vertex -6.508241937732348 6.508241937732348 1.947698654048022
      vertex -6.508241937732348 6.747698654048023 1.7082419377323474
      vertex -6.2 6.694974746830583 1.894974746830583
    endloop
  endfacet
  facet normal 0.1907743205249667 -0.8161987773137127 -0.5453665872968729
    outer loop
      vertex -6.508241937732348 6.747698654048023 1.7082419377323474
      vertex -6.2 6.846715672757901 1.6678784026555626
      vertex -6.2 6.694974746830583 1.894974746830583
    endloop
  endfacet
  facet normal 0.19077432052496782 -0.5453665872968728 -0.8161987773137125
    outer loop
      vertex -6.508241937732348 6.508241937732348 1.947698654048022
      vertex -6.2 6.694974746830583 1.894974746830583
      vertex -6.2 6.467878402655563 2.0467156727579003
    endloop
  endfacet
  facet normal -0.19148045395532445 0.9626372481397786 -0.19148045395532445
    outer loop
      vertex 6.2 -6.9 1.4
      vertex 6.2 -6.846715672757901 1.6678784026555626
      vertex 6.467878402655563 -6.846715672757901 1.4
    endloop
  endfacet
  facet normal 0 0 -1
    outer loop
      vertex -2.9000000000000004 -2.08 2.1
      vertex 2.9000000000000004 -2.08 2.1
      vertex 6.2 -6.2 2.1
    endloop
  endfacet
  facet normal -0.1907743205249667 -0.8161987773137127 -0.5453665872968729
    outer loop
      vertex 6.2 6.694974746830583 1.894974746830583
      vertex 6.2 6.846715672757901 1.6678784026555626
      vertex 6.508241937732348 6.747698654048023 1.7082419377323474
    endloop
  endfacet
  facet normal -0.19077432052496782 -0.5453665872968728 -0.8161987773137125
    outer loop
      vertex 6.2 6.467878402655563 2.0467156727579003
      vertex 6.2 6.694974746830583 1.894974746830583
      vertex 6.508241937732348 6.508241937732348 1.947698654048022
    endloop
  endfacet
  facet normal -0.9279350565396144 -0.26356833160000726 -0.26356833160000726
    outer loop
      vertex 6.747698654048023 6.508241937732348 1.7082419377323474
      vertex 6.846715672757901 6.467878402655563 1.4
      vertex 6.846715672757901 6.2 1.6678784026555626
    endloop
  endfacet
  facet normal -0.5453665872968728 -0.19077432052496782 -0.8161987773137125
    outer loop
      vertex 6.694974746830583 6.2 1.894974746830583
      vertex 6.467878402655563 6.2 2.0467156727579003
      vertex 6.508241937732348 6.508241937732348 1.947698654048022
    endloop
  endfacet
  facet normal 0.19509032201613002 0.9807852804032302 0
    outer loop
      vertex -6.467878402655563 -6.846715672757901 -3
      vertex -6.467878402655563 -6.846715672757901 1.4
      vertex -6.2 -6.9 -3
    endloop
  endfacet
  facet normal 0 0.8314696123025457 -0.5555702330196016
    outer loop
      vertex -6.2 -6.846715672757901 1.6678784026555626
      vertex 6.2 -6.694974746830583 1.894974746830583
      vertex 6.2 -6.846715672757901 1.6678784026555626
    endloop
  endfacet
  facet normal 0.9807852804032302 0.19509032201613002 0
    outer loop
      vertex -6.9 -6.2 -3
      vertex -6.9 -6.2 1.4
      vertex -6.846715672757901 -6.467878402655563 -3
    endloop
  endfacet
  facet normal 0.5555702330196016 0.8314696123025457 0
    outer loop
      vertex -6.694974746830583 -6.694974746830583 -3
      vertex -6.694974746830583 -6.694974746830583 1.4
      vertex -6.467878402655563 -6.846715672757901 -3
    endloop
  endfacet
  facet normal 0 0.19509032201613005 -0.9807852804032301
    outer loop
      vertex -6.2 -6.467878402655563 2.0467156727579003
      vertex 6.2 -6.2 2.1
      vertex 6.2 -6.467878402655563 2.0467156727579003
    endloop
  endfacet
  facet normal 0 0.5555702330196016 -0.8314696123025457
    outer loop
      vertex -6.2 -6.694974746830583 1.894974746830583
      vertex 6.2 -6.467878402655563 2.0467156727579003
      vertex 6.2 -6.694974746830583 1.894974746830583
    endloop
  endfacet
  facet normal 0.8314696123025457 0.5555702330196016 0
    outer loop
      vertex -6.846715672757901 -6.467878402655563 -3
      vertex -6.846715672757901 -6.467878402655563 1.4
      vertex -6.694974746830583 -6.694974746830583 -3
    endloop
  endfacet
  facet normal 0 0 -1
    outer loop
      vertex 2.9000000000000004 2.08 2.1
      vertex -2.9000000000000004 2.08 2.1
      vertex -6.2 6.2 2.1
    endloop
  endfacet
  facet normal -0.5555702330196016 4.600529046043769e-19 -0.8314696123025457
    outer loop
      vertex 6.694974746830583 -6.2 1.894974746830583
      vertex 6.467878402655563 -6.2 2.0467156727579003
      vertex 6.467878402655563 6.2 2.0467156727579003
    endloop
  endfacet
  facet normal 0 0 -1
    outer loop
      vertex -2.25 0.575 -1.6
      vertex -2.9000000000000004 2.08 -1.6
      vertex -0.675 0.575 -1.6
    endloop
  endfacet
  facet normal 0 0 -1
    outer loop
      vertex 0.675 0.575 -1.6
      vertex 0.675 2.08 -1.6
      vertex 2.25 0.575 -1.6
    endloop
  endfacet
  facet normal 0 -1 0
    outer loop
      vertex 0.675 -2.08 2
      vertex 2.9000000000000004 -2.08 -1.6
      vertex 2.9000000000000004 -2.08 2.1
    endloop
  endfacet
  facet normal 0 -1 0
    outer loop
      vertex 2.9000000000000004 -2.08 2.1
      vertex -0.675 -2.08 2
      vertex 0.675 -2.08 2
    endloop
  endfacet
  facet normal 0 1 0
    outer loop
      vertex -2.9000000000000004 2.08 -1.6
      vertex -0.675 2.08 2
      vertex -0.675 2.08 -1.6
    endloop
  endfacet
  facet normal -1 0 0
    outer loop
      vertex -2.9000000000000004 -2.08 -1.6
      vertex -2.9000000000000004 2.08 2.1
      vertex -2.9000000000000004 2.08 -1.6
    endloop
  endfacet
  facet normal 0 1 0
    outer loop
      vertex -0.675 2.08 2
      vertex -2.9000000000000004 2.08 2.1
      vertex 0.675 2.08 2
    endloop
  endfacet
  facet normal 0 0 -1
    outer loop
      vertex -0.675 2.08 -1.6
      vertex -0.675 0.575 -1.6
      vertex -2.9000000000000004 2.08 -1.6
    endloop
  endfacet
  facet normal 0 -1 0
    outer loop
      vertex -2.9000000000000004 -2.08 2.1
      vertex -2.9000000000000004 -2.08 -1.6
      vertex -0.675 -2.08 -1.6
    endloop
  endfacet
  facet normal 0 0 -1
    outer loop
      vertex -2.9000000000000004 2.08 -1.6
      vertex -2.25 0.575 -1.6
      vertex -2.9000000000000004 -2.08 -1.6
    endloop
  endfacet
  facet normal 0 0 -1
    outer loop
      vertex 2.9000000000000004 2.08 -1.6
      vertex 2.25 0.575 -1.6
      vertex 0.675 2.08 -1.6
    endloop
  endfacet
  facet normal 0 1 0
    outer loop
      vertex 0.675 2.08 -1.6
      vertex 2.9000000000000004 2.08 2.1
      vertex 2.9000000000000004 2.08 -1.6
    endloop
  endfacet
  facet normal 0 -1 0
    outer loop
      vertex -2.9000000000000004 -2.08 2.1
      vertex -0.675 -2.08 2
      vertex 2.9000000000000004 -2.08 2.1
    endloop
  endfacet
  facet normal 0 -1 0
    outer loop
      vertex -2.9000000000000004 -2.08 2.1
      vertex -0.675 -2.08 -1.6
      vertex -0.675 -2.08 2
    endloop
  endfacet
  facet normal -1 0 0
    outer loop
      vertex -2.9000000000000004 -2.08 2.1
      vertex -2.9000000000000004 2.08 2.1
      vertex -2.9000000000000004 -2.08 -1.6
    endloop
  endfacet
  facet normal 0 0 -1
    outer loop
      vertex -2.9000000000000004 -2.08 -1.6
      vertex -2.25 -0.575 -1.6
      vertex -0.675 -2.08 -1.6
    endloop
  endfacet
  facet normal 0 1 0
    outer loop
      vertex 0.675 2.08 -1.6
      vertex 0.675 2.08 2
      vertex 2.9000000000000004 2.08 2.1
    endloop
  endfacet
  facet normal 1 0 0
    outer loop
      vertex 2.9000000000000004 -2.08 2.1
      vertex 2.9000000000000004 2.08 -1.6
      vertex 2.9000000000000004 2.08 2.1
    endloop
  endfacet
  facet normal 0 0 -1
    outer loop
      vertex -2.25 -0.575 -1.6
      vertex -2.9000000000000004 -2.08 -1.6
      vertex -2.25 0.575 -1.6
    endloop
  endfacet
  facet normal 0 0 -1
    outer loop
      vertex 0.675 -2.08 -1.6
      vertex 0.675 -0.575 -1.6
      vertex 2.9000000000000004 -2.08 -1.6
    endloop
  endfacet
  facet normal 0 0 -1
    outer loop
      vertex 2.9000000000000004 -2.08 -1.6
      vertex 0.675 -0.575 -1.6
      vertex 2.25 -0.575 -1.6
    endloop
  endfacet
  facet normal 0 0 -1
    outer loop
      vertex 2.9000000000000004 -2.08 -1.6
      vertex 2.25 -0.575 -1.6
      vertex 2.9000000000000004 2.08 -1.6
    endloop
  endfacet
  facet normal 0 -1 0
    outer loop
      vertex 0.675 -2.08 2
      vertex 0.675 -2.08 -1.6
      vertex 2.9000000000000004 -2.08 -1.6
    endloop
  endfacet
  facet normal 0 0 -1
    outer loop
      vertex -0.675 -2.08 -1.6
      vertex -2.25 -0.575 -1.6
      vertex -0.675 -0.575 -1.6
    endloop
  endfacet
  facet normal 0 1 0
    outer loop
      vertex -2.9000000000000004 2.08 2.1
      vertex 2.9000000000000004 2.08 2.1
      vertex 0.675 2.08 2
    endloop
  endfacet
  facet normal 1 0 0
    outer loop
      vertex 2.9000000000000004 -2.08 -1.6
      vertex 2.9000000000000004 2.08 -1.6
      vertex 2.9000000000000004 -2.08 2.1
    endloop
  endfacet
  facet normal 0 0 -1
    outer loop
      vertex 2.25 0.575 -1.6
      vertex 2.9000000000000004 2.08 -1.6
      vertex 2.25 -0.575 -1.6
    endloop
  endfacet
  facet normal 0 1 0
    outer loop
      vertex -2.9000000000000004 2.08 -1.6
      vertex -2.9000000000000004 2.08 2.1
      vertex -0.675 2.08 2
    endloop
  endfacet
  facet normal 0 0 -1
    outer loop
      vertex 6.4 -7.4 -3
      vertex -6.2 -6.9 -3
      vertex 6.2 -6.9 -3
    endloop
  endfacet
  facet normal 0.6758902283575517 0.2938448543390766 0.6758902283575517
    outer loop
      vertex 6.840345625331926 6.840345625331926 2.7824266486400315
      vertex 7.107106781186548 6.4 2.7071067811865475
      vertex 7.182426648640032 6.840345625331926 2.4403456253319256
    endloop
  endfacet
  facet normal 0 0 -1
    outer loop
      vertex 6.694974746830583 -6.694974746830583 -3
      vertex 6.846715672757901 -6.467878402655563 -3
      vertex 7.107106781186548 -7.107106781186548 -3
    endloop
  endfacet
  facet normal 0 0 -1
    outer loop
      vertex 6.846715672757901 -6.467878402655563 -3
      vertex 7.323879532511287 -6.78268343236509 -3
      vertex 7.107106781186548 -7.107106781186548 -3
    endloop
  endfacet
  facet normal 0 0 -1
    outer loop
      vertex 6.846715672757901 -6.467878402655563 -3
      vertex 6.9 -6.2 -3
      vertex 7.323879532511287 -6.78268343236509 -3
    endloop
  endfacet
  facet normal 0 0 -1
    outer loop
      vertex 7.4 -6.4 -3
      vertex 7.323879532511287 -6.78268343236509 -3
      vertex 6.9 -6.2 -3
    endloop
  endfacet
  facet normal 0 0 -1
    outer loop
      vertex 6.78268343236509 -7.323879532511287 -3
      vertex 6.467878402655563 -6.846715672757901 -3
      vertex 6.694974746830583 -6.694974746830583 -3
    endloop
  endfacet
  facet normal 0 0 -1
    outer loop
      vertex 6.467878402655563 -6.846715672757901 -3
      vertex 6.78268343236509 -7.323879532511287 -3
      vertex 6.4 -7.4 -3
    endloop
  endfacet
  facet normal 0 0 -1
    outer loop
      vertex 6.467878402655563 -6.846715672757901 -3
      vertex 6.4 -7.4 -3
      vertex 6.2 -6.9 -3
    endloop
  endfacet
  facet normal 0 -1 0
    outer loop
      vertex 6.4 -7.4 2
      vertex -6.4 -7.4 -3
      vertex 6.4 -7.4 -3
    endloop
  endfacet
  facet normal 0.19509032201612783 -0.9807852804032305 0
    outer loop
      vertex 6.4 -7.4 2
      vertex 6.4 -7.4 -3
      vertex 6.78268343236509 -7.323879532511287 -3
    endloop
  endfacet
  facet normal 0.5555702330196013 -0.8314696123025459 1.9701822862398412e-18
    outer loop
      vertex 6.78268343236509 -7.323879532511287 -3
      vertex 7.107106781186548 -7.107106781186548 -3
      vertex 7.107106781186548 -7.107106781186548 2
    endloop
  endfacet
  facet normal 0.8314696123025459 -0.5555702330196013 0
    outer loop
      vertex 7.323879532511287 -6.78268343236509 -3
      vertex 7.323879532511287 -6.78268343236509 2
      vertex 7.107106781186548 -7.107106781186548 -3
    endloop
  endfacet
  facet normal 0.9807852804032305 -0.19509032201612783 0
    outer loop
      vertex 7.323879532511287 -6.78268343236509 2
      vertex 7.323879532511287 -6.78268343236509 -3
      vertex 7.4 -6.4 -3
    endloop
  endfacet
  facet normal 0 0 -1
    outer loop
      vertex -7.107106781186548 -7.107106781186548 -3
      vertex -7.323879532511287 -6.78268343236509 -3
      vertex -6.9 -6.2 -3
    endloop
  endfacet
  facet normal 0 0.5555702330196021 0.8314696123025453
    outer loop
      vertex -6.4 7.107106781186548 2.7071067811865475
      vertex -6.4 6.78268343236509 2.923879532511287
      vertex 6.4 7.107106781186548 2.7071067811865475
    endloop
  endfacet
  facet normal -6.275825680799171e-20 0.19509032201612786 0.9807852804032307
    outer loop
      vertex -6.4 6.78268343236509 2.923879532511287
      vertex -6.4 6.4 3
      vertex 6.4 6.4 3
    endloop
  endfacet
  facet normal 0 0.8314696123025455 0.5555702330196018
    outer loop
      vertex 6.4 7.323879532511287 2.3826834323650896
      vertex -6.4 7.323879532511287 2.3826834323650896
      vertex -6.4 7.107106781186548 2.7071067811865475
    endloop
  endfacet
  facet normal 0 0 -1
    outer loop
      vertex 6.9 -6.2 -3
      vertex 6.9 6.2 -3
      vertex 7.4 -6.4 -3
    endloop
  endfacet
  facet normal 0 0.9807852804032307 0.19509032201612786
    outer loop
      vertex -6.4 7.323879532511287 2.3826834323650896
      vertex 6.4 7.323879532511287 2.3826834323650896
      vertex -6.4 7.4 2
    endloop
  endfacet
  facet normal 0 1 0
    outer loop
      vertex -6.4 7.4 -3
      vertex -6.4 7.4 2
      vertex 6.4 7.4 2
    endloop
  endfacet
  facet normal 0 0 1
    outer loop
      vertex -6.4 6.4 3
      vertex -6.4 -6.4 3
      vertex 6.4 6.4 3
    endloop
  endfacet
  facet normal -0.2938448543390766 0.6758902283575517 0.6758902283575517
    outer loop
      vertex -6.4 7.107106781186548 2.7071067811865475
      vertex -6.840345625331926 7.182426648640032 2.4403456253319256
      vertex -6.840345625331926 6.840345625331926 2.7824266486400315
    endloop
  endfacet
  facet normal -0.1914804539553224 0.1914804539553224 0.9626372481397796
    outer loop
      vertex -6.4 6.78268343236509 2.923879532511287
      vertex -6.78268343236509 6.4 2.923879532511287
      vertex -6.4 6.4 3
    endloop
  endfacet
  facet normal 0 -0.9807852804032307 0.19509032201612786
    outer loop
      vertex -6.4 -7.323879532511287 2.3826834323650896
      vertex 6.4 -7.4 2
      vertex 6.4 -7.323879532511287 2.3826834323650896
    endloop
  endfacet
  facet normal 9.454174144682753e-19 -0.8314696123025455 0.5555702330196018
    outer loop
      vertex 6.4 -7.107106781186548 2.7071067811865475
      vertex -6.4 -7.323879532511287 2.3826834323650896
      vertex 6.4 -7.323879532511287 2.3826834323650896
    endloop
  endfacet
  facet normal -9.489038837043265e-19 -0.5555702330196021 0.8314696123025453
    outer loop
      vertex 6.4 -6.78268343236509 2.923879532511287
      vertex -6.4 -7.107106781186548 2.7071067811865475
      vertex 6.4 -7.107106781186548 2.7071067811865475
    endloop
  endfacet
  facet normal 6.275825680799171e-20 -0.19509032201612786 0.9807852804032307
    outer loop
      vertex 6.4 -6.4 3
      vertex -6.4 -6.78268343236509 2.923879532511287
      vertex 6.4 -6.78268343236509 2.923879532511287
    endloop
  endfacet
  facet normal -0.2635683316000086 0.2635683316000086 0.9279350565396135
    outer loop
      vertex -6.840345625331926 6.840345625331926 2.7824266486400315
      vertex -6.78268343236509 6.4 2.923879532511287
      vertex -6.4 6.78268343236509 2.923879532511287
    endloop
  endfacet
  facet normal -0.19077432052496773 0.5453665872968732 0.8161987773137123
    outer loop
      vertex -6.840345625331926 6.840345625331926 2.7824266486400315
      vertex -6.4 6.78268343236509 2.923879532511287
      vertex -6.4 7.107106781186548 2.7071067811865475
    endloop
  endfacet
  facet normal -0.5453665872968732 0.19077432052496773 0.8161987773137123
    outer loop
      vertex -6.840345625331926 6.840345625331926 2.7824266486400315
      vertex -7.107106781186548 6.4 2.7071067811865475
      vertex -6.78268343236509 6.4 2.923879532511287
    endloop
  endfacet
  facet normal -0.6758902283575517 0.2938448543390766 0.6758902283575517
    outer loop
      vertex -7.182426648640032 6.840345625331926 2.4403456253319256
      vertex -7.107106781186548 6.4 2.7071067811865475
      vertex -6.840345625331926 6.840345625331926 2.7824266486400315
    endloop
  endfacet
  facet normal -0.19077432052496784 0.8161987773137125 0.5453665872968729
    outer loop
      vertex -6.4 7.323879532511287 2.3826834323650896
      vertex -6.840345625331926 7.182426648640032 2.4403456253319256
      vertex -6.4 7.107106781186548 2.7071067811865475
    endloop
  endfacet
  facet normal -0.2635683316000086 0.9279350565396135 0.2635683316000086
    outer loop
      vertex -6.4 7.323879532511287 2.3826834323650896
      vertex -6.78268343236509 7.323879532511287 2
      vertex -6.840345625331926 7.182426648640032 2.4403456253319256
    endloop
  endfacet
  facet normal -0.5773502691896257 0.5773502691896257 0.5773502691896257
    outer loop
      vertex -6.840345625331926 7.182426648640032 2.4403456253319256
      vertex -7.182426648640032 6.840345625331926 2.4403456253319256
      vertex -6.840345625331926 6.840345625331926 2.7824266486400315
    endloop
  endfacet
  facet normal -0.6758902283575516 0.6758902283575516 0.2938448543390772
    outer loop
      vertex -6.840345625331926 7.182426648640032 2.4403456253319256
      vertex -7.107106781186548 7.107106781186548 2
      vertex -7.182426648640032 6.840345625331926 2.4403456253319256
    endloop
  endfacet
  facet normal -0.8161987773137125 0.19077432052496784 0.5453665872968729
    outer loop
      vertex -7.182426648640032 6.840345625331926 2.4403456253319256
      vertex -7.323879532511287 6.4 2.3826834323650896
      vertex -7.107106781186548 6.4 2.7071067811865475
    endloop
  endfacet
  facet normal 0 0 1
    outer loop
      vertex 6.4 6.4 3
      vertex -6.4 -6.4 3
      vertex 6.4 -6.4 3
    endloop
  endfacet
  facet normal 0.19509032201612783 -0.9807852804032305 1.6066113742845878e-19
    outer loop
      vertex 6.4 -7.4 2
      vertex 6.78268343236509 -7.323879532511287 -3
      vertex 6.78268343236509 -7.323879532511287 2
    endloop
  endfacet
  facet normal 0.5555702330196013 -0.8314696123025459 0
    outer loop
      vertex 6.78268343236509 -7.323879532511287 2
      vertex 6.78268343236509 -7.323879532511287 -3
      vertex 7.107106781186548 -7.107106781186548 2
    endloop
  endfacet
  facet normal 0.8314696123025459 -0.5555702330196013 0
    outer loop
      vertex 7.107106781186548 -7.107106781186548 2
      vertex 7.107106781186548 -7.107106781186548 -3
      vertex 7.323879532511287 -6.78268343236509 2
    endloop
  endfacet
  facet normal 0.9807852804032305 -0.19509032201612783 1.6066113742845878e-19
    outer loop
      vertex 7.323879532511287 -6.78268343236509 2
      vertex 7.4 -6.4 -3
      vertex 7.4 -6.4 2
    endloop
  endfacet
  facet normal -0.9279350565396135 0.2635683316000086 0.2635683316000086
    outer loop
      vertex -7.182426648640032 6.840345625331926 2.4403456253319256
      vertex -7.323879532511287 6.78268343236509 2
      vertex -7.323879532511287 6.4 2.3826834323650896
    endloop
  endfacet
  facet normal -0.1914804539553224 0.9626372481397796 0.1914804539553224
    outer loop
      vertex -6.4 7.4 2
      vertex -6.78268343236509 7.323879532511287 2
      vertex -6.4 7.323879532511287 2.3826834323650896
    endloop
  endfacet
  facet normal -0.5453665872968724 0.8161987773137128 0.190774320524968
    outer loop
      vertex -6.78268343236509 7.323879532511287 2
      vertex -7.107106781186548 7.107106781186548 2
      vertex -6.840345625331926 7.182426648640032 2.4403456253319256
    endloop
  endfacet
  facet normal -0.8161987773137128 0.5453665872968724 0.190774320524968
    outer loop
      vertex -7.107106781186548 7.107106781186548 2
      vertex -7.323879532511287 6.78268343236509 2
      vertex -7.182426648640032 6.840345625331926 2.4403456253319256
    endloop
  endfacet
  facet normal -0.9626372481397795 0.19148045395532237 0.19148045395532237
    outer loop
      vertex -7.323879532511287 6.78268343236509 2
      vertex -7.4 6.4 2
      vertex -7.323879532511287 6.4 2.3826834323650896
    endloop
  endfacet
  facet normal -0.19509032201612783 0.9807852804032305 1.6066113742845878e-19
    outer loop
      vertex -6.4 7.4 2
      vertex -6.78268343236509 7.323879532511287 -3
      vertex -6.78268343236509 7.323879532511287 2
    endloop
  endfacet
  facet normal -0.5555702330196013 0.8314696123025459 0
    outer loop
      vertex -6.78268343236509 7.323879532511287 -3
      vertex -7.107106781186548 7.107106781186548 2
      vertex -6.78268343236509 7.323879532511287 2
    endloop
  endfacet
  facet normal -0.8314696123025459 0.5555702330196013 1.9701822862398412e-18
    outer loop
      vertex -7.107106781186548 7.107106781186548 2
      vertex -7.323879532511287 6.78268343236509 -3
      vertex -7.323879532511287 6.78268343236509 2
    endloop
  endfacet
  facet normal -0.9807852804032305 0.19509032201612783 0
    outer loop
      vertex -7.323879532511287 6.78268343236509 -3
      vertex -7.4 6.4 2
      vertex -7.323879532511287 6.78268343236509 2
    endloop
  endfacet
  facet normal -0.19509032201612786 0 0.9807852804032307
    outer loop
      vertex -6.78268343236509 6.4 2.923879532511287
      vertex -6.78268343236509 -6.4 2.923879532511287
      vertex -6.4 6.4 3
    endloop
  endfacet
  facet normal -0.5555702330196021 -9.489038837043265e-19 0.8314696123025453
    outer loop
      vertex -7.107106781186548 6.4 2.7071067811865475
      vertex -6.78268343236509 -6.4 2.923879532511287
      vertex -6.78268343236509 6.4 2.923879532511287
    endloop
  endfacet
  facet normal -0.8314696123025455 0 0.5555702330196018
    outer loop
      vertex -7.323879532511287 6.4 2.3826834323650896
      vertex -7.323879532511287 -6.4 2.3826834323650896
      vertex -7.107106781186548 6.4 2.7071067811865475
    endloop
  endfacet
  facet normal 0.1914804539553224 -0.9626372481397796 0.1914804539553224
    outer loop
      vertex 6.4 -7.323879532511287 2.3826834323650896
      vertex 6.4 -7.4 2
      vertex 6.78268343236509 -7.323879532511287 2
    endloop
  endfacet
  facet normal 0.5453665872968724 -0.8161987773137128 0.190774320524968
    outer loop
      vertex 7.107106781186548 -7.107106781186548 2
      vertex 6.840345625331926 -7.182426648640032 2.4403456253319256
      vertex 6.78268343236509 -7.323879532511287 2
    endloop
  endfacet
  facet normal 0.8161987773137128 -0.5453665872968724 0.190774320524968
    outer loop
      vertex 7.323879532511287 -6.78268343236509 2
      vertex 7.182426648640032 -6.840345625331926 2.4403456253319256
      vertex 7.107106781186548 -7.107106781186548 2
    endloop
  endfacet
  facet normal 0.9626372481397795 -0.19148045395532237 0.19148045395532237
    outer loop
      vertex 7.323879532511287 -6.78268343236509 2
      vertex 7.4 -6.4 2
      vertex 7.323879532511287 -6.4 2.3826834323650896
    endloop
  endfacet
  facet normal -0.9807852804032307 0 0.19509032201612786
    outer loop
      vertex -7.4 6.4 2
      vertex -7.4 -6.4 2
      vertex -7.323879532511287 6.4 2.3826834323650896
    endloop
  endfacet
  facet normal -1 0 0
    outer loop
      vertex -7.4 6.4 -3
      vertex -7.4 -6.4 2
      vertex -7.4 6.4 2
    endloop
  endfacet
  facet normal 0 0 -1
    outer loop
      vertex -6.2 6.9 -3
      vertex -6.78268343236509 7.323879532511287 -3
      vertex 7.107106781186548 7.107106781186548 -3
    endloop
  endfacet
  facet normal 0 0 -1
    outer loop
      vertex -6.78268343236509 7.323879532511287 -3
      vertex -6.4 7.4 -3
      vertex 6.4 7.4 -3
    endloop
  endfacet
  facet normal 0.2635683316000086 -0.9279350565396135 0.2635683316000086
    outer loop
      vertex 6.4 -7.323879532511287 2.3826834323650896
      vertex 6.78268343236509 -7.323879532511287 2
      vertex 6.840345625331926 -7.182426648640032 2.4403456253319256
    endloop
  endfacet
  facet normal 0.19077432052496784 -0.8161987773137125 0.5453665872968729
    outer loop
      vertex 6.4 -7.107106781186548 2.7071067811865475
      vertex 6.4 -7.323879532511287 2.3826834323650896
      vertex 6.840345625331926 -7.182426648640032 2.4403456253319256
    endloop
  endfacet
  facet normal 0.6758902283575516 -0.6758902283575516 0.2938448543390772
    outer loop
      vertex 6.840345625331926 -7.182426648640032 2.4403456253319256
      vertex 7.107106781186548 -7.107106781186548 2
      vertex 7.182426648640032 -6.840345625331926 2.4403456253319256
    endloop
  endfacet
  facet normal 0.5773502691896257 -0.5773502691896257 0.5773502691896257
    outer loop
      vertex 6.840345625331926 -7.182426648640032 2.4403456253319256
      vertex 7.182426648640032 -6.840345625331926 2.4403456253319256
      vertex 6.840345625331926 -6.840345625331926 2.7824266486400315
    endloop
  endfacet
  facet normal 0.9279350565396135 -0.2635683316000086 0.2635683316000086
    outer loop
      vertex 7.182426648640032 -6.840345625331926 2.4403456253319256
      vertex 7.323879532511287 -6.78268343236509 2
      vertex 7.323879532511287 -6.4 2.3826834323650896
    endloop
  endfacet
  facet normal 0.8161987773137125 -0.19077432052496784 0.5453665872968729
    outer loop
      vertex 7.182426648640032 -6.840345625331926 2.4403456253319256
      vertex 7.323879532511287 -6.4 2.3826834323650896
      vertex 7.107106781186548 -6.4 2.7071067811865475
    endloop
  endfacet
  facet normal 0.2938448543390766 -0.6758902283575517 0.6758902283575517
    outer loop
      vertex 6.4 -7.107106781186548 2.7071067811865475
      vertex 6.840345625331926 -7.182426648640032 2.4403456253319256
      vertex 6.840345625331926 -6.840345625331926 2.7824266486400315
    endloop
  endfacet
  facet normal 0.19077432052496773 -0.5453665872968732 0.8161987773137123
    outer loop
      vertex 6.4 -6.78268343236509 2.923879532511287
      vertex 6.4 -7.107106781186548 2.7071067811865475
      vertex 6.840345625331926 -6.840345625331926 2.7824266486400315
    endloop
  endfacet
  facet normal 0.5453665872968732 -0.19077432052496773 0.8161987773137123
    outer loop
      vertex 6.840345625331926 -6.840345625331926 2.7824266486400315
      vertex 7.107106781186548 -6.4 2.7071067811865475
      vertex 6.78268343236509 -6.4 2.923879532511287
    endloop
  endfacet
  facet normal 0.2635683316000086 -0.2635683316000086 0.9279350565396135
    outer loop
      vertex 6.4 -6.78268343236509 2.923879532511287
      vertex 6.840345625331926 -6.840345625331926 2.7824266486400315
      vertex 6.78268343236509 -6.4 2.923879532511287
    endloop
  endfacet
  facet normal 0.1914804539553224 -0.1914804539553224 0.9626372481397796
    outer loop
      vertex 6.4 -6.4 3
      vertex 6.4 -6.78268343236509 2.923879532511287
      vertex 6.78268343236509 -6.4 2.923879532511287
    endloop
  endfacet
  facet normal 0.6758902283575517 -0.2938448543390766 0.6758902283575517
    outer loop
      vertex 6.840345625331926 -6.840345625331926 2.7824266486400315
      vertex 7.182426648640032 -6.840345625331926 2.4403456253319256
      vertex 7.107106781186548 -6.4 2.7071067811865475
    endloop
  endfacet
  facet normal 1 0 0
    outer loop
      vertex 7.4 -6.4 2
      vertex 7.4 -6.4 -3
      vertex 7.4 6.4 2
    endloop
  endfacet
  facet normal -0.19509032201612783 0.9807852804032305 1.6066113742845878e-19
    outer loop
      vertex -6.78268343236509 7.323879532511287 -3
      vertex -6.4 7.4 2
      vertex -6.4 7.4 -3
    endloop
  endfacet
  facet normal -0.5555702330196013 0.8314696123025459 1.9701822862398412e-18
    outer loop
      vertex -6.78268343236509 7.323879532511287 -3
      vertex -7.107106781186548 7.107106781186548 -3
      vertex -7.107106781186548 7.107106781186548 2
    endloop
  endfacet
  facet normal -0.8314696123025459 0.5555702330196013 0
    outer loop
      vertex -7.107106781186548 7.107106781186548 -3
      vertex -7.323879532511287 6.78268343236509 -3
      vertex -7.107106781186548 7.107106781186548 2
    endloop
  endfacet
  facet normal -0.9807852804032305 0.19509032201612783 1.6066113742845878e-19
    outer loop
      vertex -7.323879532511287 6.78268343236509 -3
      vertex -7.4 6.4 -3
      vertex -7.4 6.4 2
    endloop
  endfacet
  facet normal 0 0 -1
    outer loop
      vertex -6.2 6.9 -3
      vertex -6.467878402655563 6.846715672757901 -3
      vertex -6.78268343236509 7.323879532511287 -3
    endloop
  endfacet
  facet normal 0.9807852804032307 0 0.19509032201612786
    outer loop
      vertex 7.323879532511287 -6.4 2.3826834323650896
      vertex 7.4 -6.4 2
      vertex 7.323879532511287 6.4 2.3826834323650896
    endloop
  endfacet
  facet normal 0.8314696123025455 -9.454174144682753e-19 0.5555702330196018
    outer loop
      vertex 7.107106781186548 -6.4 2.7071067811865475
      vertex 7.323879532511287 -6.4 2.3826834323650896
      vertex 7.323879532511287 6.4 2.3826834323650896
    endloop
  endfacet
  facet normal 0.19509032201612786 0 0.9807852804032307
    outer loop
      vertex 6.4 6.4 3
      vertex 6.4 -6.4 3
      vertex 6.78268343236509 -6.4 2.923879532511287
    endloop
  endfacet
  facet normal 0.5555702330196021 0 0.8314696123025453
    outer loop
      vertex 6.78268343236509 -6.4 2.923879532511287
      vertex 7.107106781186548 -6.4 2.7071067811865475
      vertex 6.78268343236509 6.4 2.923879532511287
    endloop
  endfacet
  facet normal 0 0 -1
    outer loop
      vertex -6.78268343236509 7.323879532511287 -3
      vertex -6.467878402655563 6.846715672757901 -3
      vertex -6.694974746830583 6.694974746830583 -3
    endloop
  endfacet
  facet normal 0 0 -1
    outer loop
      vertex -6.846715672757901 6.467878402655563 -3
      vertex -6.78268343236509 7.323879532511287 -3
      vertex -6.694974746830583 6.694974746830583 -3
    endloop
  endfacet
  facet normal 0 0 -1
    outer loop
      vertex -6.78268343236509 7.323879532511287 -3
      vertex -7.323879532511287 6.78268343236509 -3
      vertex -7.107106781186548 7.107106781186548 -3
    endloop
  endfacet
  facet normal 0 0 -1
    outer loop
      vertex -7.4 6.4 -3
      vertex -6.78268343236509 7.323879532511287 -3
      vertex -6.846715672757901 6.467878402655563 -3
    endloop
  endfacet
  facet normal 0 0 -1
    outer loop
      vertex -6.78268343236509 7.323879532511287 -3
      vertex -7.4 6.4 -3
      vertex -7.323879532511287 6.78268343236509 -3
    endloop
  endfacet
  facet normal 0 0 -1
    outer loop
      vertex 6.78268343236509 -7.323879532511287 -3
      vertex 6.694974746830583 -6.694974746830583 -3
      vertex 7.107106781186548 -7.107106781186548 -3
    endloop
  endfacet
  facet normal 0 0 -1
    outer loop
      vertex -7.4 6.4 -3
      vertex -6.9 6.2 -3
      vertex -6.9 -6.2 -3
    endloop
  endfacet
  facet normal 0 0 -1
    outer loop
      vertex -6.78268343236509 7.323879532511287 -3
      vertex 6.4 7.4 -3
      vertex 6.78268343236509 7.323879532511287 -3
    endloop
  endfacet
  facet normal 0 0 -1
    outer loop
      vertex 6.2 6.9 -3
      vertex -6.2 6.9 -3
      vertex 7.107106781186548 7.107106781186548 -3
    endloop
  endfacet
  facet normal 0 0 -1
    outer loop
      vertex -6.78268343236509 7.323879532511287 -3
      vertex 6.78268343236509 7.323879532511287 -3
      vertex 7.107106781186548 7.107106781186548 -3
    endloop
  endfacet
  facet normal 0 -0.19509032201612786 0.9807852804032307
    outer loop
      vertex -6.4 -6.4 3
      vertex -6.4 -6.78268343236509 2.923879532511287
      vertex 6.4 -6.4 3
    endloop
  endfacet
  facet normal 0 1 0
    outer loop
      vertex 6.4 7.4 -3
      vertex -6.4 7.4 -3
      vertex 6.4 7.4 2
    endloop
  endfacet
  facet normal 0 0 -1
    outer loop
      vertex 7.4 6.4 -3
      vertex 7.4 -6.4 -3
      vertex 6.9 6.2 -3
    endloop
  endfacet
  facet normal 1 0 0
    outer loop
      vertex 7.4 6.4 2
      vertex 7.4 -6.4 -3
      vertex 7.4 6.4 -3
    endloop
  endfacet
  facet normal 0 -0.5555702330196021 0.8314696123025453
    outer loop
      vertex -6.4 -6.78268343236509 2.923879532511287
      vertex -6.4 -7.107106781186548 2.7071067811865475
      vertex 6.4 -6.78268343236509 2.923879532511287
    endloop
  endfacet
  facet normal 0 0 -1
    outer loop
      vertex 6.9 6.2 -3
      vertex 6.846715672757901 6.467878402655563 -3
      vertex 7.4 6.4 -3
    endloop
  endfacet
  facet normal 0 0 -1
    outer loop
      vertex 6.467878402655563 6.846715672757901 -3
      vertex 7.323879532511287 6.78268343236509 -3
      vertex 6.694974746830583 6.694974746830583 -3
    endloop
  endfacet
  facet normal 0 0 -1
    outer loop
      vertex 7.107106781186548 7.107106781186548 -3
      vertex 6.467878402655563 6.846715672757901 -3
      vertex 6.2 6.9 -3
    endloop
  endfacet
  facet normal 0 0 -1
    outer loop
      vertex 7.323879532511287 6.78268343236509 -3
      vertex 6.846715672757901 6.467878402655563 -3
      vertex 6.694974746830583 6.694974746830583 -3
    endloop
  endfacet
  facet normal 0 0 -1
    outer loop
      vertex 7.107106781186548 7.107106781186548 -3
      vertex 7.323879532511287 6.78268343236509 -3
      vertex 6.467878402655563 6.846715672757901 -3
    endloop
  endfacet
  facet normal 0 0 -1
    outer loop
      vertex 7.323879532511287 6.78268343236509 -3
      vertex 7.4 6.4 -3
      vertex 6.846715672757901 6.467878402655563 -3
    endloop
  endfacet
  facet normal 0 -0.8314696123025455 0.5555702330196018
    outer loop
      vertex -6.4 -7.107106781186548 2.7071067811865475
      vertex -6.4 -7.323879532511287 2.3826834323650896
      vertex 6.4 -7.107106781186548 2.7071067811865475
    endloop
  endfacet
  facet normal 6.275825680799171e-20 -0.9807852804032307 0.19509032201612786
    outer loop
      vertex -6.4 -7.323879532511287 2.3826834323650896
      vertex -6.4 -7.4 2
      vertex 6.4 -7.4 2
    endloop
  endfacet
  facet normal 0 -1 0
    outer loop
      vertex -6.4 -7.4 2
      vertex -6.4 -7.4 -3
      vertex 6.4 -7.4 2
    endloop
  endfacet
  facet normal -0.19509032201612786 6.275825680799171e-20 0.9807852804032307
    outer loop
      vertex -6.78268343236509 -6.4 2.923879532511287
      vertex -6.4 -6.4 3
      vertex -6.4 6.4 3
    endloop
  endfacet
  facet normal 0.19509032201612783 0.9807852804032305 0
    outer loop
      vertex 6.78268343236509 7.323879532511287 -3
      vertex 6.4 7.4 -3
      vertex 6.78268343236509 7.323879532511287 2
    endloop
  endfacet
  facet normal 0.5555702330196013 0.8314696123025459 -1.9701822862398412e-18
    outer loop
      vertex 7.107106781186548 7.107106781186548 -3
      vertex 6.78268343236509 7.323879532511287 -3
      vertex 6.78268343236509 7.323879532511287 2
    endloop
  endfacet
  facet normal 0.9807852804032305 0.19509032201612783 0
    outer loop
      vertex 7.323879532511287 6.78268343236509 -3
      vertex 7.323879532511287 6.78268343236509 2
      vertex 7.4 6.4 -3
    endloop
  endfacet
  facet normal 0.8314696123025459 0.5555702330196013 0
    outer loop
      vertex 7.107106781186548 7.107106781186548 -3
      vertex 7.107106781186548 7.107106781186548 2
      vertex 7.323879532511287 6.78268343236509 -3
    endloop
  endfacet
  facet normal -0.5555702330196021 0 0.8314696123025453
    outer loop
      vertex -7.107106781186548 6.4 2.7071067811865475
      vertex -7.107106781186548 -6.4 2.7071067811865475
      vertex -6.78268343236509 -6.4 2.923879532511287
    endloop
  endfacet
  facet normal -0.8314696123025455 0 0.5555702330196018
    outer loop
      vertex -7.107106781186548 -6.4 2.7071067811865475
      vertex -7.107106781186548 6.4 2.7071067811865475
      vertex -7.323879532511287 -6.4 2.3826834323650896
    endloop
  endfacet
  facet normal -0.9807852804032307 0 0.19509032201612786
    outer loop
      vertex -7.323879532511287 -6.4 2.3826834323650896
      vertex -7.323879532511287 6.4 2.3826834323650896
      vertex -7.4 -6.4 2
    endloop
  endfacet
  facet normal -0.1914804539553224 -0.1914804539553224 0.9626372481397796
    outer loop
      vertex -6.78268343236509 -6.4 2.923879532511287
      vertex -6.4 -6.78268343236509 2.923879532511287
      vertex -6.4 -6.4 3
    endloop
  endfacet
  facet normal -0.2635683316000086 -0.2635683316000086 0.9279350565396135
    outer loop
      vertex -6.78268343236509 -6.4 2.923879532511287
      vertex -6.840345625331926 -6.840345625331926 2.7824266486400315
      vertex -6.4 -6.78268343236509 2.923879532511287
    endloop
  endfacet
  facet normal -0.19077432052496773 -0.5453665872968732 0.8161987773137123
    outer loop
      vertex -6.840345625331926 -6.840345625331926 2.7824266486400315
      vertex -6.4 -7.107106781186548 2.7071067811865475
      vertex -6.4 -6.78268343236509 2.923879532511287
    endloop
  endfacet
  facet normal -0.5453665872968732 -0.19077432052496773 0.8161987773137123
    outer loop
      vertex -7.107106781186548 -6.4 2.7071067811865475
      vertex -6.840345625331926 -6.840345625331926 2.7824266486400315
      vertex -6.78268343236509 -6.4 2.923879532511287
    endloop
  endfacet
  facet normal -0.2938448543390766 -0.6758902283575517 0.6758902283575517
    outer loop
      vertex -6.840345625331926 -6.840345625331926 2.7824266486400315
      vertex -6.840345625331926 -7.182426648640032 2.4403456253319256
      vertex -6.4 -7.107106781186548 2.7071067811865475
    endloop
  endfacet
  facet normal -0.6758902283575517 -0.2938448543390766 0.6758902283575517
    outer loop
      vertex -7.107106781186548 -6.4 2.7071067811865475
      vertex -7.182426648640032 -6.840345625331926 2.4403456253319256
      vertex -6.840345625331926 -6.840345625331926 2.7824266486400315
    endloop
  endfacet
  facet normal -0.19077432052496784 -0.8161987773137125 0.5453665872968728
    outer loop
      vertex -6.840345625331926 -7.182426648640032 2.4403456253319256
      vertex -6.4 -7.323879532511287 2.3826834323650896
      vertex -6.4 -7.107106781186548 2.7071067811865475
    endloop
  endfacet
  facet normal -0.2635683316000086 -0.9279350565396135 0.2635683316000086
    outer loop
      vertex -6.840345625331926 -7.182426648640032 2.4403456253319256
      vertex -6.78268343236509 -7.323879532511287 2
      vertex -6.4 -7.323879532511287 2.3826834323650896
    endloop
  endfacet
  facet normal -0.8161987773137125 -0.19077432052496784 0.5453665872968729
    outer loop
      vertex -7.323879532511287 -6.4 2.3826834323650896
      vertex -7.182426648640032 -6.840345625331926 2.4403456253319256
      vertex -7.107106781186548 -6.4 2.7071067811865475
    endloop
  endfacet
  facet normal -0.9279350565396135 -0.2635683316000086 0.2635683316000086
    outer loop
      vertex -7.323879532511287 -6.4 2.3826834323650896
      vertex -7.323879532511287 -6.78268343236509 2
      vertex -7.182426648640032 -6.840345625331926 2.4403456253319256
    endloop
  endfacet
  facet normal -0.5773502691896257 -0.5773502691896257 0.5773502691896257
    outer loop
      vertex -7.182426648640032 -6.840345625331926 2.4403456253319256
      vertex -6.840345625331926 -7.182426648640032 2.4403456253319256
      vertex -6.840345625331926 -6.840345625331926 2.7824266486400315
    endloop
  endfacet
  facet normal -0.6758902283575516 -0.6758902283575516 0.2938448543390772
    outer loop
      vertex -7.182426648640032 -6.840345625331926 2.4403456253319256
      vertex -7.107106781186548 -7.107106781186548 2
      vertex -6.840345625331926 -7.182426648640032 2.4403456253319256
    endloop
  endfacet
  facet normal -0.1914804539553224 -0.9626372481397796 0.1914804539553224
    outer loop
      vertex -6.4 -7.4 2
      vertex -6.4 -7.323879532511287 2.3826834323650896
      vertex -6.78268343236509 -7.323879532511287 2
    endloop
  endfacet
  facet normal 0 0.9807852804032307 0.19509032201612786
    outer loop
      vertex 6.4 7.4 2
      vertex -6.4 7.4 2
      vertex 6.4 7.323879532511287 2.3826834323650896
    endloop
  endfacet
  facet normal -9.454174144682753e-19 0.8314696123025455 0.5555702330196018
    outer loop
      vertex 6.4 7.323879532511287 2.3826834323650896
      vertex -6.4 7.107106781186548 2.7071067811865475
      vertex 6.4 7.107106781186548 2.7071067811865475
    endloop
  endfacet
  facet normal 0 0.19509032201612786 0.9807852804032307
    outer loop
      vertex -6.4 6.78268343236509 2.923879532511287
      vertex 6.4 6.4 3
      vertex 6.4 6.78268343236509 2.923879532511287
    endloop
  endfacet
  facet normal 9.489038837043265e-19 0.5555702330196021 0.8314696123025453
    outer loop
      vertex 6.4 7.107106781186548 2.7071067811865475
      vertex -6.4 6.78268343236509 2.923879532511287
      vertex 6.4 6.78268343236509 2.923879532511287
    endloop
  endfacet
  facet normal -0.5453665872968724 -0.8161987773137128 0.190774320524968
    outer loop
      vertex -6.78268343236509 -7.323879532511287 2
      vertex -6.840345625331926 -7.182426648640032 2.4403456253319256
      vertex -7.107106781186548 -7.107106781186548 2
    endloop
  endfacet
  facet normal -0.9626372481397795 -0.19148045395532237 0.19148045395532237
    outer loop
      vertex -7.4 -6.4 2
      vertex -7.323879532511287 -6.78268343236509 2
      vertex -7.323879532511287 -6.4 2.3826834323650896
    endloop
  endfacet
  facet normal -0.8161987773137128 -0.5453665872968724 0.190774320524968
    outer loop
      vertex -7.323879532511287 -6.78268343236509 2
      vertex -7.107106781186548 -7.107106781186548 2
      vertex -7.182426648640032 -6.840345625331926 2.4403456253319256
    endloop
  endfacet
  facet normal -0.19509032201612783 -0.9807852804032305 -1.6066113742845878e-19
    outer loop
      vertex -6.78268343236509 -7.323879532511287 2
      vertex -6.4 -7.4 -3
      vertex -6.4 -7.4 2
    endloop
  endfacet
  facet normal -0.9807852804032305 -0.19509032201612783 0
    outer loop
      vertex -7.4 -6.4 2
      vertex -7.4 -6.4 -3
      vertex -7.323879532511287 -6.78268343236509 2
    endloop
  endfacet
  facet normal 0.9807852804032307 -6.275825680799171e-20 0.19509032201612786
    outer loop
      vertex 7.323879532511287 6.4 2.3826834323650896
      vertex 7.4 -6.4 2
      vertex 7.4 6.4 2
    endloop
  endfacet
  facet normal 0.8314696123025455 0 0.5555702330196018
    outer loop
      vertex 7.107106781186548 -6.4 2.7071067811865475
      vertex 7.323879532511287 6.4 2.3826834323650896
      vertex 7.107106781186548 6.4 2.7071067811865475
    endloop
  endfacet
  facet normal 0.19509032201612786 -6.275825680799171e-20 0.9807852804032307
    outer loop
      vertex 6.4 6.4 3
      vertex 6.78268343236509 -6.4 2.923879532511287
      vertex 6.78268343236509 6.4 2.923879532511287
    endloop
  endfacet
  facet normal 0.5555702330196021 9.489038837043265e-19 0.8314696123025453
    outer loop
      vertex 6.78268343236509 6.4 2.923879532511287
      vertex 7.107106781186548 -6.4 2.7071067811865475
      vertex 7.107106781186548 6.4 2.7071067811865475
    endloop
  endfacet
  facet normal 0.19509032201612783 0.9807852804032305 -1.6066113742845878e-19
    outer loop
      vertex 6.78268343236509 7.323879532511287 2
      vertex 6.4 7.4 -3
      vertex 6.4 7.4 2
    endloop
  endfacet
  facet normal 0.9807852804032305 0.19509032201612783 0
    outer loop
      vertex 7.4 6.4 2
      vertex 7.4 6.4 -3
      vertex 7.323879532511287 6.78268343236509 2
    endloop
  endfacet
  facet normal 0.8314696123025459 0.5555702330196013 0
    outer loop
      vertex 7.323879532511287 6.78268343236509 2
      vertex 7.323879532511287 6.78268343236509 -3
      vertex 7.107106781186548 7.107106781186548 2
    endloop
  endfacet
  facet normal 0.5555702330196013 0.8314696123025459 0
    outer loop
      vertex 7.107106781186548 7.107106781186548 2
      vertex 7.107106781186548 7.107106781186548 -3
      vertex 6.78268343236509 7.323879532511287 2
    endloop
  endfacet
  facet normal -0.5555702330196013 -0.8314696123025459 0
    outer loop
      vertex -7.107106781186548 -7.107106781186548 2
      vertex -7.107106781186548 -7.107106781186548 -3
      vertex -6.78268343236509 -7.323879532511287 2
    endloop
  endfacet
  facet normal -0.8314696123025459 -0.5555702330196013 -1.9701822862398412e-18
    outer loop
      vertex -7.323879532511287 -6.78268343236509 2
      vertex -7.107106781186548 -7.107106781186548 -3
      vertex -7.107106781186548 -7.107106781186548 2
    endloop
  endfacet
  facet normal 0 0 -1
    outer loop
      vertex 6.4 -7.4 -3
      vertex -6.4 -7.4 -3
      vertex -6.2 -6.9 -3
    endloop
  endfacet
  facet normal -1 0 0
    outer loop
      vertex -7.4 -6.4 -3
      vertex -7.4 -6.4 2
      vertex -7.4 6.4 -3
    endloop
  endfacet
  facet normal 0 0 -1
    outer loop
      vertex -7.4 -6.4 -3
      vertex -7.4 6.4 -3
      vertex -6.9 -6.2 -3
    endloop
  endfacet
  facet normal -0.19509032201612783 -0.9807852804032305 0
    outer loop
      vertex -6.78268343236509 -7.323879532511287 2
      vertex -6.78268343236509 -7.323879532511287 -3
      vertex -6.4 -7.4 -3
    endloop
  endfacet
  facet normal -0.5555702330196013 -0.8314696123025459 0
    outer loop
      vertex -6.78268343236509 -7.323879532511287 -3
      vertex -6.78268343236509 -7.323879532511287 2
      vertex -7.107106781186548 -7.107106781186548 -3
    endloop
  endfacet
  facet normal -0.9807852804032305 -0.19509032201612783 0
    outer loop
      vertex -7.323879532511287 -6.78268343236509 -3
      vertex -7.323879532511287 -6.78268343236509 2
      vertex -7.4 -6.4 -3
    endloop
  endfacet
  facet normal -0.8314696123025459 -0.5555702330196013 -1.9701822862398412e-18
    outer loop
      vertex -7.107106781186548 -7.107106781186548 -3
      vertex -7.323879532511287 -6.78268343236509 2
      vertex -7.323879532511287 -6.78268343236509 -3
    endloop
  endfacet
  facet normal 0 0 -1
    outer loop
      vertex -6.2 -6.9 -3
      vertex -6.4 -7.4 -3
      vertex -6.467878402655563 -6.846715672757901 -3
    endloop
  endfacet
  facet normal 0 0 -1
    outer loop
      vertex -7.323879532511287 -6.78268343236509 -3
      vertex -7.4 -6.4 -3
      vertex -6.9 -6.2 -3
    endloop
  endfacet
  facet normal 0 0 -1
    outer loop
      vertex -6.846715672757901 -6.467878402655563 -3
      vertex -6.694974746830583 -6.694974746830583 -3
      vertex -7.107106781186548 -7.107106781186548 -3
    endloop
  endfacet
  facet normal 0 0 -1
    outer loop
      vertex -6.78268343236509 -7.323879532511287 -3
      vertex -6.694974746830583 -6.694974746830583 -3
      vertex -6.467878402655563 -6.846715672757901 -3
    endloop
  endfacet
  facet normal 0 0 -1
    outer loop
      vertex -6.4 -7.4 -3
      vertex -6.78268343236509 -7.323879532511287 -3
      vertex -6.467878402655563 -6.846715672757901 -3
    endloop
  endfacet
  facet normal 0 0 -1
    outer loop
      vertex -6.694974746830583 -6.694974746830583 -3
      vertex -6.78268343236509 -7.323879532511287 -3
      vertex -7.107106781186548 -7.107106781186548 -3
    endloop
  endfacet
  facet normal 0 0 -1
    outer loop
      vertex -7.107106781186548 -7.107106781186548 -3
      vertex -6.9 -6.2 -3
      vertex -6.846715672757901 -6.467878402655563 -3
    endloop
  endfacet
  facet normal 0.1914804539553224 0.9626372481397796 0.1914804539553224
    outer loop
      vertex 6.78268343236509 7.323879532511287 2
      vertex 6.4 7.4 2
      vertex 6.4 7.323879532511287 2.3826834323650896
    endloop
  endfacet
  facet normal 0.5453665872968724 0.8161987773137128 0.190774320524968
    outer loop
      vertex 7.107106781186548 7.107106781186548 2
      vertex 6.78268343236509 7.323879532511287 2
      vertex 6.840345625331926 7.182426648640032 2.4403456253319256
    endloop
  endfacet
  facet normal 0.9626372481397795 0.19148045395532237 0.19148045395532237
    outer loop
      vertex 7.323879532511287 6.4 2.3826834323650896
      vertex 7.4 6.4 2
      vertex 7.323879532511287 6.78268343236509 2
    endloop
  endfacet
  facet normal 0.8161987773137128 0.5453665872968724 0.190774320524968
    outer loop
      vertex 7.323879532511287 6.78268343236509 2
      vertex 7.107106781186548 7.107106781186548 2
      vertex 7.182426648640032 6.840345625331926 2.4403456253319256
    endloop
  endfacet
  facet normal 0.2635683316000086 0.9279350565396135 0.2635683316000086
    outer loop
      vertex 6.840345625331926 7.182426648640032 2.4403456253319256
      vertex 6.78268343236509 7.323879532511287 2
      vertex 6.4 7.323879532511287 2.3826834323650896
    endloop
  endfacet
  facet normal 0.19077432052496784 0.8161987773137125 0.5453665872968728
    outer loop
      vertex 6.840345625331926 7.182426648640032 2.4403456253319256
      vertex 6.4 7.323879532511287 2.3826834323650896
      vertex 6.4 7.107106781186548 2.7071067811865475
    endloop
  endfacet
  facet normal 0.9279350565396135 0.2635683316000086 0.2635683316000086
    outer loop
      vertex 7.323879532511287 6.4 2.3826834323650896
      vertex 7.323879532511287 6.78268343236509 2
      vertex 7.182426648640032 6.840345625331926 2.4403456253319256
    endloop
  endfacet
  facet normal 0.8161987773137125 0.19077432052496784 0.5453665872968729
    outer loop
      vertex 7.107106781186548 6.4 2.7071067811865475
      vertex 7.323879532511287 6.4 2.3826834323650896
      vertex 7.182426648640032 6.840345625331926 2.4403456253319256
    endloop
  endfacet
  facet normal 0.6758902283575516 0.6758902283575516 0.2938448543390772
    outer loop
      vertex 7.182426648640032 6.840345625331926 2.4403456253319256
      vertex 7.107106781186548 7.107106781186548 2
      vertex 6.840345625331926 7.182426648640032 2.4403456253319256
    endloop
  endfacet
  facet normal 0.5773502691896257 0.5773502691896257 0.5773502691896257
    outer loop
      vertex 7.182426648640032 6.840345625331926 2.4403456253319256
      vertex 6.840345625331926 7.182426648640032 2.4403456253319256
      vertex 6.840345625331926 6.840345625331926 2.7824266486400315
    endloop
  endfacet
  facet normal 0.19077432052496773 0.5453665872968732 0.8161987773137123
    outer loop
      vertex 6.4 7.107106781186548 2.7071067811865475
      vertex 6.4 6.78268343236509 2.923879532511287
      vertex 6.840345625331926 6.840345625331926 2.7824266486400315
    endloop
  endfacet
  facet normal 0.5453665872968732 0.19077432052496773 0.8161987773137123
    outer loop
      vertex 6.78268343236509 6.4 2.923879532511287
      vertex 7.107106781186548 6.4 2.7071067811865475
      vertex 6.840345625331926 6.840345625331926 2.7824266486400315
    endloop
  endfacet
  facet normal 0.2635683316000086 0.2635683316000086 0.9279350565396135
    outer loop
      vertex 6.840345625331926 6.840345625331926 2.7824266486400315
      vertex 6.4 6.78268343236509 2.923879532511287
      vertex 6.78268343236509 6.4 2.923879532511287
    endloop
  endfacet
  facet normal 0.1914804539553224 0.1914804539553224 0.9626372481397796
    outer loop
      vertex 6.4 6.78268343236509 2.923879532511287
      vertex 6.4 6.4 3
      vertex 6.78268343236509 6.4 2.923879532511287
    endloop
  endfacet
  facet normal 0.2938448543390766 0.6758902283575517 0.6758902283575517
    outer loop
      vertex 6.840345625331926 7.182426648640032 2.4403456253319256
      vertex 6.4 7.107106781186548 2.7071067811865475
      vertex 6.840345625331926 6.840345625331926 2.7824266486400315
    endloop
  endfacet
  facet normal 0 0 -1
    outer loop
      vertex -7.4 6.4 -3
      vertex -6.846715672757901 6.467878402655563 -3
      vertex -6.9 6.2 -3
    endloop
  endfacet
endsolid OpenSCAD_Model
