solid OpenSCAD_Model
  facet normal 1 0 0
    outer loop
      vertex -2.25 -0.575 -1.6
      vertex -2.25 0.575 -1.6
      vertex -2.25 -0.575 2
    endloop
  endfacet
  facet normal 0 0 -1
    outer loop
      vertex -0.675 0.575 2
      vertex -0.675 2.08 2
      vertex 0.675 2.08 2
    endloop
  endfacet
  facet normal 0 0 -1
    outer loop
      vertex -0.675 -0.575 2
      vertex -0.675 0.575 2
      vertex 0.675 2.08 2
    endloop
  endfacet
  facet normal 0 0 -1
    outer loop
      vertex -0.675 -0.575 2
      vertex -2.25 0.575 2
      vertex -0.675 0.575 2
    endloop
  endfacet
  facet normal 1 0 0
    outer loop
      vertex -0.675 0.575 -1.6
      vertex -0.675 2.08 2
      vertex -0.675 0.575 2
    endloop
  endfacet
  facet normal 0 -1 0
    outer loop
      vertex -2.25 0.575 2
      vertex -0.675 0.575 -1.6
      vertex -0.675 0.575 2
    endloop
  endfacet
  facet normal 1 0 0
    outer loop
      vertex -2.25 -0.575 2
      vertex -2.25 0.575 -1.6
      vertex -2.25 0.575 2
    endloop
  endfacet
  facet normal -1 0 0
    outer loop
      vertex 0.675 -0.575 2
      vertex 0.675 -0.575 -1.6
      vertex 0.675 -2.08 2
    endloop
  endfacet
  facet normal 0 1 0
    outer loop
      vertex 0.675 -0.575 -1.6
      vertex 0.675 -0.575 2
      vertex 2.25 -0.575 2
    endloop
  endfacet
  facet normal -1 0 0
    outer loop
      vertex 2.25 -0.575 -1.6
      vertex 2.25 -0.575 2
      vertex 2.25 0.575 2
    endloop
  endfacet
  facet normal 0 0 -1
    outer loop
      vertex 0.675 -2.08 2
      vertex -0.675 -2.08 2
      vertex 0.675 -0.575 2
    endloop
  endfacet
  facet normal 0 0 -1
    outer loop
      vertex 0.675 -0.575 2
      vertex -0.675 -2.08 2
      vertex 0.675 0.575 2
    endloop
  endfacet
  facet normal 0 0 -1
    outer loop
      vertex 0.675 -0.575 2
      vertex 0.675 0.575 2
      vertex 2.25 -0.575 2
    endloop
  endfacet
  facet normal 1 0 0
    outer loop
      vertex -0.675 0.575 -1.6
      vertex -0.675 2.08 -1.6
      vertex -0.675 2.08 2
    endloop
  endfacet
  facet normal 0 -1 0
    outer loop
      vertex -2.25 0.575 2
      vertex -2.25 0.575 -1.6
      vertex -0.675 0.575 -1.6
    endloop
  endfacet
  facet normal 0 1 0
    outer loop
      vertex 2.25 -0.575 2
      vertex 2.25 -0.575 -1.6
      vertex 0.675 -0.575 -1.6
    endloop
  endfacet
  facet normal -1 0 0
    outer loop
      vertex 0.675 -2.08 -1.6
      vertex 0.675 -2.08 2
      vertex 0.675 -0.575 -1.6
    endloop
  endfacet
  facet normal 0 -1 0
    outer loop
      vertex 0.675 0.575 2
      vertex 0.675 0.575 -1.6
      vertex 2.25 0.575 -1.6
    endloop
  endfacet
  facet normal -1 0 0
    outer loop
      vertex 0.675 2.08 -1.6
      vertex 0.675 0.575 -1.6
      vertex 0.675 2.08 2
    endloop
  endfacet
  facet normal 0 0 -1
    outer loop
      vertex -0.675 -2.08 2
      vertex -0.675 -0.575 2
      vertex 0.675 2.08 2
    endloop
  endfacet
  facet normal 0 0 -1
    outer loop
      vertex -0.675 -0.575 2
      vertex -2.25 -0.575 2
      vertex -2.25 0.575 2
    endloop
  endfacet
  facet normal 0 1 0
    outer loop
      vertex -2.25 -0.575 -1.6
      vertex -2.25 -0.575 2
      vertex -0.675 -0.575 2
    endloop
  endfacet
  facet normal 1 0 0
    outer loop
      vertex -0.675 -2.08 2
      vertex -0.675 -0.575 -1.6
      vertex -0.675 -0.575 2
    endloop
  endfacet
  facet normal -1 0 0
    outer loop
      vertex 2.25 -0.575 -1.6
      vertex 2.25 0.575 2
      vertex 2.25 0.575 -1.6
    endloop
  endfacet
  facet normal 0 -1 0
    outer loop
      vertex 2.25 0.575 -1.6
      vertex 2.25 0.575 2
      vertex 0.675 0.575 2
    endloop
  endfacet
  facet normal -1 0 0
    outer loop
      vertex 0.675 0.575 -1.6
      vertex 0.675 0.575 2
      vertex 0.675 2.08 2
    endloop
  endfacet
  facet normal 0 0 -1
    outer loop
      vertex -0.675 -2.08 2
      vertex 0.675 2.08 2
      vertex 0.675 0.575 2
    endloop
  endfacet
  facet normal 0 0 -1
    outer loop
      vertex 2.25 -0.575 2
      vertex 0.675 0.575 2
      vertex 2.25 0.575 2
    endloop
  endfacet
  facet normal 0 1 0
    outer loop
      vertex -0.675 -0.575 2
      vertex -0.675 -0.575 -1.6
      vertex -2.25 -0.575 -1.6
    endloop
  endfacet
  facet normal 1 0 0
    outer loop
      vertex -0.675 -2.08 -1.6
      vertex -0.675 -0.575 -1.6
      vertex -0.675 -2.08 2
    endloop
  endfacet
  facet normal -0.5555702330196016 0 -0.8314696123025457
    outer loop
      vertex 15.694974746830583 -6.2 1.894974746830583
      vertex 15.467878402655563 -6.2 2.0467156727579003
      vertex 15.694974746830583 6.2 1.894974746830583
    endloop
  endfacet
  facet normal -1 0 0
    outer loop
      vertex 15.899999999999999 -6.2 -3
      vertex 15.899999999999999 -6.2 1.4
      vertex 15.899999999999999 6.2 -3
    endloop
  endfacet
  facet normal -0.8161987773137119 0.1907743205249712 -0.5453665872968725
    outer loop
      vertex 15.74769865404802 -6.508241937732348 1.7082419377323474
      vertex 15.694974746830583 -6.2 1.894974746830583
      vertex 15.8467156727579 -6.2 1.6678784026555626
    endloop
  endfacet
  facet normal 0.8314696123025457 -0.5555702330196016 0
    outer loop
      vertex -15.8467156727579 6.467878402655563 1.4
      vertex -15.8467156727579 6.467878402655563 -3
      vertex -15.694974746830583 6.694974746830583 1.4
    endloop
  endfacet
  facet normal -0.1950903220161294 0 -0.9807852804032302
    outer loop
      vertex 15.467878402655563 -6.2 2.0467156727579003
      vertex 15.2 6.2 2.1
      vertex 15.467878402655563 6.2 2.0467156727579003
    endloop
  endfacet
  facet normal -0.5555702330196016 0 -0.8314696123025457
    outer loop
      vertex 15.467878402655563 -6.2 2.0467156727579003
      vertex 15.467878402655563 6.2 2.0467156727579003
      vertex 15.694974746830583 6.2 1.894974746830583
    endloop
  endfacet
  facet normal -0.8314696123025457 0 -0.5555702330196016
    outer loop
      vertex 15.694974746830583 -6.2 1.894974746830583
      vertex 15.694974746830583 6.2 1.894974746830583
      vertex 15.8467156727579 6.2 1.6678784026555626
    endloop
  endfacet
  facet normal -0.9807852804032313 0 -0.19509032201612378
    outer loop
      vertex 15.899999999999999 -6.2 1.4
      vertex 15.8467156727579 6.2 1.6678784026555626
      vertex 15.899999999999999 6.2 1.4
    endloop
  endfacet
  facet normal 0.19148045395532384 0.9626372481397787 -0.19148045395532445
    outer loop
      vertex -15.2 -6.846715672757901 1.6678784026555626
      vertex -15.2 -6.9 1.4
      vertex -15.467878402655563 -6.846715672757901 1.4
    endloop
  endfacet
  facet normal 0.9626372481397809 0.1914804539553185 -0.1914804539553185
    outer loop
      vertex -15.8467156727579 -6.467878402655563 1.4
      vertex -15.899999999999999 -6.2 1.4
      vertex -15.8467156727579 -6.2 1.6678784026555626
    endloop
  endfacet
  facet normal 0.5453665872968728 0.8161987773137125 -0.19077432052496823
    outer loop
      vertex -15.508241937732347 -6.747698654048023 1.7082419377323474
      vertex -15.467878402655563 -6.846715672757901 1.4
      vertex -15.694974746830583 -6.694974746830583 1.4
    endloop
  endfacet
  facet normal 0.26356833160000703 0.9279350565396142 -0.2635683316000079
    outer loop
      vertex -15.467878402655563 -6.846715672757901 1.4
      vertex -15.508241937732347 -6.747698654048023 1.7082419377323474
      vertex -15.2 -6.846715672757901 1.6678784026555626
    endloop
  endfacet
  facet normal 0.8161987773137119 0.5453665872968725 -0.1907743205249712
    outer loop
      vertex -15.694974746830583 -6.694974746830583 1.4
      vertex -15.8467156727579 -6.467878402655563 1.4
      vertex -15.74769865404802 -6.508241937732348 1.7082419377323474
    endloop
  endfacet
  facet normal 0.6758902283575525 0.67589022835755 -0.2938448543390788
    outer loop
      vertex -15.508241937732347 -6.747698654048023 1.7082419377323474
      vertex -15.694974746830583 -6.694974746830583 1.4
      vertex -15.74769865404802 -6.508241937732348 1.7082419377323474
    endloop
  endfacet
  facet normal 0.2938448543390766 0.6758902283575511 -0.6758902283575523
    outer loop
      vertex -15.2 -6.694974746830583 1.894974746830583
      vertex -15.508241937732347 -6.747698654048023 1.7082419377323474
      vertex -15.508241937732347 -6.508241937732348 1.947698654048022
    endloop
  endfacet
  facet normal 0.5773502691896268 0.5773502691896247 -0.5773502691896258
    outer loop
      vertex -15.508241937732347 -6.747698654048023 1.7082419377323474
      vertex -15.74769865404802 -6.508241937732348 1.7082419377323474
      vertex -15.508241937732347 -6.508241937732348 1.947698654048022
    endloop
  endfacet
  facet normal 0 -0.5555702330196016 -0.8314696123025456
    outer loop
      vertex -15.2 6.467878402655563 2.0467156727579003
      vertex 15.2 6.694974746830583 1.894974746830583
      vertex 15.2 6.467878402655563 2.0467156727579003
    endloop
  endfacet
  facet normal 0.19077432052496668 0.8161987773137127 -0.5453665872968729
    outer loop
      vertex -15.508241937732347 -6.747698654048023 1.7082419377323474
      vertex -15.2 -6.694974746830583 1.894974746830583
      vertex -15.2 -6.846715672757901 1.6678784026555626
    endloop
  endfacet
  facet normal 0 -0.8314696123025456 -0.5555702330196016
    outer loop
      vertex -15.2 6.846715672757901 1.6678784026555626
      vertex 15.2 6.846715672757901 1.6678784026555626
      vertex 15.2 6.694974746830583 1.894974746830583
    endloop
  endfacet
  facet normal 0 -0.9807852804032301 -0.19509032201613
    outer loop
      vertex -15.2 6.846715672757901 1.6678784026555626
      vertex 15.2 6.9 1.4
      vertex 15.2 6.846715672757901 1.6678784026555626
    endloop
  endfacet
  facet normal 9.690958744503232e-20 -0.19509032201613 -0.9807852804032301
    outer loop
      vertex 15.2 6.2 2.1
      vertex -15.2 6.467878402655563 2.0467156727579003
      vertex 15.2 6.467878402655563 2.0467156727579003
    endloop
  endfacet
  facet normal 0 0 -1
    outer loop
      vertex -15.2 6.2 2.1
      vertex 15.2 6.2 2.1
      vertex 2.9000000000000004 2.08 2.1
    endloop
  endfacet
  facet normal 0.19077432052496782 0.5453665872968728 -0.8161987773137125
    outer loop
      vertex -15.2 -6.694974746830583 1.894974746830583
      vertex -15.508241937732347 -6.508241937732348 1.947698654048022
      vertex -15.2 -6.467878402655563 2.0467156727579003
    endloop
  endfacet
  facet normal 0.927935056539612 0.26356833160001125 -0.26356833160001125
    outer loop
      vertex -15.8467156727579 -6.467878402655563 1.4
      vertex -15.8467156727579 -6.2 1.6678784026555626
      vertex -15.74769865404802 -6.508241937732348 1.7082419377323474
    endloop
  endfacet
  facet normal 0 0 -1
    outer loop
      vertex 2.9000000000000004 -2.08 2.1
      vertex 2.9000000000000004 2.08 2.1
      vertex 15.2 6.2 2.1
    endloop
  endfacet
  facet normal 0.8161987773137119 0.1907743205249712 -0.5453665872968725
    outer loop
      vertex -15.74769865404802 -6.508241937732348 1.7082419377323474
      vertex -15.8467156727579 -6.2 1.6678784026555626
      vertex -15.694974746830583 -6.2 1.894974746830583
    endloop
  endfacet
  facet normal 0.6758902283575517 0.2938448543390792 -0.6758902283575505
    outer loop
      vertex -15.508241937732347 -6.508241937732348 1.947698654048022
      vertex -15.74769865404802 -6.508241937732348 1.7082419377323474
      vertex -15.694974746830583 -6.2 1.894974746830583
    endloop
  endfacet
  facet normal 0 1 0
    outer loop
      vertex 15.2 -6.9 1.4
      vertex 15.2 -6.9 -3
      vertex -15.2 -6.9 1.4
    endloop
  endfacet
  facet normal 0.5453665872968727 0.19077432052496937 -0.8161987773137124
    outer loop
      vertex -15.508241937732347 -6.508241937732348 1.947698654048022
      vertex -15.694974746830583 -6.2 1.894974746830583
      vertex -15.467878402655563 -6.2 2.0467156727579003
    endloop
  endfacet
  facet normal 0.2635683316000081 0.263568331600009 -0.9279350565396136
    outer loop
      vertex -15.508241937732347 -6.508241937732348 1.947698654048022
      vertex -15.467878402655563 -6.2 2.0467156727579003
      vertex -15.2 -6.467878402655563 2.0467156727579003
    endloop
  endfacet
  facet normal 0.19148045395532384 0.19148045395532445 -0.9626372481397787
    outer loop
      vertex -15.2 -6.467878402655563 2.0467156727579003
      vertex -15.467878402655563 -6.2 2.0467156727579003
      vertex -15.2 -6.2 2.1
    endloop
  endfacet
  facet normal -0.1950903220161294 0.9807852804032302 0
    outer loop
      vertex 15.2 -6.9 -3
      vertex 15.2 -6.9 1.4
      vertex 15.467878402655563 -6.846715672757901 -3
    endloop
  endfacet
  facet normal 0 1 0
    outer loop
      vertex -15.2 -6.9 -3
      vertex -15.2 -6.9 1.4
      vertex 15.2 -6.9 -3
    endloop
  endfacet
  facet normal -0.5555702330196016 0.8314696123025457 0
    outer loop
      vertex 15.467878402655563 -6.846715672757901 1.4
      vertex 15.694974746830583 -6.694974746830583 -3
      vertex 15.467878402655563 -6.846715672757901 -3
    endloop
  endfacet
  facet normal -0.8314696123025457 0.5555702330196016 0
    outer loop
      vertex 15.694974746830583 -6.694974746830583 -3
      vertex 15.694974746830583 -6.694974746830583 1.4
      vertex 15.8467156727579 -6.467878402655563 -3
    endloop
  endfacet
  facet normal -0.9626372481397809 -0.1914804539553185 -0.1914804539553185
    outer loop
      vertex 15.899999999999999 6.2 1.4
      vertex 15.8467156727579 6.2 1.6678784026555626
      vertex 15.8467156727579 6.467878402655563 1.4
    endloop
  endfacet
  facet normal -0.19148045395532384 -0.9626372481397787 -0.19148045395532445
    outer loop
      vertex 15.2 6.9 1.4
      vertex 15.467878402655563 6.846715672757901 1.4
      vertex 15.2 6.846715672757901 1.6678784026555626
    endloop
  endfacet
  facet normal -0.5555702330196016 -0.8314696123025457 0
    outer loop
      vertex 15.467878402655563 6.846715672757901 -3
      vertex 15.694974746830583 6.694974746830583 1.4
      vertex 15.467878402655563 6.846715672757901 1.4
    endloop
  endfacet
  facet normal -0.8314696123025457 -0.5555702330196016 0
    outer loop
      vertex 15.694974746830583 6.694974746830583 -3
      vertex 15.8467156727579 6.467878402655563 1.4
      vertex 15.694974746830583 6.694974746830583 1.4
    endloop
  endfacet
  facet normal -0.1950903220161294 -0.9807852804032302 0
    outer loop
      vertex 15.2 6.9 1.4
      vertex 15.2 6.9 -3
      vertex 15.467878402655563 6.846715672757901 1.4
    endloop
  endfacet
  facet normal 0.9807852804032313 0 -0.19509032201612378
    outer loop
      vertex -15.8467156727579 -6.2 1.6678784026555626
      vertex -15.899999999999999 -6.2 1.4
      vertex -15.8467156727579 6.2 1.6678784026555626
    endloop
  endfacet
  facet normal 0.8314696123025457 0 -0.5555702330196016
    outer loop
      vertex -15.8467156727579 -6.2 1.6678784026555626
      vertex -15.8467156727579 6.2 1.6678784026555626
      vertex -15.694974746830583 -6.2 1.894974746830583
    endloop
  endfacet
  facet normal -0.9807852804032312 -0.19509032201612375 0
    outer loop
      vertex 15.8467156727579 6.467878402655563 1.4
      vertex 15.8467156727579 6.467878402655563 -3
      vertex 15.899999999999999 6.2 1.4
    endloop
  endfacet
  facet normal 0.5555702330196016 -4.600529046043769e-19 -0.8314696123025457
    outer loop
      vertex -15.467878402655563 -6.2 2.0467156727579003
      vertex -15.694974746830583 -6.2 1.894974746830583
      vertex -15.694974746830583 6.2 1.894974746830583
    endloop
  endfacet
  facet normal 0.1950903220161294 0 -0.9807852804032302
    outer loop
      vertex -15.2 -6.2 2.1
      vertex -15.467878402655563 -6.2 2.0467156727579003
      vertex -15.2 6.2 2.1
    endloop
  endfacet
  facet normal -0.1950903220161294 -0.9807852804032302 0
    outer loop
      vertex 15.467878402655563 6.846715672757901 -3
      vertex 15.467878402655563 6.846715672757901 1.4
      vertex 15.2 6.9 -3
    endloop
  endfacet
  facet normal -0.5555702330196016 -0.8314696123025457 0
    outer loop
      vertex 15.694974746830583 6.694974746830583 1.4
      vertex 15.467878402655563 6.846715672757901 -3
      vertex 15.694974746830583 6.694974746830583 -3
    endloop
  endfacet
  facet normal -0.8314696123025457 -0.5555702330196016 0
    outer loop
      vertex 15.8467156727579 6.467878402655563 -3
      vertex 15.8467156727579 6.467878402655563 1.4
      vertex 15.694974746830583 6.694974746830583 -3
    endloop
  endfacet
  facet normal -0.9807852804032312 -0.19509032201612375 0
    outer loop
      vertex 15.899999999999999 6.2 -3
      vertex 15.899999999999999 6.2 1.4
      vertex 15.8467156727579 6.467878402655563 -3
    endloop
  endfacet
  facet normal -1 0 0
    outer loop
      vertex 15.899999999999999 6.2 1.4
      vertex 15.899999999999999 6.2 -3
      vertex 15.899999999999999 -6.2 1.4
    endloop
  endfacet
  facet normal -9.690958744503232e-20 0.9807852804032301 -0.19509032201613
    outer loop
      vertex -15.2 -6.9 1.4
      vertex -15.2 -6.846715672757901 1.6678784026555626
      vertex 15.2 -6.846715672757901 1.6678784026555626
    endloop
  endfacet
  facet normal 0 0.8314696123025456 -0.5555702330196016
    outer loop
      vertex -15.2 -6.846715672757901 1.6678784026555626
      vertex -15.2 -6.694974746830583 1.894974746830583
      vertex 15.2 -6.846715672757901 1.6678784026555626
    endloop
  endfacet
  facet normal -1.8765315845704847e-19 0.5555702330196016 -0.8314696123025456
    outer loop
      vertex -15.2 -6.694974746830583 1.894974746830583
      vertex -15.2 -6.467878402655563 2.0467156727579003
      vertex 15.2 -6.467878402655563 2.0467156727579003
    endloop
  endfacet
  facet normal 0 0.19509032201613 -0.9807852804032301
    outer loop
      vertex -15.2 -6.467878402655563 2.0467156727579003
      vertex -15.2 -6.2 2.1
      vertex 15.2 -6.467878402655563 2.0467156727579003
    endloop
  endfacet
  facet normal 0 -1 0
    outer loop
      vertex -15.2 6.9 -3
      vertex 15.2 6.9 -3
      vertex 15.2 6.9 1.4
    endloop
  endfacet
  facet normal -0.9807852804032312 0.19509032201612375 3.3008239893855585e-19
    outer loop
      vertex 15.899999999999999 -6.2 -3
      vertex 15.8467156727579 -6.467878402655563 -3
      vertex 15.8467156727579 -6.467878402655563 1.4
    endloop
  endfacet
  facet normal -0.927935056539612 -0.26356833160001125 -0.26356833160001125
    outer loop
      vertex 15.8467156727579 6.467878402655563 1.4
      vertex 15.8467156727579 6.2 1.6678784026555626
      vertex 15.74769865404802 6.508241937732348 1.7082419377323474
    endloop
  endfacet
  facet normal 0 0 -1
    outer loop
      vertex 15.2 -6.2 2.1
      vertex -15.2 -6.2 2.1
      vertex -2.9000000000000004 -2.08 2.1
    endloop
  endfacet
  facet normal -0.1950903220161294 0.9807852804032302 0
    outer loop
      vertex 15.467878402655563 -6.846715672757901 -3
      vertex 15.2 -6.9 1.4
      vertex 15.467878402655563 -6.846715672757901 1.4
    endloop
  endfacet
  facet normal 1.8765315845704847e-19 -0.5555702330196016 -0.8314696123025456
    outer loop
      vertex -15.2 6.467878402655563 2.0467156727579003
      vertex -15.2 6.694974746830583 1.894974746830583
      vertex 15.2 6.694974746830583 1.894974746830583
    endloop
  endfacet
  facet normal 1 0 0
    outer loop
      vertex -15.899999999999999 6.2 1.4
      vertex -15.899999999999999 -6.2 1.4
      vertex -15.899999999999999 -6.2 -3
    endloop
  endfacet
  facet normal -0.8161987773137119 -0.1907743205249712 -0.5453665872968725
    outer loop
      vertex 15.8467156727579 6.2 1.6678784026555626
      vertex 15.694974746830583 6.2 1.894974746830583
      vertex 15.74769865404802 6.508241937732348 1.7082419377323474
    endloop
  endfacet
  facet normal 0 0 -1
    outer loop
      vertex -2.9000000000000004 2.08 2.1
      vertex -2.9000000000000004 -2.08 2.1
      vertex -15.2 -6.2 2.1
    endloop
  endfacet
  facet normal 0 -0.8314696123025456 -0.5555702330196016
    outer loop
      vertex 15.2 6.694974746830583 1.894974746830583
      vertex -15.2 6.694974746830583 1.894974746830583
      vertex -15.2 6.846715672757901 1.6678784026555626
    endloop
  endfacet
  facet normal -0.6758902283575517 -0.2938448543390792 -0.6758902283575505
    outer loop
      vertex 15.694974746830583 6.2 1.894974746830583
      vertex 15.508241937732347 6.508241937732348 1.947698654048022
      vertex 15.74769865404802 6.508241937732348 1.7082419377323474
    endloop
  endfacet
  facet normal 0.9807852804032312 0.19509032201612375 0
    outer loop
      vertex -15.8467156727579 -6.467878402655563 -3
      vertex -15.899999999999999 -6.2 1.4
      vertex -15.8467156727579 -6.467878402655563 1.4
    endloop
  endfacet
  facet normal 0.1950903220161294 0.9807852804032302 0
    outer loop
      vertex -15.2 -6.9 -3
      vertex -15.467878402655563 -6.846715672757901 1.4
      vertex -15.2 -6.9 1.4
    endloop
  endfacet
  facet normal 1 0 0
    outer loop
      vertex -15.899999999999999 -6.2 -3
      vertex -15.899999999999999 6.2 -3
      vertex -15.899999999999999 6.2 1.4
    endloop
  endfacet
  facet normal 0.8314696123025457 0.5555702330196016 0
    outer loop
      vertex -15.694974746830583 -6.694974746830583 -3
      vertex -15.8467156727579 -6.467878402655563 1.4
      vertex -15.694974746830583 -6.694974746830583 1.4
    endloop
  endfacet
  facet normal 0 -0.19509032201613 -0.9807852804032301
    outer loop
      vertex -15.2 6.2 2.1
      vertex -15.2 6.467878402655563 2.0467156727579003
      vertex 15.2 6.2 2.1
    endloop
  endfacet
  facet normal 0.5555702330196016 0.8314696123025457 0
    outer loop
      vertex -15.467878402655563 -6.846715672757901 1.4
      vertex -15.467878402655563 -6.846715672757901 -3
      vertex -15.694974746830583 -6.694974746830583 1.4
    endloop
  endfacet
  facet normal -0.19148045395532384 -0.19148045395532445 -0.9626372481397787
    outer loop
      vertex 15.2 6.2 2.1
      vertex 15.2 6.467878402655563 2.0467156727579003
      vertex 15.467878402655563 6.2 2.0467156727579003
    endloop
  endfacet
  facet normal -0.9807852804032312 0.19509032201612375 0
    outer loop
      vertex 15.899999999999999 -6.2 -3
      vertex 15.8467156727579 -6.467878402655563 1.4
      vertex 15.899999999999999 -6.2 1.4
    endloop
  endfacet
  facet normal -0.1950903220161294 0 -0.9807852804032302
    outer loop
      vertex 15.2 -6.2 2.1
      vertex 15.2 6.2 2.1
      vertex 15.467878402655563 -6.2 2.0467156727579003
    endloop
  endfacet
  facet normal -0.8314696123025457 0 -0.5555702330196016
    outer loop
      vertex 15.8467156727579 -6.2 1.6678784026555626
      vertex 15.694974746830583 -6.2 1.894974746830583
      vertex 15.8467156727579 6.2 1.6678784026555626
    endloop
  endfacet
  facet normal -0.9807852804032313 -1.1712601252658437e-19 -0.19509032201612378
    outer loop
      vertex 15.899999999999999 -6.2 1.4
      vertex 15.8467156727579 -6.2 1.6678784026555626
      vertex 15.8467156727579 6.2 1.6678784026555626
    endloop
  endfacet
  facet normal 0 0 -1
    outer loop
      vertex 15.2 6.2 2.1
      vertex 15.2 -6.2 2.1
      vertex 2.9000000000000004 -2.08 2.1
    endloop
  endfacet
  facet normal 0.9807852804032312 -0.19509032201612375 0
    outer loop
      vertex -15.8467156727579 6.467878402655563 1.4
      vertex -15.899999999999999 6.2 -3
      vertex -15.8467156727579 6.467878402655563 -3
    endloop
  endfacet
  facet normal 0.8314696123025457 -0.5555702330196016 0
    outer loop
      vertex -15.694974746830583 6.694974746830583 -3
      vertex -15.694974746830583 6.694974746830583 1.4
      vertex -15.8467156727579 6.467878402655563 -3
    endloop
  endfacet
  facet normal 0.5555702330196016 -0.8314696123025457 0
    outer loop
      vertex -15.467878402655563 6.846715672757901 1.4
      vertex -15.694974746830583 6.694974746830583 -3
      vertex -15.467878402655563 6.846715672757901 -3
    endloop
  endfacet
  facet normal 0.1950903220161294 -0.9807852804032302 0
    outer loop
      vertex -15.2 6.9 -3
      vertex -15.2 6.9 1.4
      vertex -15.467878402655563 6.846715672757901 -3
    endloop
  endfacet
  facet normal -0.2635683316000081 0.26356833160000903 -0.9279350565396136
    outer loop
      vertex 15.508241937732347 -6.508241937732348 1.947698654048022
      vertex 15.2 -6.467878402655563 2.0467156727579003
      vertex 15.467878402655563 -6.2 2.0467156727579003
    endloop
  endfacet
  facet normal -0.5453665872968727 0.19077432052496937 -0.8161987773137124
    outer loop
      vertex 15.508241937732347 -6.508241937732348 1.947698654048022
      vertex 15.467878402655563 -6.2 2.0467156727579003
      vertex 15.694974746830583 -6.2 1.894974746830583
    endloop
  endfacet
  facet normal -0.19148045395532384 0.19148045395532445 -0.9626372481397787
    outer loop
      vertex 15.2 -6.467878402655563 2.0467156727579003
      vertex 15.2 -6.2 2.1
      vertex 15.467878402655563 -6.2 2.0467156727579003
    endloop
  endfacet
  facet normal -0.6758902283575517 0.2938448543390792 -0.6758902283575505
    outer loop
      vertex 15.74769865404802 -6.508241937732348 1.7082419377323474
      vertex 15.508241937732347 -6.508241937732348 1.947698654048022
      vertex 15.694974746830583 -6.2 1.894974746830583
    endloop
  endfacet
  facet normal -0.5555702330196016 0.8314696123025457 0
    outer loop
      vertex 15.694974746830583 -6.694974746830583 -3
      vertex 15.467878402655563 -6.846715672757901 1.4
      vertex 15.694974746830583 -6.694974746830583 1.4
    endloop
  endfacet
  facet normal 0.9807852804032312 -0.19509032201612375 0
    outer loop
      vertex -15.899999999999999 6.2 -3
      vertex -15.8467156727579 6.467878402655563 1.4
      vertex -15.899999999999999 6.2 1.4
    endloop
  endfacet
  facet normal -0.19077432052496782 -0.5453665872968728 -0.8161987773137125
    outer loop
      vertex 15.2 6.467878402655563 2.0467156727579003
      vertex 15.2 6.694974746830583 1.894974746830583
      vertex 15.508241937732347 6.508241937732348 1.947698654048022
    endloop
  endfacet
  facet normal 0.5555702330196016 -0.8314696123025457 0
    outer loop
      vertex -15.694974746830583 6.694974746830583 -3
      vertex -15.467878402655563 6.846715672757901 1.4
      vertex -15.694974746830583 6.694974746830583 1.4
    endloop
  endfacet
  facet normal 0.1950903220161294 -0.9807852804032302 0
    outer loop
      vertex -15.467878402655563 6.846715672757901 1.4
      vertex -15.467878402655563 6.846715672757901 -3
      vertex -15.2 6.9 1.4
    endloop
  endfacet
  facet normal -0.2938448543390766 -0.6758902283575511 -0.6758902283575523
    outer loop
      vertex 15.508241937732347 6.508241937732348 1.947698654048022
      vertex 15.2 6.694974746830583 1.894974746830583
      vertex 15.508241937732347 6.747698654048023 1.7082419377323474
    endloop
  endfacet
  facet normal -0.5773502691896268 -0.5773502691896247 -0.5773502691896258
    outer loop
      vertex 15.508241937732347 6.747698654048023 1.7082419377323474
      vertex 15.74769865404802 6.508241937732348 1.7082419377323474
      vertex 15.508241937732347 6.508241937732348 1.947698654048022
    endloop
  endfacet
  facet normal -0.8314696123025457 0.5555702330196016 0
    outer loop
      vertex 15.8467156727579 -6.467878402655563 1.4
      vertex 15.8467156727579 -6.467878402655563 -3
      vertex 15.694974746830583 -6.694974746830583 1.4
    endloop
  endfacet
  facet normal 0 0 -1
    outer loop
      vertex -2.9000000000000004 2.08 2.1
      vertex -15.2 6.2 2.1
      vertex 2.9000000000000004 2.08 2.1
    endloop
  endfacet
  facet normal -0.5453665872968727 -0.19077432052496932 -0.8161987773137124
    outer loop
      vertex 15.467878402655563 6.2 2.0467156727579003
      vertex 15.508241937732347 6.508241937732348 1.947698654048022
      vertex 15.694974746830583 6.2 1.894974746830583
    endloop
  endfacet
  facet normal -0.2635683316000081 -0.263568331600009 -0.9279350565396136
    outer loop
      vertex 15.508241937732347 6.508241937732348 1.947698654048022
      vertex 15.467878402655563 6.2 2.0467156727579003
      vertex 15.2 6.467878402655563 2.0467156727579003
    endloop
  endfacet
  facet normal -0.26356833160000703 -0.9279350565396142 -0.2635683316000079
    outer loop
      vertex 15.467878402655563 6.846715672757901 1.4
      vertex 15.508241937732347 6.747698654048023 1.7082419377323474
      vertex 15.2 6.846715672757901 1.6678784026555626
    endloop
  endfacet
  facet normal -0.9279350565396121 0.26356833160001136 -0.26356833160001136
    outer loop
      vertex 15.8467156727579 -6.467878402655563 1.4
      vertex 15.74769865404802 -6.508241937732348 1.7082419377323474
      vertex 15.8467156727579 -6.2 1.6678784026555626
    endloop
  endfacet
  facet normal 0 -1 0
    outer loop
      vertex 15.2 6.9 1.4
      vertex -15.2 6.9 1.4
      vertex -15.2 6.9 -3
    endloop
  endfacet
  facet normal -0.19077432052496782 0.5453665872968728 -0.8161987773137125
    outer loop
      vertex 15.2 -6.694974746830583 1.894974746830583
      vertex 15.2 -6.467878402655563 2.0467156727579003
      vertex 15.508241937732347 -6.508241937732348 1.947698654048022
    endloop
  endfacet
  facet normal 0.9807852804032313 0 -0.19509032201612378
    outer loop
      vertex -15.899999999999999 -6.2 1.4
      vertex -15.899999999999999 6.2 1.4
      vertex -15.8467156727579 6.2 1.6678784026555626
    endloop
  endfacet
  facet normal -0.5773502691896268 0.5773502691896247 -0.5773502691896258
    outer loop
      vertex 15.508241937732347 -6.747698654048023 1.7082419377323474
      vertex 15.508241937732347 -6.508241937732348 1.947698654048022
      vertex 15.74769865404802 -6.508241937732348 1.7082419377323474
    endloop
  endfacet
  facet normal 0.8314696123025457 0 -0.5555702330196016
    outer loop
      vertex -15.694974746830583 -6.2 1.894974746830583
      vertex -15.8467156727579 6.2 1.6678784026555626
      vertex -15.694974746830583 6.2 1.894974746830583
    endloop
  endfacet
  facet normal 0.5555702330196016 0 -0.8314696123025457
    outer loop
      vertex -15.467878402655563 -6.2 2.0467156727579003
      vertex -15.694974746830583 6.2 1.894974746830583
      vertex -15.467878402655563 6.2 2.0467156727579003
    endloop
  endfacet
  facet normal 0.1950903220161294 0 -0.9807852804032302
    outer loop
      vertex -15.467878402655563 -6.2 2.0467156727579003
      vertex -15.467878402655563 6.2 2.0467156727579003
      vertex -15.2 6.2 2.1
    endloop
  endfacet
  facet normal -0.2938448543390766 0.6758902283575511 -0.6758902283575523
    outer loop
      vertex 15.508241937732347 -6.747698654048023 1.7082419377323474
      vertex 15.2 -6.694974746830583 1.894974746830583
      vertex 15.508241937732347 -6.508241937732348 1.947698654048022
    endloop
  endfacet
  facet normal -0.6758902283575525 0.67589022835755 -0.2938448543390788
    outer loop
      vertex 15.694974746830583 -6.694974746830583 1.4
      vertex 15.508241937732347 -6.747698654048023 1.7082419377323474
      vertex 15.74769865404802 -6.508241937732348 1.7082419377323474
    endloop
  endfacet
  facet normal -0.8161987773137119 0.5453665872968725 -0.1907743205249712
    outer loop
      vertex 15.694974746830583 -6.694974746830583 1.4
      vertex 15.74769865404802 -6.508241937732348 1.7082419377323474
      vertex 15.8467156727579 -6.467878402655563 1.4
    endloop
  endfacet
  facet normal 0 0 -1
    outer loop
      vertex -15.2 -6.2 2.1
      vertex -15.2 6.2 2.1
      vertex -2.9000000000000004 2.08 2.1
    endloop
  endfacet
  facet normal -0.26356833160000703 0.9279350565396142 -0.2635683316000079
    outer loop
      vertex 15.467878402655563 -6.846715672757901 1.4
      vertex 15.2 -6.846715672757901 1.6678784026555626
      vertex 15.508241937732347 -6.747698654048023 1.7082419377323474
    endloop
  endfacet
  facet normal -0.5453665872968728 0.8161987773137125 -0.19077432052496823
    outer loop
      vertex 15.694974746830583 -6.694974746830583 1.4
      vertex 15.467878402655563 -6.846715672757901 1.4
      vertex 15.508241937732347 -6.747698654048023 1.7082419377323474
    endloop
  endfacet
  facet normal -0.1907743205249667 0.8161987773137127 -0.5453665872968729
    outer loop
      vertex 15.2 -6.846715672757901 1.6678784026555626
      vertex 15.2 -6.694974746830583 1.894974746830583
      vertex 15.508241937732347 -6.747698654048023 1.7082419377323474
    endloop
  endfacet
  facet normal -0.9626372481397809 0.1914804539553185 -0.1914804539553185
    outer loop
      vertex 15.899999999999999 -6.2 1.4
      vertex 15.8467156727579 -6.467878402655563 1.4
      vertex 15.8467156727579 -6.2 1.6678784026555626
    endloop
  endfacet
  facet normal 0.9626372481397809 -0.1914804539553185 -0.1914804539553185
    outer loop
      vertex -15.899999999999999 6.2 1.4
      vertex -15.8467156727579 6.467878402655563 1.4
      vertex -15.8467156727579 6.2 1.6678784026555626
    endloop
  endfacet
  facet normal 0.19148045395532384 -0.9626372481397787 -0.19148045395532445
    outer loop
      vertex -15.467878402655563 6.846715672757901 1.4
      vertex -15.2 6.9 1.4
      vertex -15.2 6.846715672757901 1.6678784026555626
    endloop
  endfacet
  facet normal 0.9279350565396121 -0.26356833160001136 -0.26356833160001136
    outer loop
      vertex -15.8467156727579 6.467878402655563 1.4
      vertex -15.74769865404802 6.508241937732348 1.7082419377323474
      vertex -15.8467156727579 6.2 1.6678784026555626
    endloop
  endfacet
  facet normal -0.19148045395532384 0.9626372481397787 -0.19148045395532445
    outer loop
      vertex 15.2 -6.9 1.4
      vertex 15.2 -6.846715672757901 1.6678784026555626
      vertex 15.467878402655563 -6.846715672757901 1.4
    endloop
  endfacet
  facet normal 0.8161987773137119 -0.1907743205249712 -0.5453665872968725
    outer loop
      vertex -15.694974746830583 6.2 1.894974746830583
      vertex -15.8467156727579 6.2 1.6678784026555626
      vertex -15.74769865404802 6.508241937732348 1.7082419377323474
    endloop
  endfacet
  facet normal 0.6758902283575517 -0.2938448543390792 -0.6758902283575505
    outer loop
      vertex -15.694974746830583 6.2 1.894974746830583
      vertex -15.74769865404802 6.508241937732348 1.7082419377323474
      vertex -15.508241937732347 6.508241937732348 1.947698654048022
    endloop
  endfacet
  facet normal 0 0 -1
    outer loop
      vertex -2.9000000000000004 -2.08 2.1
      vertex 2.9000000000000004 -2.08 2.1
      vertex 15.2 -6.2 2.1
    endloop
  endfacet
  facet normal 0.5453665872968727 -0.19077432052496932 -0.8161987773137124
    outer loop
      vertex -15.467878402655563 6.2 2.0467156727579003
      vertex -15.694974746830583 6.2 1.894974746830583
      vertex -15.508241937732347 6.508241937732348 1.947698654048022
    endloop
  endfacet
  facet normal 0.2635683316000081 -0.263568331600009 -0.9279350565396136
    outer loop
      vertex -15.467878402655563 6.2 2.0467156727579003
      vertex -15.508241937732347 6.508241937732348 1.947698654048022
      vertex -15.2 6.467878402655563 2.0467156727579003
    endloop
  endfacet
  facet normal 0.19148045395532384 -0.19148045395532445 -0.9626372481397787
    outer loop
      vertex -15.2 6.2 2.1
      vertex -15.467878402655563 6.2 2.0467156727579003
      vertex -15.2 6.467878402655563 2.0467156727579003
    endloop
  endfacet
  facet normal 0.8161987773137119 -0.5453665872968725 -0.1907743205249712
    outer loop
      vertex -15.8467156727579 6.467878402655563 1.4
      vertex -15.694974746830583 6.694974746830583 1.4
      vertex -15.74769865404802 6.508241937732348 1.7082419377323474
    endloop
  endfacet
  facet normal 0.6758902283575525 -0.67589022835755 -0.2938448543390788
    outer loop
      vertex -15.74769865404802 6.508241937732348 1.7082419377323474
      vertex -15.694974746830583 6.694974746830583 1.4
      vertex -15.508241937732347 6.747698654048023 1.7082419377323474
    endloop
  endfacet
  facet normal 0.5453665872968728 -0.8161987773137125 -0.19077432052496823
    outer loop
      vertex -15.694974746830583 6.694974746830583 1.4
      vertex -15.467878402655563 6.846715672757901 1.4
      vertex -15.508241937732347 6.747698654048023 1.7082419377323474
    endloop
  endfacet
  facet normal 0.26356833160000703 -0.9279350565396142 -0.2635683316000079
    outer loop
      vertex -15.467878402655563 6.846715672757901 1.4
      vertex -15.2 6.846715672757901 1.6678784026555626
      vertex -15.508241937732347 6.747698654048023 1.7082419377323474
    endloop
  endfacet
  facet normal 0.5773502691896268 -0.5773502691896247 -0.5773502691896258
    outer loop
      vertex -15.508241937732347 6.508241937732348 1.947698654048022
      vertex -15.74769865404802 6.508241937732348 1.7082419377323474
      vertex -15.508241937732347 6.747698654048023 1.7082419377323474
    endloop
  endfacet
  facet normal 0.2938448543390766 -0.6758902283575511 -0.6758902283575523
    outer loop
      vertex -15.508241937732347 6.508241937732348 1.947698654048022
      vertex -15.508241937732347 6.747698654048023 1.7082419377323474
      vertex -15.2 6.694974746830583 1.894974746830583
    endloop
  endfacet
  facet normal 0.1907743205249667 -0.8161987773137127 -0.5453665872968729
    outer loop
      vertex -15.508241937732347 6.747698654048023 1.7082419377323474
      vertex -15.2 6.846715672757901 1.6678784026555626
      vertex -15.2 6.694974746830583 1.894974746830583
    endloop
  endfacet
  facet normal -0.1907743205249667 -0.8161987773137127 -0.5453665872968729
    outer loop
      vertex 15.2 6.846715672757901 1.6678784026555626
      vertex 15.508241937732347 6.747698654048023 1.7082419377323474
      vertex 15.2 6.694974746830583 1.894974746830583
    endloop
  endfacet
  facet normal -0.8161987773137119 -0.5453665872968725 -0.1907743205249712
    outer loop
      vertex 15.694974746830583 6.694974746830583 1.4
      vertex 15.8467156727579 6.467878402655563 1.4
      vertex 15.74769865404802 6.508241937732348 1.7082419377323474
    endloop
  endfacet
  facet normal 0.9807852804032312 0.19509032201612375 0
    outer loop
      vertex -15.899999999999999 -6.2 1.4
      vertex -15.8467156727579 -6.467878402655563 -3
      vertex -15.899999999999999 -6.2 -3
    endloop
  endfacet
  facet normal -0.5453665872968728 -0.8161987773137125 -0.19077432052496818
    outer loop
      vertex 15.467878402655563 6.846715672757901 1.4
      vertex 15.694974746830583 6.694974746830583 1.4
      vertex 15.508241937732347 6.747698654048023 1.7082419377323474
    endloop
  endfacet
  facet normal 0.8314696123025457 0.5555702330196016 0
    outer loop
      vertex -15.8467156727579 -6.467878402655563 1.4
      vertex -15.694974746830583 -6.694974746830583 -3
      vertex -15.8467156727579 -6.467878402655563 -3
    endloop
  endfacet
  facet normal 0.19077432052496782 -0.5453665872968728 -0.8161987773137125
    outer loop
      vertex -15.2 6.467878402655563 2.0467156727579003
      vertex -15.508241937732347 6.508241937732348 1.947698654048022
      vertex -15.2 6.694974746830583 1.894974746830583
    endloop
  endfacet
  facet normal 0.5555702330196016 0.8314696123025457 0
    outer loop
      vertex -15.694974746830583 -6.694974746830583 -3
      vertex -15.694974746830583 -6.694974746830583 1.4
      vertex -15.467878402655563 -6.846715672757901 -3
    endloop
  endfacet
  facet normal 0.1950903220161294 0.9807852804032302 0
    outer loop
      vertex -15.467878402655563 -6.846715672757901 -3
      vertex -15.467878402655563 -6.846715672757901 1.4
      vertex -15.2 -6.9 -3
    endloop
  endfacet
  facet normal -0.6758902283575525 -0.67589022835755 -0.2938448543390788
    outer loop
      vertex 15.74769865404802 6.508241937732348 1.7082419377323474
      vertex 15.508241937732347 6.747698654048023 1.7082419377323474
      vertex 15.694974746830583 6.694974746830583 1.4
    endloop
  endfacet
  facet normal 0 0.19509032201613 -0.9807852804032301
    outer loop
      vertex -15.2 -6.2 2.1
      vertex 15.2 -6.2 2.1
      vertex 15.2 -6.467878402655563 2.0467156727579003
    endloop
  endfacet
  facet normal 0 0.5555702330196016 -0.8314696123025456
    outer loop
      vertex -15.2 -6.694974746830583 1.894974746830583
      vertex 15.2 -6.467878402655563 2.0467156727579003
      vertex 15.2 -6.694974746830583 1.894974746830583
    endloop
  endfacet
  facet normal -1.8765315845704847e-19 0.8314696123025456 -0.5555702330196016
    outer loop
      vertex 15.2 -6.846715672757901 1.6678784026555626
      vertex -15.2 -6.694974746830583 1.894974746830583
      vertex 15.2 -6.694974746830583 1.894974746830583
    endloop
  endfacet
  facet normal 0 0.9807852804032301 -0.19509032201613
    outer loop
      vertex -15.2 -6.9 1.4
      vertex 15.2 -6.846715672757901 1.6678784026555626
      vertex 15.2 -6.9 1.4
    endloop
  endfacet
  facet normal 0 -0.9807852804032301 -0.19509032201613
    outer loop
      vertex -15.2 6.9 1.4
      vertex 15.2 6.9 1.4
      vertex -15.2 6.846715672757901 1.6678784026555626
    endloop
  endfacet
  facet normal 0 -1 0
    outer loop
      vertex -2.9000000000000004 -2.08 2.1
      vertex -2.9000000000000004 -2.08 -1.6
      vertex -0.675 -2.08 -1.6
    endloop
  endfacet
  facet normal 0 0 -1
    outer loop
      vertex 0.675 2.08 -1.6
      vertex 2.25 0.575 -1.6
      vertex 0.675 0.575 -1.6
    endloop
  endfacet
  facet normal 0 -1 0
    outer loop
      vertex 2.9000000000000004 -2.08 2.1
      vertex -0.675 -2.08 2
      vertex 0.675 -2.08 2
    endloop
  endfacet
  facet normal 0 1 0
    outer loop
      vertex -0.675 2.08 -1.6
      vertex -2.9000000000000004 2.08 -1.6
      vertex -0.675 2.08 2
    endloop
  endfacet
  facet normal 0 1 0
    outer loop
      vertex -2.9000000000000004 2.08 -1.6
      vertex -2.9000000000000004 2.08 2.1
      vertex -0.675 2.08 2
    endloop
  endfacet
  facet normal -1 0 0
    outer loop
      vertex -2.9000000000000004 -2.08 -1.6
      vertex -2.9000000000000004 2.08 2.1
      vertex -2.9000000000000004 2.08 -1.6
    endloop
  endfacet
  facet normal 0 0 -1
    outer loop
      vertex -0.675 0.575 -1.6
      vertex -2.9000000000000004 2.08 -1.6
      vertex -0.675 2.08 -1.6
    endloop
  endfacet
  facet normal 0 0 -1
    outer loop
      vertex -2.25 0.575 -1.6
      vertex -2.9000000000000004 2.08 -1.6
      vertex -0.675 0.575 -1.6
    endloop
  endfacet
  facet normal 0 0 -1
    outer loop
      vertex -2.9000000000000004 2.08 -1.6
      vertex -2.25 0.575 -1.6
      vertex -2.9000000000000004 -2.08 -1.6
    endloop
  endfacet
  facet normal 0 0 -1
    outer loop
      vertex -2.9000000000000004 -2.08 -1.6
      vertex -2.25 -0.575 -1.6
      vertex -0.675 -2.08 -1.6
    endloop
  endfacet
  facet normal 0 1 0
    outer loop
      vertex -0.675 2.08 2
      vertex -2.9000000000000004 2.08 2.1
      vertex 0.675 2.08 2
    endloop
  endfacet
  facet normal 0 0 -1
    outer loop
      vertex -0.675 -2.08 -1.6
      vertex -2.25 -0.575 -1.6
      vertex -0.675 -0.575 -1.6
    endloop
  endfacet
  facet normal 0 0 -1
    outer loop
      vertex 2.25 0.575 -1.6
      vertex 0.675 2.08 -1.6
      vertex 2.9000000000000004 2.08 -1.6
    endloop
  endfacet
  facet normal 0 0 -1
    outer loop
      vertex 2.25 0.575 -1.6
      vertex 2.9000000000000004 2.08 -1.6
      vertex 2.25 -0.575 -1.6
    endloop
  endfacet
  facet normal 0 -1 0
    outer loop
      vertex -2.9000000000000004 -2.08 2.1
      vertex -0.675 -2.08 2
      vertex 2.9000000000000004 -2.08 2.1
    endloop
  endfacet
  facet normal -1 0 0
    outer loop
      vertex -2.9000000000000004 -2.08 2.1
      vertex -2.9000000000000004 2.08 2.1
      vertex -2.9000000000000004 -2.08 -1.6
    endloop
  endfacet
  facet normal 0 -1 0
    outer loop
      vertex -2.9000000000000004 -2.08 2.1
      vertex -0.675 -2.08 -1.6
      vertex -0.675 -2.08 2
    endloop
  endfacet
  facet normal 0 1 0
    outer loop
      vertex 2.9000000000000004 2.08 -1.6
      vertex 0.675 2.08 -1.6
      vertex 2.9000000000000004 2.08 2.1
    endloop
  endfacet
  facet normal 1 0 0
    outer loop
      vertex 2.9000000000000004 -2.08 2.1
      vertex 2.9000000000000004 2.08 -1.6
      vertex 2.9000000000000004 2.08 2.1
    endloop
  endfacet
  facet normal 0 1 0
    outer loop
      vertex 0.675 2.08 -1.6
      vertex 0.675 2.08 2
      vertex 2.9000000000000004 2.08 2.1
    endloop
  endfacet
  facet normal 0 0 -1
    outer loop
      vertex -2.25 -0.575 -1.6
      vertex -2.9000000000000004 -2.08 -1.6
      vertex -2.25 0.575 -1.6
    endloop
  endfacet
  facet normal 1 0 0
    outer loop
      vertex 2.9000000000000004 -2.08 -1.6
      vertex 2.9000000000000004 2.08 -1.6
      vertex 2.9000000000000004 -2.08 2.1
    endloop
  endfacet
  facet normal 0 1 0
    outer loop
      vertex -2.9000000000000004 2.08 2.1
      vertex 2.9000000000000004 2.08 2.1
      vertex 0.675 2.08 2
    endloop
  endfacet
  facet normal 0 0 -1
    outer loop
      vertex 2.9000000000000004 -2.08 -1.6
      vertex 0.675 -2.08 -1.6
      vertex 0.675 -0.575 -1.6
    endloop
  endfacet
  facet normal 0 0 -1
    outer loop
      vertex 2.9000000000000004 -2.08 -1.6
      vertex 0.675 -0.575 -1.6
      vertex 2.25 -0.575 -1.6
    endloop
  endfacet
  facet normal 0 0 -1
    outer loop
      vertex 2.9000000000000004 -2.08 -1.6
      vertex 2.25 -0.575 -1.6
      vertex 2.9000000000000004 2.08 -1.6
    endloop
  endfacet
  facet normal 0 -1 0
    outer loop
      vertex 0.675 -2.08 2
      vertex 0.675 -2.08 -1.6
      vertex 2.9000000000000004 -2.08 -1.6
    endloop
  endfacet
  facet normal 0 -1 0
    outer loop
      vertex 0.675 -2.08 2
      vertex 2.9000000000000004 -2.08 -1.6
      vertex 2.9000000000000004 -2.08 2.1
    endloop
  endfacet
  facet normal 0 0 -1
    outer loop
      vertex 15.100000014982637 -7.399999997019768 -3
      vertex -15.100000014982637 -7.399999997019768 -3
      vertex 15.2 -6.9 -3
    endloop
  endfacet
  facet normal 0.19077432052496807 0.545366587296873 0.8161987773137124
    outer loop
      vertex 15.672449312931501 6.672449312931503 2.717154643232041
      vertex 15.099999999999998 7.019238815542512 2.619238815542512
      vertex 15.099999999999998 6.597488462074617 2.901043392264673
    endloop
  endfacet
  facet normal 0.19509032201612833 -0.9807852804032304 0
    outer loop
      vertex 15.100000014982637 -7.399999997019768 -3
      vertex 15.597488462074615 -7.301043392264673 -3
      vertex 15.100000014982637 -7.399999997019768 -2.99
    endloop
  endfacet
  facet normal 0 0 -1
    outer loop
      vertex 15.100000014982637 -7.399999997019768 -3
      vertex 15.2 -6.9 -3
      vertex 15.467878402655563 -6.846715672757901 -3
    endloop
  endfacet
  facet normal 0 0 -1
    outer loop
      vertex 15.694974746830583 -6.694974746830583 -3
      vertex 15.100000014982637 -7.399999997019768 -3
      vertex 15.467878402655563 -6.846715672757901 -3
    endloop
  endfacet
  facet normal 0 0 -1
    outer loop
      vertex 15.597488462074615 -7.301043392264673 -3
      vertex 15.100000014982637 -7.399999997019768 -3
      vertex 16.30104339226467 -6.597488462074617 -3
    endloop
  endfacet
  facet normal 0 0 -1
    outer loop
      vertex 15.597488462074615 -7.301043392264673 -3
      vertex 16.30104339226467 -6.597488462074617 -3
      vertex 16.01923881554251 -7.019238815542512 -3
    endloop
  endfacet
  facet normal 0 0 -1
    outer loop
      vertex 15.694974746830583 -6.694974746830583 -3
      vertex 16.30104339226467 -6.597488462074617 -3
      vertex 15.100000014982637 -7.399999997019768 -3
    endloop
  endfacet
  facet normal 0 0 -1
    outer loop
      vertex 15.694974746830583 -6.694974746830583 -3
      vertex 15.8467156727579 -6.467878402655563 -3
      vertex 16.30104339226467 -6.597488462074617 -3
    endloop
  endfacet
  facet normal 0 0 -1
    outer loop
      vertex 15.8467156727579 -6.467878402655563 -3
      vertex 15.899999999999999 -6.2 -3
      vertex 16.30104339226467 -6.597488462074617 -3
    endloop
  endfacet
  facet normal 0 0 -1
    outer loop
      vertex -16.01923881554251 -7.019238815542512 -3
      vertex -16.30104339226467 -6.597488462074617 -3
      vertex -15.694974746830583 -6.694974746830583 -3
    endloop
  endfacet
  facet normal -1.2318576662593912e-19 0.5555702330196018 0.8314696123025455
    outer loop
      vertex -15.099999999999998 7.019238815542512 2.619238815542512
      vertex -15.099999999999998 6.597488462074617 2.901043392264673
      vertex 15.099999999999998 6.597488462074617 2.901043392264673
    endloop
  endfacet
  facet normal 0 0.8314696123025455 0.5555702330196018
    outer loop
      vertex 15.099999999999998 7.301043392264673 2.1974884620746167
      vertex -15.099999999999998 7.301043392264673 2.1974884620746167
      vertex -15.099999999999998 7.019238815542512 2.619238815542512
    endloop
  endfacet
  facet normal 1.8576715803019555e-19 0.19509032201612836 0.9807852804032304
    outer loop
      vertex -15.099999999999998 6.597488462074617 2.901043392264673
      vertex -15.099999999999998 6.1000000000000005 3
      vertex 15.099999999999998 6.1000000000000005 3
    endloop
  endfacet
  facet normal 0.1950903120869247 -0.9807852823782718 0
    outer loop
      vertex 15.099999999999998 -7.4 1.7
      vertex 15.100000014982637 -7.399999997019768 -3
      vertex 15.100000014982637 -7.399999997019768 -2.99
    endloop
  endfacet
  facet normal 0.19509032201612828 -0.9807852804032304 -2.675138928379498e-19
    outer loop
      vertex 15.100000014982637 -7.399999997019768 -2.99
      vertex 15.597488462074615 -7.301043392264673 -3
      vertex 15.597488462074615 -7.301043392264673 1.7
    endloop
  endfacet
  facet normal 0.5555702330196011 -0.8314696123025461 0
    outer loop
      vertex 16.01923881554251 -7.019238815542512 -3
      vertex 16.01923881554251 -7.019238815542512 1.7
      vertex 15.597488462074615 -7.301043392264673 -3
    endloop
  endfacet
  facet normal 0.8314696123025471 -0.5555702330195994 0
    outer loop
      vertex 16.01923881554251 -7.019238815542512 1.7
      vertex 16.01923881554251 -7.019238815542512 -3
      vertex 16.30104339226467 -6.597488462074617 -3
    endloop
  endfacet
  facet normal 0.9807852804032303 -0.19509032201612864 -1.5178568843782137e-16
    outer loop
      vertex 16.30104339226467 -6.597488462074617 -3
      vertex 16.399999997019766 -6.10000001498264 -3
      vertex 16.4 -6.1000000000000005 1.7
    endloop
  endfacet
  facet normal 0 0.9807852804032304 0.19509032201612828
    outer loop
      vertex -15.099999999999998 7.301043392264673 2.1974884620746167
      vertex 15.099999999999998 7.301043392264673 2.1974884620746167
      vertex -15.099999999999998 7.4 1.7
    endloop
  endfacet
  facet normal -5.5945710835940735e-27 1 -6.340919279008185e-10
    outer loop
      vertex -15.100000014982637 7.399999997019768 -3
      vertex -15.099999999999998 7.4 1.7
      vertex 15.099999999999998 7.4 1.7
    endloop
  endfacet
  facet normal 0 0 1
    outer loop
      vertex -15.099999999999998 6.1000000000000005 3
      vertex -15.099999999999998 -6.1000000000000005 3
      vertex 15.099999999999998 6.1000000000000005 3
    endloop
  endfacet
  facet normal -0.19077432052496804 0.5453665872968729 0.8161987773137123
    outer loop
      vertex -15.099999999999998 7.019238815542512 2.619238815542512
      vertex -15.672449312931501 6.672449312931503 2.717154643232041
      vertex -15.099999999999998 6.597488462074617 2.901043392264673
    endloop
  endfacet
  facet normal 0 0 -1
    outer loop
      vertex 16.30104339226467 -6.597488462074617 -3
      vertex 15.899999999999999 -6.2 -3
      vertex 15.899999999999999 6.2 -3
    endloop
  endfacet
  facet normal 0 0 -1
    outer loop
      vertex 16.399999997019766 -6.10000001498264 -3
      vertex 16.30104339226467 -6.597488462074617 -3
      vertex 16.399999997019766 6.10000001498264 -3
    endloop
  endfacet
  facet normal -0.19077432052496804 0.8161987773137123 0.5453665872968729
    outer loop
      vertex -15.672449312931501 7.117154643232041 2.272449312931503
      vertex -15.099999999999998 7.019238815542512 2.619238815542512
      vertex -15.099999999999998 7.301043392264673 2.1974884620746167
    endloop
  endfacet
  facet normal -0.2938448543390769 0.6758902283575516 0.6758902283575516
    outer loop
      vertex -15.672449312931501 7.117154643232041 2.272449312931503
      vertex -15.672449312931501 6.672449312931503 2.717154643232041
      vertex -15.099999999999998 7.019238815542512 2.619238815542512
    endloop
  endfacet
  facet normal -0.6758902283575524 0.2938448543390792 0.6758902283575497
    outer loop
      vertex -16.117154643232038 6.672449312931503 2.272449312931503
      vertex -16.01923881554251 6.1000000000000005 2.619238815542512
      vertex -15.672449312931501 6.672449312931503 2.717154643232041
    endloop
  endfacet
  facet normal 0 -0.9807852804032304 0.19509032201612828
    outer loop
      vertex 15.099999999999998 -7.301043392264673 2.1974884620746167
      vertex -15.099999999999998 -7.301043392264673 2.1974884620746167
      vertex 15.099999999999998 -7.4 1.7
    endloop
  endfacet
  facet normal -0.5773502691896273 0.5773502691896251 0.5773502691896251
    outer loop
      vertex -15.672449312931501 7.117154643232041 2.272449312931503
      vertex -16.117154643232038 6.672449312931503 2.272449312931503
      vertex -15.672449312931501 6.672449312931503 2.717154643232041
    endloop
  endfacet
  facet normal -0.19148045395532254 0.19148045395532287 0.9626372481397794
    outer loop
      vertex -15.099999999999998 6.597488462074617 2.901043392264673
      vertex -15.597488462074615 6.1000000000000005 2.901043392264673
      vertex -15.099999999999998 6.1000000000000005 3
    endloop
  endfacet
  facet normal 0 -0.8314696123025455 0.5555702330196018
    outer loop
      vertex -15.099999999999998 -7.019238815542512 2.619238815542512
      vertex 15.099999999999998 -7.301043392264673 2.1974884620746167
      vertex 15.099999999999998 -7.019238815542512 2.619238815542512
    endloop
  endfacet
  facet normal 1.2318576662593912e-19 -0.5555702330196018 0.8314696123025455
    outer loop
      vertex 15.099999999999998 -6.597488462074617 2.901043392264673
      vertex -15.099999999999998 -7.019238815542512 2.619238815542512
      vertex 15.099999999999998 -7.019238815542512 2.619238815542512
    endloop
  endfacet
  facet normal 0 -0.19509032201612836 0.9807852804032304
    outer loop
      vertex -15.099999999999998 -6.1000000000000005 3
      vertex 15.099999999999998 -6.597488462074617 2.901043392264673
      vertex 15.099999999999998 -6.1000000000000005 3
    endloop
  endfacet
  facet normal -0.2635683316000085 0.263568331600009 0.9279350565396135
    outer loop
      vertex -15.672449312931501 6.672449312931503 2.717154643232041
      vertex -15.597488462074615 6.1000000000000005 2.901043392264673
      vertex -15.099999999999998 6.597488462074617 2.901043392264673
    endloop
  endfacet
  facet normal -0.5453665872968722 0.19077432052496865 0.8161987773137128
    outer loop
      vertex -16.01923881554251 6.1000000000000005 2.619238815542512
      vertex -15.597488462074615 6.1000000000000005 2.901043392264673
      vertex -15.672449312931501 6.672449312931503 2.717154643232041
    endloop
  endfacet
  facet normal -0.8161987773137136 0.1907743205249704 0.5453665872968704
    outer loop
      vertex -16.117154643232038 6.672449312931503 2.272449312931503
      vertex -16.30104339226467 6.1000000000000005 2.1974884620746167
      vertex -16.01923881554251 6.1000000000000005 2.619238815542512
    endloop
  endfacet
  facet normal -0.2635683316000085 0.9279350565396136 0.26356833160000886
    outer loop
      vertex -15.099999999999998 7.301043392264673 2.1974884620746167
      vertex -15.597488462074615 7.301043392264673 1.7
      vertex -15.672449312931501 7.117154643232041 2.272449312931503
    endloop
  endfacet
  facet normal -0.5453665872968723 0.8161987773137128 0.19077432052496857
    outer loop
      vertex -15.597488462074615 7.301043392264673 1.7
      vertex -16.01923881554251 7.019238815542512 1.7
      vertex -15.672449312931501 7.117154643232041 2.272449312931503
    endloop
  endfacet
  facet normal -0.6758902283575525 0.6758902283575499 0.2938448543390791
    outer loop
      vertex -16.01923881554251 7.019238815542512 1.7
      vertex -16.117154643232038 6.672449312931503 2.272449312931503
      vertex -15.672449312931501 7.117154643232041 2.272449312931503
    endloop
  endfacet
  facet normal -0.8161987773137135 0.5453665872968704 0.1907743205249703
    outer loop
      vertex -16.01923881554251 7.019238815542512 1.7
      vertex -16.30104339226467 6.597488462074617 1.7
      vertex -16.117154643232038 6.672449312931503 2.272449312931503
    endloop
  endfacet
  facet normal -0.19148045395532254 0.9626372481397794 0.1914804539553228
    outer loop
      vertex -15.099999999999998 7.4 1.7
      vertex -15.597488462074615 7.301043392264673 1.7
      vertex -15.099999999999998 7.301043392264673 2.1974884620746167
    endloop
  endfacet
  facet normal -0.9279350565396127 0.2635683316000099 0.2635683316000098
    outer loop
      vertex -16.30104339226467 6.597488462074617 1.7
      vertex -16.30104339226467 6.1000000000000005 2.1974884620746167
      vertex -16.117154643232038 6.672449312931503 2.272449312931503
    endloop
  endfacet
  facet normal 0 0 1
    outer loop
      vertex 15.099999999999998 6.1000000000000005 3
      vertex -15.099999999999998 -6.1000000000000005 3
      vertex 15.099999999999998 -6.1000000000000005 3
    endloop
  endfacet
  facet normal 0.19509032201612803 -0.9807852804032305 3.297481681642573e-17
    outer loop
      vertex 15.099999999999998 -7.4 1.7
      vertex 15.100000014982637 -7.399999997019768 -2.99
      vertex 15.597488462074615 -7.301043392264673 1.7
    endloop
  endfacet
  facet normal 0.5555702330196011 -0.8314696123025461 0
    outer loop
      vertex 15.597488462074615 -7.301043392264673 1.7
      vertex 15.597488462074615 -7.301043392264673 -3
      vertex 16.01923881554251 -7.019238815542512 1.7
    endloop
  endfacet
  facet normal 0.8314696123025471 -0.5555702330195994 8.844100702664988e-19
    outer loop
      vertex 16.01923881554251 -7.019238815542512 1.7
      vertex 16.30104339226467 -6.597488462074617 -3
      vertex 16.30104339226467 -6.597488462074617 1.7
    endloop
  endfacet
  facet normal 0.9807852804032301 -0.19509032201613002 0
    outer loop
      vertex 16.30104339226467 -6.597488462074617 1.7
      vertex 16.30104339226467 -6.597488462074617 -3
      vertex 16.4 -6.1000000000000005 1.7
    endloop
  endfacet
  facet normal -0.9626372481397787 0.19148045395532445 0.19148045395532437
    outer loop
      vertex -16.30104339226467 6.597488462074617 1.7
      vertex -16.4 6.1000000000000005 1.7
      vertex -16.30104339226467 6.1000000000000005 2.1974884620746167
    endloop
  endfacet
  facet normal -0.19509032201612803 0.9807852804032305 3.297481681642573e-17
    outer loop
      vertex -15.099999999999998 7.4 1.7
      vertex -15.100000014982637 7.399999997019768 -2.99
      vertex -15.597488462074615 7.301043392264673 1.7
    endloop
  endfacet
  facet normal 0.19148045395532254 -0.9626372481397794 0.1914804539553228
    outer loop
      vertex 15.099999999999998 -7.301043392264673 2.1974884620746167
      vertex 15.099999999999998 -7.4 1.7
      vertex 15.597488462074615 -7.301043392264673 1.7
    endloop
  endfacet
  facet normal -0.5555702330196011 0.8314696123025461 9.981457800284122e-19
    outer loop
      vertex -15.597488462074615 7.301043392264673 1.7
      vertex -16.01923881554251 7.019238815542512 -3
      vertex -16.01923881554251 7.019238815542512 1.7
    endloop
  endfacet
  facet normal -0.8314696123025471 0.5555702330195994 8.844100702664988e-19
    outer loop
      vertex -16.01923881554251 7.019238815542512 1.7
      vertex -16.30104339226467 6.597488462074617 -3
      vertex -16.30104339226467 6.597488462074617 1.7
    endloop
  endfacet
  facet normal -0.9807852804032301 0.19509032201613002 0
    outer loop
      vertex -16.30104339226467 6.597488462074617 -3
      vertex -16.4 6.1000000000000005 1.7
      vertex -16.30104339226467 6.597488462074617 1.7
    endloop
  endfacet
  facet normal -0.195090322016128 0 0.9807852804032304
    outer loop
      vertex -15.597488462074615 6.1000000000000005 2.901043392264673
      vertex -15.597488462074615 -6.1000000000000005 2.901043392264673
      vertex -15.099999999999998 6.1000000000000005 3
    endloop
  endfacet
  facet normal -0.5555702330196011 3.845315709945522e-19 0.831469612302546
    outer loop
      vertex -16.01923881554251 6.1000000000000005 2.619238815542512
      vertex -15.597488462074615 -6.1000000000000005 2.901043392264673
      vertex -15.597488462074615 6.1000000000000005 2.901043392264673
    endloop
  endfacet
  facet normal -0.8314696123025471 3.407153549387331e-19 0.5555702330195994
    outer loop
      vertex -16.30104339226467 6.1000000000000005 2.1974884620746167
      vertex -16.01923881554251 -6.1000000000000005 2.619238815542512
      vertex -16.01923881554251 6.1000000000000005 2.619238815542512
    endloop
  endfacet
  facet normal -0.9807852804032302 0 0.19509032201612997
    outer loop
      vertex -16.4 6.1000000000000005 1.7
      vertex -16.4 -6.1000000000000005 1.7
      vertex -16.30104339226467 6.1000000000000005 2.1974884620746167
    endloop
  endfacet
  facet normal -1 2.308140421882448e-27 -6.340921168749504e-10
    outer loop
      vertex -16.399999997019766 6.10000001498264 -3
      vertex -16.4 -6.1000000000000005 1.7
      vertex -16.4 6.1000000000000005 1.7
    endloop
  endfacet
  facet normal 0.2635683316000085 -0.9279350565396136 0.26356833160000886
    outer loop
      vertex 15.099999999999998 -7.301043392264673 2.1974884620746167
      vertex 15.597488462074615 -7.301043392264673 1.7
      vertex 15.672449312931501 -7.117154643232041 2.272449312931503
    endloop
  endfacet
  facet normal 0.5453665872968723 -0.8161987773137128 0.19077432052496857
    outer loop
      vertex 15.672449312931501 -7.117154643232041 2.272449312931503
      vertex 15.597488462074615 -7.301043392264673 1.7
      vertex 16.01923881554251 -7.019238815542512 1.7
    endloop
  endfacet
  facet normal 0.8161987773137135 -0.5453665872968704 0.1907743205249703
    outer loop
      vertex 16.01923881554251 -7.019238815542512 1.7
      vertex 16.30104339226467 -6.597488462074617 1.7
      vertex 16.117154643232038 -6.672449312931503 2.272449312931503
    endloop
  endfacet
  facet normal 0.6758902283575525 -0.6758902283575499 0.2938448543390791
    outer loop
      vertex 15.672449312931501 -7.117154643232041 2.272449312931503
      vertex 16.01923881554251 -7.019238815542512 1.7
      vertex 16.117154643232038 -6.672449312931503 2.272449312931503
    endloop
  endfacet
  facet normal 0 0 -1
    outer loop
      vertex -15.2 6.9 -3
      vertex -15.100000014982637 7.399999997019768 -3
      vertex 15.100000014982637 7.399999997019768 -3
    endloop
  endfacet
  facet normal -0.19509031208691574 0.9807852823782736 0
    outer loop
      vertex -15.100000014982637 7.399999997019768 -3
      vertex -15.100000014982637 7.399999997019768 -2.99
      vertex -15.099999999999998 7.4 1.7
    endloop
  endfacet
  facet normal -0.19509032201612828 0.9807852804032304 -2.675138928379498e-19
    outer loop
      vertex -15.100000014982637 7.399999997019768 -2.99
      vertex -15.597488462074615 7.301043392264673 -3
      vertex -15.597488462074615 7.301043392264673 1.7
    endloop
  endfacet
  facet normal 0.9626372481397787 -0.19148045395532445 0.19148045395532437
    outer loop
      vertex 16.30104339226467 -6.597488462074617 1.7
      vertex 16.4 -6.1000000000000005 1.7
      vertex 16.30104339226467 -6.1000000000000005 2.1974884620746167
    endloop
  endfacet
  facet normal -0.5555702330196011 0.8314696123025461 9.981457800284122e-19
    outer loop
      vertex -16.01923881554251 7.019238815542512 -3
      vertex -15.597488462074615 7.301043392264673 1.7
      vertex -15.597488462074615 7.301043392264673 -3
    endloop
  endfacet
  facet normal -0.8314696123025471 0.5555702330195994 8.844100702664988e-19
    outer loop
      vertex -16.30104339226467 6.597488462074617 -3
      vertex -16.01923881554251 7.019238815542512 1.7
      vertex -16.01923881554251 7.019238815542512 -3
    endloop
  endfacet
  facet normal -0.9807852804032303 0.19509032201612864 -1.52438387123917e-16
    outer loop
      vertex -16.399999997019766 6.10000001498264 -3
      vertex -16.4 6.1000000000000005 1.7
      vertex -16.30104339226467 6.597488462074617 -3
    endloop
  endfacet
  facet normal 0.9279350565396127 -0.2635683316000099 0.2635683316000098
    outer loop
      vertex 16.117154643232038 -6.672449312931503 2.272449312931503
      vertex 16.30104339226467 -6.597488462074617 1.7
      vertex 16.30104339226467 -6.1000000000000005 2.1974884620746167
    endloop
  endfacet
  facet normal 0.19077432052496804 -0.8161987773137123 0.5453665872968729
    outer loop
      vertex 15.099999999999998 -7.019238815542512 2.619238815542512
      vertex 15.099999999999998 -7.301043392264673 2.1974884620746167
      vertex 15.672449312931501 -7.117154643232041 2.272449312931503
    endloop
  endfacet
  facet normal 0.5773502691896273 -0.5773502691896251 0.5773502691896251
    outer loop
      vertex 16.117154643232038 -6.672449312931503 2.272449312931503
      vertex 15.672449312931501 -6.672449312931503 2.717154643232041
      vertex 15.672449312931501 -7.117154643232041 2.272449312931503
    endloop
  endfacet
  facet normal 0.2938448543390769 -0.6758902283575516 0.6758902283575516
    outer loop
      vertex 15.672449312931501 -7.117154643232041 2.272449312931503
      vertex 15.672449312931501 -6.672449312931503 2.717154643232041
      vertex 15.099999999999998 -7.019238815542512 2.619238815542512
    endloop
  endfacet
  facet normal 0.6758902283575524 -0.2938448543390792 0.6758902283575497
    outer loop
      vertex 15.672449312931501 -6.672449312931503 2.717154643232041
      vertex 16.117154643232038 -6.672449312931503 2.272449312931503
      vertex 16.01923881554251 -6.1000000000000005 2.619238815542512
    endloop
  endfacet
  facet normal 0.19077432052496804 -0.5453665872968729 0.8161987773137123
    outer loop
      vertex 15.099999999999998 -6.597488462074617 2.901043392264673
      vertex 15.099999999999998 -7.019238815542512 2.619238815542512
      vertex 15.672449312931501 -6.672449312931503 2.717154643232041
    endloop
  endfacet
  facet normal 0.8161987773137136 -0.1907743205249704 0.5453665872968704
    outer loop
      vertex 16.117154643232038 -6.672449312931503 2.272449312931503
      vertex 16.30104339226467 -6.1000000000000005 2.1974884620746167
      vertex 16.01923881554251 -6.1000000000000005 2.619238815542512
    endloop
  endfacet
  facet normal 0.19148045395532254 -0.19148045395532287 0.9626372481397794
    outer loop
      vertex 15.099999999999998 -6.1000000000000005 3
      vertex 15.099999999999998 -6.597488462074617 2.901043392264673
      vertex 15.597488462074615 -6.1000000000000005 2.901043392264673
    endloop
  endfacet
  facet normal 0.5453665872968722 -0.19077432052496865 0.8161987773137128
    outer loop
      vertex 15.672449312931501 -6.672449312931503 2.717154643232041
      vertex 16.01923881554251 -6.1000000000000005 2.619238815542512
      vertex 15.597488462074615 -6.1000000000000005 2.901043392264673
    endloop
  endfacet
  facet normal 0.2635683316000085 -0.263568331600009 0.9279350565396135
    outer loop
      vertex 15.597488462074615 -6.1000000000000005 2.901043392264673
      vertex 15.099999999999998 -6.597488462074617 2.901043392264673
      vertex 15.672449312931501 -6.672449312931503 2.717154643232041
    endloop
  endfacet
  facet normal 1 0 -6.340921168749504e-10
    outer loop
      vertex 16.4 -6.1000000000000005 1.7
      vertex 16.399999997019766 -6.10000001498264 -3
      vertex 16.4 6.1000000000000005 1.7
    endloop
  endfacet
  facet normal -0.19509032201612833 0.9807852804032304 -1.257315296338391e-16
    outer loop
      vertex -15.597488462074615 7.301043392264673 -3
      vertex -15.100000014982637 7.399999997019768 -2.99
      vertex -15.100000014982637 7.399999997019768 -3
    endloop
  endfacet
  facet normal 0 0 -1
    outer loop
      vertex -15.597488462074615 7.301043392264673 -3
      vertex -15.100000014982637 7.399999997019768 -3
      vertex -15.2 6.9 -3
    endloop
  endfacet
  facet normal 0 0 -1
    outer loop
      vertex -15.597488462074615 7.301043392264673 -3
      vertex -15.2 6.9 -3
      vertex -15.467878402655563 6.846715672757901 -3
    endloop
  endfacet
  facet normal 0 0 -1
    outer loop
      vertex -15.694974746830583 6.694974746830583 -3
      vertex -15.597488462074615 7.301043392264673 -3
      vertex -15.467878402655563 6.846715672757901 -3
    endloop
  endfacet
  facet normal 0 0 -1
    outer loop
      vertex -15.694974746830583 6.694974746830583 -3
      vertex -16.01923881554251 7.019238815542512 -3
      vertex -15.597488462074615 7.301043392264673 -3
    endloop
  endfacet
  facet normal 0.9807852804032302 0 0.19509032201612997
    outer loop
      vertex 16.30104339226467 -6.1000000000000005 2.1974884620746167
      vertex 16.4 -6.1000000000000005 1.7
      vertex 16.30104339226467 6.1000000000000005 2.1974884620746167
    endloop
  endfacet
  facet normal 0.8314696123025471 -3.407153549387331e-19 0.5555702330195994
    outer loop
      vertex 16.01923881554251 -6.1000000000000005 2.619238815542512
      vertex 16.30104339226467 -6.1000000000000005 2.1974884620746167
      vertex 16.30104339226467 6.1000000000000005 2.1974884620746167
    endloop
  endfacet
  facet normal 0.195090322016128 0 0.9807852804032304
    outer loop
      vertex 15.099999999999998 6.1000000000000005 3
      vertex 15.099999999999998 -6.1000000000000005 3
      vertex 15.597488462074615 -6.1000000000000005 2.901043392264673
    endloop
  endfacet
  facet normal 0.5555702330196011 -3.845315709945522e-19 0.831469612302546
    outer loop
      vertex 15.597488462074615 -6.1000000000000005 2.901043392264673
      vertex 16.01923881554251 -6.1000000000000005 2.619238815542512
      vertex 16.01923881554251 6.1000000000000005 2.619238815542512
    endloop
  endfacet
  facet normal 0 0 -1
    outer loop
      vertex -16.01923881554251 7.019238815542512 -3
      vertex -15.694974746830583 6.694974746830583 -3
      vertex -15.8467156727579 6.467878402655563 -3
    endloop
  endfacet
  facet normal 0 0 -1
    outer loop
      vertex -16.30104339226467 6.597488462074617 -3
      vertex -16.01923881554251 7.019238815542512 -3
      vertex -15.8467156727579 6.467878402655563 -3
    endloop
  endfacet
  facet normal 0 0 -1
    outer loop
      vertex -15.8467156727579 6.467878402655563 -3
      vertex -15.899999999999999 6.2 -3
      vertex -16.30104339226467 6.597488462074617 -3
    endloop
  endfacet
  facet normal 5.594571078042986e-27 -1 -6.340919279008186e-10
    outer loop
      vertex 15.099999999999998 -7.4 1.7
      vertex -15.100000014982637 -7.399999997019768 -3
      vertex 15.100000014982637 -7.399999997019768 -3
    endloop
  endfacet
  facet normal 0 0 -1
    outer loop
      vertex -15.899999999999999 6.2 -3
      vertex -15.899999999999999 -6.2 -3
      vertex -16.399999997019766 6.10000001498264 -3
    endloop
  endfacet
  facet normal -1.8576715803019555e-19 -0.19509032201612836 0.9807852804032304
    outer loop
      vertex -15.099999999999998 -6.1000000000000005 3
      vertex -15.099999999999998 -6.597488462074617 2.901043392264673
      vertex 15.099999999999998 -6.597488462074617 2.901043392264673
    endloop
  endfacet
  facet normal 0 -0.5555702330196018 0.8314696123025455
    outer loop
      vertex -15.099999999999998 -6.597488462074617 2.901043392264673
      vertex -15.099999999999998 -7.019238815542512 2.619238815542512
      vertex 15.099999999999998 -6.597488462074617 2.901043392264673
    endloop
  endfacet
  facet normal 0 0 -1
    outer loop
      vertex 15.2 6.9 -3
      vertex -15.2 6.9 -3
      vertex 15.100000014982637 7.399999997019768 -3
    endloop
  endfacet
  facet normal 1.2318576662593912e-19 -0.8314696123025455 0.5555702330196018
    outer loop
      vertex -15.099999999999998 -7.019238815542512 2.619238815542512
      vertex -15.099999999999998 -7.301043392264673 2.1974884620746167
      vertex 15.099999999999998 -7.301043392264673 2.1974884620746167
    endloop
  endfacet
  facet normal 0 1 -6.340919279008186e-10
    outer loop
      vertex 15.100000014982637 7.399999997019768 -3
      vertex -15.100000014982637 7.399999997019768 -3
      vertex 15.099999999999998 7.4 1.7
    endloop
  endfacet
  facet normal 0 0 -1
    outer loop
      vertex 16.399999997019766 6.10000001498264 -3
      vertex 16.30104339226467 -6.597488462074617 -3
      vertex 16.30104339226467 6.597488462074617 -3
    endloop
  endfacet
  facet normal 0 0 -1
    outer loop
      vertex 16.01923881554251 7.019238815542512 -3
      vertex 16.30104339226467 -6.597488462074617 -3
      vertex 15.899999999999999 6.2 -3
    endloop
  endfacet
  facet normal 0 0 -1
    outer loop
      vertex 16.30104339226467 6.597488462074617 -3
      vertex 16.30104339226467 -6.597488462074617 -3
      vertex 16.01923881554251 7.019238815542512 -3
    endloop
  endfacet
  facet normal 1 -2.308140416213262e-27 -6.340921168749504e-10
    outer loop
      vertex 16.4 6.1000000000000005 1.7
      vertex 16.399999997019766 -6.10000001498264 -3
      vertex 16.399999997019766 6.10000001498264 -3
    endloop
  endfacet
  facet normal -1.1029633810892103e-19 -0.9807852804032304 0.19509032201612828
    outer loop
      vertex -15.099999999999998 -7.301043392264673 2.1974884620746167
      vertex -15.099999999999998 -7.4 1.7
      vertex 15.099999999999998 -7.4 1.7
    endloop
  endfacet
  facet normal 0 0 -1
    outer loop
      vertex 15.597488462074615 7.301043392264673 -3
      vertex 15.2 6.9 -3
      vertex 15.100000014982637 7.399999997019768 -3
    endloop
  endfacet
  facet normal 0.19509032201612833 0.9807852804032304 1.257315296338391e-16
    outer loop
      vertex 15.597488462074615 7.301043392264673 -3
      vertex 15.100000014982637 7.399999997019768 -3
      vertex 15.100000014982637 7.399999997019768 -2.99
    endloop
  endfacet
  facet normal 0 0 -1
    outer loop
      vertex 15.8467156727579 6.467878402655563 -3
      vertex 15.694974746830583 6.694974746830583 -3
      vertex 16.01923881554251 7.019238815542512 -3
    endloop
  endfacet
  facet normal 0 0 -1
    outer loop
      vertex 15.694974746830583 6.694974746830583 -3
      vertex 15.467878402655563 6.846715672757901 -3
      vertex 16.01923881554251 7.019238815542512 -3
    endloop
  endfacet
  facet normal 0 0 -1
    outer loop
      vertex 16.01923881554251 7.019238815542512 -3
      vertex 15.899999999999999 6.2 -3
      vertex 15.8467156727579 6.467878402655563 -3
    endloop
  endfacet
  facet normal 0 0 -1
    outer loop
      vertex 15.597488462074615 7.301043392264673 -3
      vertex 15.467878402655563 6.846715672757901 -3
      vertex 15.2 6.9 -3
    endloop
  endfacet
  facet normal 0 0 -1
    outer loop
      vertex 15.467878402655563 6.846715672757901 -3
      vertex 15.597488462074615 7.301043392264673 -3
      vertex 16.01923881554251 7.019238815542512 -3
    endloop
  endfacet
  facet normal 0 -1 -6.340919279008184e-10
    outer loop
      vertex -15.099999999999998 -7.4 1.7
      vertex -15.100000014982637 -7.399999997019768 -3
      vertex 15.099999999999998 -7.4 1.7
    endloop
  endfacet
  facet normal -0.195090322016128 2.8743498967033157e-19 0.9807852804032304
    outer loop
      vertex -15.597488462074615 -6.1000000000000005 2.901043392264673
      vertex -15.099999999999998 -6.1000000000000005 3
      vertex -15.099999999999998 6.1000000000000005 3
    endloop
  endfacet
  facet normal -0.5555702330196011 0 0.831469612302546
    outer loop
      vertex -16.01923881554251 -6.1000000000000005 2.619238815542512
      vertex -15.597488462074615 -6.1000000000000005 2.901043392264673
      vertex -16.01923881554251 6.1000000000000005 2.619238815542512
    endloop
  endfacet
  facet normal -0.8314696123025471 0 0.5555702330195994
    outer loop
      vertex -16.30104339226467 6.1000000000000005 2.1974884620746167
      vertex -16.30104339226467 -6.1000000000000005 2.1974884620746167
      vertex -16.01923881554251 -6.1000000000000005 2.619238815542512
    endloop
  endfacet
  facet normal 0.9807852804032303 0.19509032201612864 -1.5243838713085263e-16
    outer loop
      vertex 16.4 6.1000000000000005 1.7
      vertex 16.399999997019766 6.10000001498264 -3
      vertex 16.30104339226467 6.597488462074617 -3
    endloop
  endfacet
  facet normal 0.19509031208691574 0.9807852823782736 0
    outer loop
      vertex 15.100000014982637 7.399999997019768 -2.99
      vertex 15.100000014982637 7.399999997019768 -3
      vertex 15.099999999999998 7.4 1.7
    endloop
  endfacet
  facet normal 0.8314696123025471 0.5555702330195994 -8.844100702664988e-19
    outer loop
      vertex 16.01923881554251 7.019238815542512 -3
      vertex 16.30104339226467 6.597488462074617 1.7
      vertex 16.30104339226467 6.597488462074617 -3
    endloop
  endfacet
  facet normal 0.5555702330196011 0.8314696123025461 0
    outer loop
      vertex 16.01923881554251 7.019238815542512 -3
      vertex 15.597488462074615 7.301043392264673 -3
      vertex 16.01923881554251 7.019238815542512 1.7
    endloop
  endfacet
  facet normal 0.1950903220161283 0.9807852804032304 0
    outer loop
      vertex 15.597488462074615 7.301043392264673 -3
      vertex 15.100000014982637 7.399999997019768 -2.99
      vertex 15.597488462074615 7.301043392264673 1.7
    endloop
  endfacet
  facet normal -0.9807852804032302 4.877985233387849e-19 0.19509032201612997
    outer loop
      vertex -16.4 -6.1000000000000005 1.7
      vertex -16.30104339226467 -6.1000000000000005 2.1974884620746167
      vertex -16.30104339226467 6.1000000000000005 2.1974884620746167
    endloop
  endfacet
  facet normal -0.19148045395532254 -0.19148045395532287 0.9626372481397794
    outer loop
      vertex -15.597488462074615 -6.1000000000000005 2.901043392264673
      vertex -15.099999999999998 -6.597488462074617 2.901043392264673
      vertex -15.099999999999998 -6.1000000000000005 3
    endloop
  endfacet
  facet normal -0.2635683316000085 -0.263568331600009 0.9279350565396135
    outer loop
      vertex -15.597488462074615 -6.1000000000000005 2.901043392264673
      vertex -15.672449312931501 -6.672449312931503 2.717154643232041
      vertex -15.099999999999998 -6.597488462074617 2.901043392264673
    endloop
  endfacet
  facet normal -0.5453665872968722 -0.19077432052496865 0.8161987773137128
    outer loop
      vertex -16.01923881554251 -6.1000000000000005 2.619238815542512
      vertex -15.672449312931501 -6.672449312931503 2.717154643232041
      vertex -15.597488462074615 -6.1000000000000005 2.901043392264673
    endloop
  endfacet
  facet normal -0.8161987773137136 -0.19077432052497037 0.5453665872968704
    outer loop
      vertex -16.30104339226467 -6.1000000000000005 2.1974884620746167
      vertex -16.117154643232038 -6.672449312931503 2.272449312931503
      vertex -16.01923881554251 -6.1000000000000005 2.619238815542512
    endloop
  endfacet
  facet normal -0.19077432052496807 -0.545366587296873 0.8161987773137124
    outer loop
      vertex -15.672449312931501 -6.672449312931503 2.717154643232041
      vertex -15.099999999999998 -7.019238815542512 2.619238815542512
      vertex -15.099999999999998 -6.597488462074617 2.901043392264673
    endloop
  endfacet
  facet normal -0.19077432052496807 -0.8161987773137124 0.545366587296873
    outer loop
      vertex -15.672449312931501 -7.117154643232041 2.272449312931503
      vertex -15.099999999999998 -7.301043392264673 2.1974884620746167
      vertex -15.099999999999998 -7.019238815542512 2.619238815542512
    endloop
  endfacet
  facet normal -0.29384485433907687 -0.6758902283575516 0.6758902283575516
    outer loop
      vertex -15.672449312931501 -6.672449312931503 2.717154643232041
      vertex -15.672449312931501 -7.117154643232041 2.272449312931503
      vertex -15.099999999999998 -7.019238815542512 2.619238815542512
    endloop
  endfacet
  facet normal -0.6758902283575524 -0.2938448543390792 0.6758902283575497
    outer loop
      vertex -16.117154643232038 -6.672449312931503 2.272449312931503
      vertex -15.672449312931501 -6.672449312931503 2.717154643232041
      vertex -16.01923881554251 -6.1000000000000005 2.619238815542512
    endloop
  endfacet
  facet normal -0.5773502691896273 -0.5773502691896251 0.5773502691896251
    outer loop
      vertex -16.117154643232038 -6.672449312931503 2.272449312931503
      vertex -15.672449312931501 -7.117154643232041 2.272449312931503
      vertex -15.672449312931501 -6.672449312931503 2.717154643232041
    endloop
  endfacet
  facet normal -0.9279350565396127 -0.2635683316000099 0.2635683316000098
    outer loop
      vertex -16.30104339226467 -6.1000000000000005 2.1974884620746167
      vertex -16.30104339226467 -6.597488462074617 1.7
      vertex -16.117154643232038 -6.672449312931503 2.272449312931503
    endloop
  endfacet
  facet normal -0.9626372481397787 -0.19148045395532445 0.19148045395532437
    outer loop
      vertex -16.4 -6.1000000000000005 1.7
      vertex -16.30104339226467 -6.597488462074617 1.7
      vertex -16.30104339226467 -6.1000000000000005 2.1974884620746167
    endloop
  endfacet
  facet normal -0.6758902283575525 -0.6758902283575499 0.2938448543390791
    outer loop
      vertex -16.117154643232038 -6.672449312931503 2.272449312931503
      vertex -16.01923881554251 -7.019238815542512 1.7
      vertex -15.672449312931501 -7.117154643232041 2.272449312931503
    endloop
  endfacet
  facet normal -0.8161987773137135 -0.5453665872968704 0.1907743205249703
    outer loop
      vertex -16.30104339226467 -6.597488462074617 1.7
      vertex -16.01923881554251 -7.019238815542512 1.7
      vertex -16.117154643232038 -6.672449312931503 2.272449312931503
    endloop
  endfacet
  facet normal -0.5453665872968723 -0.8161987773137128 0.19077432052496857
    outer loop
      vertex -15.597488462074615 -7.301043392264673 1.7
      vertex -15.672449312931501 -7.117154643232041 2.272449312931503
      vertex -16.01923881554251 -7.019238815542512 1.7
    endloop
  endfacet
  facet normal -0.2635683316000085 -0.9279350565396136 0.26356833160000886
    outer loop
      vertex -15.099999999999998 -7.301043392264673 2.1974884620746167
      vertex -15.672449312931501 -7.117154643232041 2.272449312931503
      vertex -15.597488462074615 -7.301043392264673 1.7
    endloop
  endfacet
  facet normal 0 0.9807852804032304 0.19509032201612828
    outer loop
      vertex 15.099999999999998 7.4 1.7
      vertex -15.099999999999998 7.4 1.7
      vertex 15.099999999999998 7.301043392264673 2.1974884620746167
    endloop
  endfacet
  facet normal -0.19148045395532254 -0.9626372481397794 0.1914804539553228
    outer loop
      vertex -15.099999999999998 -7.4 1.7
      vertex -15.099999999999998 -7.301043392264673 2.1974884620746167
      vertex -15.597488462074615 -7.301043392264673 1.7
    endloop
  endfacet
  facet normal 0 0.19509032201612836 0.9807852804032304
    outer loop
      vertex 15.099999999999998 6.597488462074617 2.901043392264673
      vertex -15.099999999999998 6.597488462074617 2.901043392264673
      vertex 15.099999999999998 6.1000000000000005 3
    endloop
  endfacet
  facet normal -1.2318576662593912e-19 0.8314696123025455 0.5555702330196018
    outer loop
      vertex 15.099999999999998 7.301043392264673 2.1974884620746167
      vertex -15.099999999999998 7.019238815542512 2.619238815542512
      vertex 15.099999999999998 7.019238815542512 2.619238815542512
    endloop
  endfacet
  facet normal 0 0.5555702330196018 0.8314696123025455
    outer loop
      vertex 15.099999999999998 7.019238815542512 2.619238815542512
      vertex -15.099999999999998 7.019238815542512 2.619238815542512
      vertex 15.099999999999998 6.597488462074617 2.901043392264673
    endloop
  endfacet
  facet normal -0.9807852804032301 -0.19509032201613002 -7.812602602362343e-19
    outer loop
      vertex -16.4 -6.1000000000000005 1.7
      vertex -16.30104339226467 -6.597488462074617 -3
      vertex -16.30104339226467 -6.597488462074617 1.7
    endloop
  endfacet
  facet normal -0.19509032201612803 -0.9807852804032305 3.4382866780139795e-17
    outer loop
      vertex -15.597488462074615 -7.301043392264673 1.7
      vertex -15.100000014982637 -7.399999997019768 -2.99
      vertex -15.099999999999998 -7.4 1.7
    endloop
  endfacet
  facet normal 0.9807852804032302 -4.877985233387849e-19 0.19509032201612997
    outer loop
      vertex 16.30104339226467 6.1000000000000005 2.1974884620746167
      vertex 16.4 -6.1000000000000005 1.7
      vertex 16.4 6.1000000000000005 1.7
    endloop
  endfacet
  facet normal -0.8314696123025471 -0.5555702330195994 -8.844100702664988e-19
    outer loop
      vertex -16.30104339226467 -6.597488462074617 1.7
      vertex -16.01923881554251 -7.019238815542512 -3
      vertex -16.01923881554251 -7.019238815542512 1.7
    endloop
  endfacet
  facet normal -0.5555702330196011 -0.8314696123025461 0
    outer loop
      vertex -16.01923881554251 -7.019238815542512 -3
      vertex -15.597488462074615 -7.301043392264673 1.7
      vertex -16.01923881554251 -7.019238815542512 1.7
    endloop
  endfacet
  facet normal 0.8314696123025471 0 0.5555702330195994
    outer loop
      vertex 16.01923881554251 6.1000000000000005 2.619238815542512
      vertex 16.01923881554251 -6.1000000000000005 2.619238815542512
      vertex 16.30104339226467 6.1000000000000005 2.1974884620746167
    endloop
  endfacet
  facet normal 0.5555702330196011 0 0.831469612302546
    outer loop
      vertex 15.597488462074615 -6.1000000000000005 2.901043392264673
      vertex 16.01923881554251 6.1000000000000005 2.619238815542512
      vertex 15.597488462074615 6.1000000000000005 2.901043392264673
    endloop
  endfacet
  facet normal 0.195090322016128 -2.8743498967033157e-19 0.9807852804032304
    outer loop
      vertex 15.099999999999998 6.1000000000000005 3
      vertex 15.597488462074615 -6.1000000000000005 2.901043392264673
      vertex 15.597488462074615 6.1000000000000005 2.901043392264673
    endloop
  endfacet
  facet normal 0.9807852804032301 0.19509032201613002 -7.812602602362343e-19
    outer loop
      vertex 16.4 6.1000000000000005 1.7
      vertex 16.30104339226467 6.597488462074617 -3
      vertex 16.30104339226467 6.597488462074617 1.7
    endloop
  endfacet
  facet normal 0.19509032201612803 0.9807852804032305 3.4382866780139795e-17
    outer loop
      vertex 15.597488462074615 7.301043392264673 1.7
      vertex 15.100000014982637 7.399999997019768 -2.99
      vertex 15.099999999999998 7.4 1.7
    endloop
  endfacet
  facet normal 0.8314696123025471 0.5555702330195994 -8.844100702664988e-19
    outer loop
      vertex 16.30104339226467 6.597488462074617 1.7
      vertex 16.01923881554251 7.019238815542512 -3
      vertex 16.01923881554251 7.019238815542512 1.7
    endloop
  endfacet
  facet normal 0.5555702330196011 0.8314696123025461 -9.981457800284122e-19
    outer loop
      vertex 16.01923881554251 7.019238815542512 1.7
      vertex 15.597488462074615 7.301043392264673 -3
      vertex 15.597488462074615 7.301043392264673 1.7
    endloop
  endfacet
  facet normal 0 0 -1
    outer loop
      vertex -15.2 -6.9 -3
      vertex 15.2 -6.9 -3
      vertex -16.01923881554251 -7.019238815542512 -3
    endloop
  endfacet
  facet normal 0 0 -1
    outer loop
      vertex -16.01923881554251 -7.019238815542512 -3
      vertex 15.2 -6.9 -3
      vertex -15.597488462074615 -7.301043392264673 -3
    endloop
  endfacet
  facet normal 0 0 -1
    outer loop
      vertex -15.597488462074615 -7.301043392264673 -3
      vertex 15.2 -6.9 -3
      vertex -15.100000014982637 -7.399999997019768 -3
    endloop
  endfacet
  facet normal -1 0 -6.340921168749505e-10
    outer loop
      vertex -16.399999997019766 -6.10000001498264 -3
      vertex -16.4 -6.1000000000000005 1.7
      vertex -16.399999997019766 6.10000001498264 -3
    endloop
  endfacet
  facet normal 0 0 -1
    outer loop
      vertex -16.399999997019766 -6.10000001498264 -3
      vertex -16.399999997019766 6.10000001498264 -3
      vertex -15.899999999999999 -6.2 -3
    endloop
  endfacet
  facet normal 0.9626372481397787 0.19148045395532445 0.19148045395532437
    outer loop
      vertex 16.30104339226467 6.1000000000000005 2.1974884620746167
      vertex 16.4 6.1000000000000005 1.7
      vertex 16.30104339226467 6.597488462074617 1.7
    endloop
  endfacet
  facet normal -0.9807852804032303 -0.19509032201612864 -1.5200417879879663e-16
    outer loop
      vertex -16.30104339226467 -6.597488462074617 -3
      vertex -16.4 -6.1000000000000005 1.7
      vertex -16.399999997019766 -6.10000001498264 -3
    endloop
  endfacet
  facet normal -0.19509031208691574 -0.9807852823782736 0
    outer loop
      vertex -15.100000014982637 -7.399999997019768 -2.99
      vertex -15.100000014982637 -7.399999997019768 -3
      vertex -15.099999999999998 -7.4 1.7
    endloop
  endfacet
  facet normal -0.8314696123025471 -0.5555702330195994 -8.844100702664988e-19
    outer loop
      vertex -16.01923881554251 -7.019238815542512 -3
      vertex -16.30104339226467 -6.597488462074617 1.7
      vertex -16.30104339226467 -6.597488462074617 -3
    endloop
  endfacet
  facet normal 0.9279350565396128 0.26356833160001003 0.2635683316000099
    outer loop
      vertex 16.30104339226467 6.597488462074617 1.7
      vertex 16.117154643232038 6.672449312931503 2.272449312931503
      vertex 16.30104339226467 6.1000000000000005 2.1974884620746167
    endloop
  endfacet
  facet normal -0.1950903220161283 -0.9807852804032304 0
    outer loop
      vertex -15.597488462074615 -7.301043392264673 1.7
      vertex -15.597488462074615 -7.301043392264673 -3
      vertex -15.100000014982637 -7.399999997019768 -2.99
    endloop
  endfacet
  facet normal 0.19148045395532254 0.9626372481397794 0.1914804539553228
    outer loop
      vertex 15.597488462074615 7.301043392264673 1.7
      vertex 15.099999999999998 7.4 1.7
      vertex 15.099999999999998 7.301043392264673 2.1974884620746167
    endloop
  endfacet
  facet normal -0.5555702330196011 -0.8314696123025461 0
    outer loop
      vertex -15.597488462074615 -7.301043392264673 -3
      vertex -15.597488462074615 -7.301043392264673 1.7
      vertex -16.01923881554251 -7.019238815542512 -3
    endloop
  endfacet
  facet normal 0 0 -1
    outer loop
      vertex -15.899999999999999 -6.2 -3
      vertex -15.8467156727579 -6.467878402655563 -3
      vertex -16.30104339226467 -6.597488462074617 -3
    endloop
  endfacet
  facet normal 0 0 -1
    outer loop
      vertex -16.399999997019766 -6.10000001498264 -3
      vertex -15.899999999999999 -6.2 -3
      vertex -16.30104339226467 -6.597488462074617 -3
    endloop
  endfacet
  facet normal -0.19509032201612833 -0.9807852804032304 0
    outer loop
      vertex -15.100000014982637 -7.399999997019768 -3
      vertex -15.100000014982637 -7.399999997019768 -2.99
      vertex -15.597488462074615 -7.301043392264673 -3
    endloop
  endfacet
  facet normal 0 0 -1
    outer loop
      vertex -15.2 -6.9 -3
      vertex -16.01923881554251 -7.019238815542512 -3
      vertex -15.467878402655563 -6.846715672757901 -3
    endloop
  endfacet
  facet normal 0 0 -1
    outer loop
      vertex -16.01923881554251 -7.019238815542512 -3
      vertex -15.694974746830583 -6.694974746830583 -3
      vertex -15.467878402655563 -6.846715672757901 -3
    endloop
  endfacet
  facet normal 0 0 -1
    outer loop
      vertex -15.8467156727579 -6.467878402655563 -3
      vertex -15.694974746830583 -6.694974746830583 -3
      vertex -16.30104339226467 -6.597488462074617 -3
    endloop
  endfacet
  facet normal 0.8161987773137136 0.5453665872968704 0.19077432052497031
    outer loop
      vertex 16.117154643232038 6.672449312931503 2.272449312931503
      vertex 16.30104339226467 6.597488462074617 1.7
      vertex 16.01923881554251 7.019238815542512 1.7
    endloop
  endfacet
  facet normal 0.6758902283575525 0.6758902283575499 0.2938448543390791
    outer loop
      vertex 16.117154643232038 6.672449312931503 2.272449312931503
      vertex 16.01923881554251 7.019238815542512 1.7
      vertex 15.672449312931501 7.117154643232041 2.272449312931503
    endloop
  endfacet
  facet normal 0.5453665872968723 0.8161987773137128 0.19077432052496857
    outer loop
      vertex 16.01923881554251 7.019238815542512 1.7
      vertex 15.597488462074615 7.301043392264673 1.7
      vertex 15.672449312931501 7.117154643232041 2.272449312931503
    endloop
  endfacet
  facet normal 0.2635683316000085 0.9279350565396136 0.26356833160000886
    outer loop
      vertex 15.672449312931501 7.117154643232041 2.272449312931503
      vertex 15.597488462074615 7.301043392264673 1.7
      vertex 15.099999999999998 7.301043392264673 2.1974884620746167
    endloop
  endfacet
  facet normal 0.8161987773137136 0.19077432052497037 0.5453665872968704
    outer loop
      vertex 16.01923881554251 6.1000000000000005 2.619238815542512
      vertex 16.30104339226467 6.1000000000000005 2.1974884620746167
      vertex 16.117154643232038 6.672449312931503 2.272449312931503
    endloop
  endfacet
  facet normal 0.19148045395532254 0.19148045395532287 0.9626372481397794
    outer loop
      vertex 15.099999999999998 6.597488462074617 2.901043392264673
      vertex 15.099999999999998 6.1000000000000005 3
      vertex 15.597488462074615 6.1000000000000005 2.901043392264673
    endloop
  endfacet
  facet normal 0.5453665872968722 0.19077432052496865 0.8161987773137128
    outer loop
      vertex 15.597488462074615 6.1000000000000005 2.901043392264673
      vertex 16.01923881554251 6.1000000000000005 2.619238815542512
      vertex 15.672449312931501 6.672449312931503 2.717154643232041
    endloop
  endfacet
  facet normal 0.2635683316000085 0.263568331600009 0.9279350565396135
    outer loop
      vertex 15.099999999999998 6.597488462074617 2.901043392264673
      vertex 15.597488462074615 6.1000000000000005 2.901043392264673
      vertex 15.672449312931501 6.672449312931503 2.717154643232041
    endloop
  endfacet
  facet normal 0.19077432052496807 0.8161987773137124 0.545366587296873
    outer loop
      vertex 15.672449312931501 7.117154643232041 2.272449312931503
      vertex 15.099999999999998 7.301043392264673 2.1974884620746167
      vertex 15.099999999999998 7.019238815542512 2.619238815542512
    endloop
  endfacet
  facet normal 0.5773502691896273 0.5773502691896251 0.5773502691896251
    outer loop
      vertex 16.117154643232038 6.672449312931503 2.272449312931503
      vertex 15.672449312931501 7.117154643232041 2.272449312931503
      vertex 15.672449312931501 6.672449312931503 2.717154643232041
    endloop
  endfacet
  facet normal 0.29384485433907687 0.6758902283575516 0.6758902283575516
    outer loop
      vertex 15.672449312931501 7.117154643232041 2.272449312931503
      vertex 15.099999999999998 7.019238815542512 2.619238815542512
      vertex 15.672449312931501 6.672449312931503 2.717154643232041
    endloop
  endfacet
  facet normal 0.6758902283575525 0.2938448543390792 0.6758902283575499
    outer loop
      vertex 15.672449312931501 6.672449312931503 2.717154643232041
      vertex 16.01923881554251 6.1000000000000005 2.619238815542512
      vertex 16.117154643232038 6.672449312931503 2.272449312931503
    endloop
  endfacet
  facet normal 0 0 -1
    outer loop
      vertex -16.399999997019766 6.10000001498264 -3
      vertex -16.30104339226467 6.597488462074617 -3
      vertex -15.899999999999999 6.2 -3
    endloop
  endfacet
endsolid OpenSCAD_Model
